<svg width="34" height="34" viewBox="0 0 34 34" fill="none" xmlns="http://www.w3.org/2000/svg">
<circle cx="16.94" cy="16.94" r="16.44" stroke="#959595"/>
<mask id="path-2-inside-1" fill="white">
<path d="M8.27799 16.2476L12.4375 18.0627C12.5153 18.099 12.6019 18.118 12.6899 18.118C12.7779 18.118 12.8645 18.099 12.9423 18.0627L16.6467 16.1785L14.407 17.912C14.3497 17.9548 14.3038 18.0082 14.2724 18.0684C14.2411 18.1287 14.2251 18.1943 14.2257 18.2606V22.4591C14.2281 22.5567 14.2647 22.6512 14.3305 22.7295C14.3963 22.8079 14.4881 22.8662 14.593 22.8966C14.698 22.9269 14.811 22.9277 14.9165 22.8988C15.0221 22.87 15.1148 22.8129 15.182 22.7355L16.9809 20.6503L21.4319 22.8485C21.5047 22.8853 21.5864 22.9063 21.6702 22.9097C21.754 22.9131 21.8375 22.8989 21.9139 22.8683C21.9903 22.8376 22.0573 22.7913 22.1095 22.7333C22.1617 22.6753 22.1975 22.6072 22.214 22.5345L24.9906 10.4757C25.0083 10.3938 25.0009 10.3091 24.9691 10.2305C24.9374 10.1518 24.8823 10.0822 24.8098 10.0287C24.7373 9.97516 24.6498 9.93978 24.5566 9.92618C24.4634 9.91257 24.3677 9.92125 24.2795 9.95131L8.33843 15.3997C8.24269 15.4316 8.15963 15.4876 8.09957 15.5607C8.0395 15.6339 8.00506 15.721 8.00052 15.8113C7.99597 15.9015 8.02153 15.991 8.07401 16.0686C8.1265 16.1461 8.2036 16.2084 8.29577 16.2476H8.27799ZM23.7569 11.154L21.3181 21.7432L17.1018 19.6486C16.9888 19.5932 16.8571 19.5755 16.7306 19.5985C16.6041 19.6216 16.4911 19.6839 16.4121 19.7742L15.2887 21.0774V18.4521L21.3537 13.7668C21.4563 13.6909 21.5223 13.5834 21.5383 13.466C21.5543 13.3486 21.5191 13.2303 21.4398 13.1351C21.3606 13.0399 21.2432 12.9749 21.1116 12.9534C20.98 12.9319 20.8441 12.9555 20.7315 13.0194L12.6579 17.1206L9.8138 15.8896L23.7569 11.154Z"/>
</mask>
<path d="M8.27799 16.2476L12.4375 18.0627C12.5153 18.099 12.6019 18.118 12.6899 18.118C12.7779 18.118 12.8645 18.099 12.9423 18.0627L16.6467 16.1785L14.407 17.912C14.3497 17.9548 14.3038 18.0082 14.2724 18.0684C14.2411 18.1287 14.2251 18.1943 14.2257 18.2606V22.4591C14.2281 22.5567 14.2647 22.6512 14.3305 22.7295C14.3963 22.8079 14.4881 22.8662 14.593 22.8966C14.698 22.9269 14.811 22.9277 14.9165 22.8988C15.0221 22.87 15.1148 22.8129 15.182 22.7355L16.9809 20.6503L21.4319 22.8485C21.5047 22.8853 21.5864 22.9063 21.6702 22.9097C21.754 22.9131 21.8375 22.8989 21.9139 22.8683C21.9903 22.8376 22.0573 22.7913 22.1095 22.7333C22.1617 22.6753 22.1975 22.6072 22.214 22.5345L24.9906 10.4757C25.0083 10.3938 25.0009 10.3091 24.9691 10.2305C24.9374 10.1518 24.8823 10.0822 24.8098 10.0287C24.7373 9.97516 24.6498 9.93978 24.5566 9.92618C24.4634 9.91257 24.3677 9.92125 24.2795 9.95131L8.33843 15.3997C8.24269 15.4316 8.15963 15.4876 8.09957 15.5607C8.0395 15.6339 8.00506 15.721 8.00052 15.8113C7.99597 15.9015 8.02153 15.991 8.07401 16.0686C8.1265 16.1461 8.2036 16.2084 8.29577 16.2476H8.27799ZM23.7569 11.154L21.3181 21.7432L17.1018 19.6486C16.9888 19.5932 16.8571 19.5755 16.7306 19.5985C16.6041 19.6216 16.4911 19.6839 16.4121 19.7742L15.2887 21.0774V18.4521L21.3537 13.7668C21.4563 13.6909 21.5223 13.5834 21.5383 13.466C21.5543 13.3486 21.5191 13.2303 21.4398 13.1351C21.3606 13.0399 21.2432 12.9749 21.1116 12.9534C20.98 12.9319 20.8441 12.9555 20.7315 13.0194L12.6579 17.1206L9.8138 15.8896L23.7569 11.154Z" stroke="#959595" stroke-width="2" mask="url(#path-2-inside-1)"/>
</svg>
