<svg width="35" height="34" viewBox="0 0 35 34" fill="none" xmlns="http://www.w3.org/2000/svg">
<circle cx="17.5001" cy="16.94" r="16.44" stroke="black"/>
<mask id="path-2-inside-1" fill="white">
<path fill-rule="evenodd" clip-rule="evenodd" d="M22.8025 11.1098C21.7605 10.0666 20.4345 9.35551 18.991 9.06572C17.5476 8.77592 16.051 8.92036 14.689 9.48091C13.3271 10.0415 12.1606 10.9931 11.3359 12.2165C10.5113 13.4398 10.0652 14.8803 10.0537 16.3571C10.055 17.659 10.4025 18.9371 11.0602 20.0594L10 23.92L13.9555 22.8867C15.0508 23.481 16.2765 23.7922 17.5218 23.7921C18.499 23.797 19.4676 23.6087 20.3723 23.238C21.2769 22.8673 22.1 22.3215 22.7944 21.6318C23.4888 20.942 24.041 20.1217 24.4194 19.2178C24.7979 18.314 24.9951 17.3442 25 16.3638C25.0031 15.3862 24.8116 14.4179 24.4365 13.5157C24.0614 12.6134 23.5105 11.7955 22.8159 11.1098H22.8025ZM17.5251 22.5535C16.4151 22.5535 15.3252 22.2561 14.3681 21.6918L14.1434 21.5572L11.7949 22.1731L12.4223 19.8945L12.2747 19.6589C11.6537 18.6765 11.3244 17.5371 11.3252 16.3739C11.3345 15.1469 11.7045 13.95 12.3889 12.9331C13.0733 11.9162 14.0416 11.1245 15.1726 10.6573C16.3035 10.1901 17.5467 10.0682 18.7464 10.3067C19.9461 10.5453 21.049 11.1337 21.9168 11.9984C22.4943 12.5699 22.9523 13.2513 23.2639 14.0026C23.5756 14.7539 23.7347 15.5601 23.7318 16.3739C23.722 18.0168 23.0637 19.5888 21.9011 20.7458C20.7384 21.9027 19.1661 22.5503 17.5285 22.5467L17.5251 22.5535ZM20.9271 17.9289C20.7425 17.838 19.8233 17.387 19.6522 17.3264C19.4811 17.2658 19.3569 17.2322 19.2328 17.4173C19.1087 17.6024 18.7531 18.0231 18.6423 18.1477C18.5316 18.2722 18.4243 18.2857 18.2397 18.1914C17.6896 17.9766 17.1818 17.6655 16.7401 17.2726C16.3335 16.8974 15.9842 16.4641 15.7034 15.9868C15.5927 15.7984 15.7034 15.7075 15.7839 15.6065C15.9557 15.407 16.1116 15.1943 16.2503 14.9704C16.2797 14.9192 16.2952 14.8612 16.2952 14.8021C16.2952 14.743 16.2797 14.685 16.2503 14.6338C16.2066 14.5395 15.8309 13.6241 15.6766 13.2538C15.5222 12.8836 15.3713 12.9408 15.2572 12.9374C15.1431 12.9341 15.0257 12.9374 14.8982 12.9374C14.804 12.94 14.7113 12.9619 14.6259 13.0018C14.5405 13.0418 14.4642 13.0989 14.4017 13.1697C14.1913 13.3678 14.0247 13.6079 13.9126 13.8746C13.8005 14.1413 13.7454 14.4286 13.7508 14.7179C13.7508 15.6301 14.4218 16.5119 14.5124 16.6364C14.603 16.761 15.8275 18.6357 17.6962 19.4401C18.0433 19.5898 18.3984 19.7201 18.7598 19.8306C19.1403 19.9455 19.5421 19.9709 19.934 19.9046C20.293 19.8508 21.0378 19.457 21.1921 19.0228C21.3157 18.7464 21.3542 18.4394 21.3028 18.1409C21.2558 18.0635 21.1317 18.0164 20.9438 17.9222L20.9271 17.9289Z"/>
</mask>
<path fill-rule="evenodd" clip-rule="evenodd" d="M22.8025 11.1098C21.7605 10.0666 20.4345 9.35551 18.991 9.06572C17.5476 8.77592 16.051 8.92036 14.689 9.48091C13.3271 10.0415 12.1606 10.9931 11.3359 12.2165C10.5113 13.4398 10.0652 14.8803 10.0537 16.3571C10.055 17.659 10.4025 18.9371 11.0602 20.0594L10 23.92L13.9555 22.8867C15.0508 23.481 16.2765 23.7922 17.5218 23.7921C18.499 23.797 19.4676 23.6087 20.3723 23.238C21.2769 22.8673 22.1 22.3215 22.7944 21.6318C23.4888 20.942 24.041 20.1217 24.4194 19.2178C24.7979 18.314 24.9951 17.3442 25 16.3638C25.0031 15.3862 24.8116 14.4179 24.4365 13.5157C24.0614 12.6134 23.5105 11.7955 22.8159 11.1098H22.8025ZM17.5251 22.5535C16.4151 22.5535 15.3252 22.2561 14.3681 21.6918L14.1434 21.5572L11.7949 22.1731L12.4223 19.8945L12.2747 19.6589C11.6537 18.6765 11.3244 17.5371 11.3252 16.3739C11.3345 15.1469 11.7045 13.95 12.3889 12.9331C13.0733 11.9162 14.0416 11.1245 15.1726 10.6573C16.3035 10.1901 17.5467 10.0682 18.7464 10.3067C19.9461 10.5453 21.049 11.1337 21.9168 11.9984C22.4943 12.5699 22.9523 13.2513 23.2639 14.0026C23.5756 14.7539 23.7347 15.5601 23.7318 16.3739C23.722 18.0168 23.0637 19.5888 21.9011 20.7458C20.7384 21.9027 19.1661 22.5503 17.5285 22.5467L17.5251 22.5535ZM20.9271 17.9289C20.7425 17.838 19.8233 17.387 19.6522 17.3264C19.4811 17.2658 19.3569 17.2322 19.2328 17.4173C19.1087 17.6024 18.7531 18.0231 18.6423 18.1477C18.5316 18.2722 18.4243 18.2857 18.2397 18.1914C17.6896 17.9766 17.1818 17.6655 16.7401 17.2726C16.3335 16.8974 15.9842 16.4641 15.7034 15.9868C15.5927 15.7984 15.7034 15.7075 15.7839 15.6065C15.9557 15.407 16.1116 15.1943 16.2503 14.9704C16.2797 14.9192 16.2952 14.8612 16.2952 14.8021C16.2952 14.743 16.2797 14.685 16.2503 14.6338C16.2066 14.5395 15.8309 13.6241 15.6766 13.2538C15.5222 12.8836 15.3713 12.9408 15.2572 12.9374C15.1431 12.9341 15.0257 12.9374 14.8982 12.9374C14.804 12.94 14.7113 12.9619 14.6259 13.0018C14.5405 13.0418 14.4642 13.0989 14.4017 13.1697C14.1913 13.3678 14.0247 13.6079 13.9126 13.8746C13.8005 14.1413 13.7454 14.4286 13.7508 14.7179C13.7508 15.6301 14.4218 16.5119 14.5124 16.6364C14.603 16.761 15.8275 18.6357 17.6962 19.4401C18.0433 19.5898 18.3984 19.7201 18.7598 19.8306C19.1403 19.9455 19.5421 19.9709 19.934 19.9046C20.293 19.8508 21.0378 19.457 21.1921 19.0228C21.3157 18.7464 21.3542 18.4394 21.3028 18.1409C21.2558 18.0635 21.1317 18.0164 20.9438 17.9222L20.9271 17.9289Z" stroke="black" stroke-width="2" mask="url(#path-2-inside-1)"/>
</svg>
