<svg width="400" height="263" viewBox="0 0 400 263" fill="none" xmlns="http://www.w3.org/2000/svg">
<path d="M64.8581 45.5442V110.402H40.1503V64.0751H24.7079V110.402H0V45.5442H64.8581Z" fill="#0A1121"/>
<path d="M112.689 45.5442C119.381 45.5442 124.657 47.7641 128.517 52.2038C132.378 56.6435 134.308 62.1448 134.308 68.7079C134.308 75.2709 132.346 80.7722 128.421 85.2119C124.56 89.6516 119.316 91.8715 112.689 91.8715H98.7907V110.402H74.0829V45.5442H112.689ZM103.423 76.4291C105.225 76.4291 106.705 75.85 107.863 74.6918C109.021 73.5336 109.6 71.7963 109.6 69.48C109.6 67.228 109.021 65.5229 107.863 64.3647C106.705 63.1422 105.225 62.5309 103.423 62.5309H98.7907V76.4291H103.423Z" fill="#0A1121"/>
<path d="M147.112 53.9411C154.061 47.3137 162.426 44 172.206 44C181.986 44 190.351 47.3137 197.3 53.9411C204.249 60.5684 207.724 68.5792 207.724 77.9733C207.724 87.3674 204.249 95.3782 197.3 102.006C190.351 108.633 181.986 111.947 172.206 111.947C162.426 111.947 154.061 108.633 147.112 102.006C140.163 95.3782 136.689 87.3674 136.689 77.9733C136.689 68.5792 140.163 60.5684 147.112 53.9411ZM164.485 87.8178C166.608 90.5203 169.182 91.8715 172.206 91.8715C175.23 91.8715 177.772 90.5203 179.831 87.8178C181.954 85.1154 183.016 81.8339 183.016 77.9733C183.016 74.1127 181.954 70.8312 179.831 68.1288C177.772 65.4263 175.23 64.0751 172.206 64.0751C169.182 64.0751 166.608 65.4263 164.485 68.1288C162.426 70.8312 161.397 74.1127 161.397 77.9733C161.397 81.8339 162.426 85.1154 164.485 87.8178Z" fill="#0A1121"/>
<path d="M250.343 91.8715C255.812 91.8715 260.638 89.2977 264.82 84.1503L270.997 104.225C264.563 109.373 257.163 111.947 248.799 111.947C237.989 111.947 228.949 108.665 221.678 102.102C214.407 95.4747 210.772 87.4318 210.772 77.9733C210.772 68.5148 214.407 60.5041 221.678 53.9411C228.949 47.3137 237.989 44 248.799 44C257.163 44 264.563 46.5737 270.997 51.7212L264.82 71.7963C260.702 66.6489 255.876 64.0751 250.343 64.0751C246.354 64.0751 242.879 65.3942 239.919 68.0323C236.959 70.6703 235.479 73.984 235.479 77.9733C235.479 81.8983 236.927 85.2119 239.823 87.9144C242.718 90.5524 246.225 91.8715 250.343 91.8715Z" fill="#0A1121"/>
<path d="M273.356 45.5442H328.948V64.0751H313.506V110.402H288.798V64.0751H273.356V45.5442Z" fill="#0A1121"/>
<path d="M339.389 53.9411C346.338 47.3137 354.702 44 364.482 44C374.263 44 382.627 47.3137 389.576 53.9411C396.525 60.5684 400 68.5792 400 77.9733C400 87.3674 396.525 95.3782 389.576 102.006C382.627 108.633 374.263 111.947 364.482 111.947C354.702 111.947 346.338 108.633 339.389 102.006C332.439 95.3782 328.965 87.3674 328.965 77.9733C328.965 68.5792 332.439 60.5684 339.389 53.9411ZM356.761 87.8178C358.885 90.5203 361.458 91.8715 364.482 91.8715C367.507 91.8715 370.048 90.5203 372.107 87.8178C374.23 85.1154 375.292 81.8339 375.292 77.9733C375.292 74.1127 374.23 70.8312 372.107 68.1288C370.048 65.4263 367.507 64.0751 364.482 64.0751C361.458 64.0751 358.885 65.4263 356.761 68.1288C354.702 70.8312 353.673 74.1127 353.673 77.9733C353.673 81.8339 354.702 85.1154 356.761 87.8178Z" fill="#0A1121"/>
<path d="M92.2367 160.558C99.1858 153.931 107.55 150.617 117.331 150.617C127.111 150.617 135.475 153.931 142.425 160.558C149.374 167.186 152.848 175.196 152.848 184.59C152.848 193.985 149.374 201.995 142.425 208.623C135.475 215.25 127.111 218.564 117.331 218.564C107.55 218.564 99.1858 215.25 92.2367 208.623C85.2876 201.995 81.813 193.985 81.813 184.59C81.813 175.196 85.2876 167.186 92.2367 160.558ZM109.609 194.435C111.733 197.137 114.306 198.489 117.331 198.489C120.355 198.489 122.896 197.137 124.955 194.435C127.079 191.733 128.14 188.451 128.14 184.59C128.14 180.73 127.079 177.448 124.955 174.746C122.896 172.043 120.355 170.692 117.331 170.692C114.306 170.692 111.733 172.043 109.609 174.746C107.55 177.448 106.521 180.73 106.521 184.59C106.521 188.451 107.55 191.733 109.609 194.435Z" fill="#F2C520"/>
<path d="M223.799 152.161V217.019H199.091V170.692H187.509V191.54C187.509 205.373 181.525 213.931 169.557 217.213C167.434 217.792 164.474 218.113 160.678 218.178C156.882 218.306 153.729 218.178 151.219 217.792V197.716C155.402 198.103 158.426 197.716 160.292 196.558C162.48 195.143 163.573 192.344 163.573 188.161V152.161H223.799Z" fill="#F2C520"/>
<path d="M277.85 170.692H257.775V176.869H273.218V192.312H257.775V198.489H277.85V217.019H233.067V152.161H277.85V170.692Z" fill="#F2C520"/>
<path d="M310.274 170.692V217.019H285.566V152.161H330.349V170.692H310.274Z" fill="#F2C520"/>
</svg>
