<?xml version="1.0" standalone="no"?>
<!DOCTYPE svg PUBLIC "-//W3C//DTD SVG 1.1//EN" "http://www.w3.org/Graphics/SVG/1.1/DTD/svg11.dtd" >
<svg xmlns="http://www.w3.org/2000/svg">
<metadata></metadata>
<defs>
<font id="genomethin" horiz-adv-x="1138" >
<font-face units-per-em="2048" ascent="1516" descent="-532" />
<missing-glyph horiz-adv-x="552" />
<glyph horiz-adv-x="0" />
<glyph horiz-adv-x="682" />
<glyph unicode=" "  horiz-adv-x="552" />
<glyph unicode="&#x09;" horiz-adv-x="552" />
<glyph unicode="&#xa0;" horiz-adv-x="552" />
<glyph unicode="!" horiz-adv-x="389" d="M174 0v203h41v-203h-41zM174 420v1096h41v-1096h-41z" />
<glyph unicode="&#x22;" horiz-adv-x="593" d="M174 1008v405h41v-405h-41zM379 1008v405h41v-405h-41z" />
<glyph unicode="#" horiz-adv-x="1646" d="M61 424l15 41h379l182 508h-379l14 41h379l142 399h45l-144 -399h471l142 399h45l-144 -399h377l-14 -41h-377l-182 -508h377l-15 -41h-377l-151 -424h-43l151 424h-471l-151 -424h-43l151 424h-379zM498 465h471l182 508h-471z" />
<glyph unicode="$" horiz-adv-x="1212" d="M102 340l39 12q100 -313 445 -329v677q-46 11 -77.5 19.5t-73 21.5t-69.5 27.5t-60 34t-52.5 43.5t-38.5 54t-26.5 68t-8.5 83q0 171 116.5 274t289.5 109v143h41v-143q161 -5 276.5 -88.5t161.5 -239.5l-41 -12q-40 143 -144.5 218.5t-252.5 80.5v-660q183 -41 257 -74 q162 -70 196 -209q10 -42 10 -90q0 -100 -37 -175t-102.5 -119t-146.5 -65t-177 -21v-144h-41v146q-182 8 -306 96.5t-178 261.5zM221 1051q0 -61 20.5 -108.5t51.5 -78t82.5 -55t97.5 -38t113 -28.5v650q-156 -6 -260.5 -97t-104.5 -245zM627 20q69 0 129 10.5t114.5 36 t93.5 64t62 97t23 132.5q0 39 -8 72.5t-20 59.5t-34.5 49t-42.5 39t-54 32t-58.5 25.5t-66 21t-67.5 17.5t-71 16v-672z" />
<glyph unicode="%" horiz-adv-x="1265" d="M113 1176q0 106 55.5 182t165.5 76q109 0 165 -76t56 -182q0 -107 -56 -182.5t-165 -75.5q-75 0 -126.5 38.5t-73 95t-21.5 124.5zM154 1176q0 -93 45.5 -156.5t134.5 -63.5t134.5 63.5t45.5 156.5t-45 156t-135 63t-135 -63t-45 -156zM354 0l514 1413h43l-514 -1413h-43 zM711 258q0 107 56 182.5t165 75.5q75 0 126.5 -38.5t73 -95t21.5 -124.5q0 -106 -55.5 -182t-165.5 -76q-109 0 -165 76t-56 182zM752 258q0 -93 45 -156t135 -63t135 63t45 156t-45 156t-135 63t-135 -63t-45 -156z" />
<glyph unicode="&#x26;" horiz-adv-x="1271" d="M102 303q0 34 10 68t22.5 62t39.5 61t45.5 54.5t57 53.5t56.5 46.5t63 45t56.5 38.5t55.5 36q-13 16 -47 55.5t-52 61t-45 60t-41 67.5t-25 67.5t-11 75.5q0 129 93.5 204t225.5 75q122 0 206.5 -79.5t84.5 -199.5q0 -30 -5.5 -58.5t-13.5 -51.5t-24 -47.5t-28.5 -42 t-36.5 -39.5t-39 -35t-44.5 -33.5t-44.5 -30t-47 -30.5t-45 -29q72 -87 207.5 -245.5t186.5 -219.5q99 163 120 401l41 -4q-20 -253 -133 -430l230 -266l-31 -29q-133 158 -223 260q-86 -117 -208 -181t-265 -64q-95 0 -170.5 24t-133.5 83.5t-79 150.5q-9 30 -9 65z M143 303q0 -25 7 -57q57 -226 344 -226q136 0 251.5 62.5t194.5 175.5q-313 366 -405 477q-163 -104 -234 -166q-158 -138 -158 -266zM328 1155q0 -39 12 -77.5t42 -84t46.5 -67.5t62.5 -75t52 -60q14 9 51.5 33t55 35.5t51 36t50.5 41.5t40.5 44t35.5 51.5t20.5 56.5 t8.5 66q0 103 -73 170.5t-177 67.5q-115 0 -196.5 -62.5t-81.5 -175.5z" />
<glyph unicode="'" horiz-adv-x="389" d="M174 1008v405h41v-405h-41z" />
<glyph unicode="(" horiz-adv-x="575" d="M174 621q0 375 107 630q112 265 274 265v-41q-63 0 -125 -62q-63 -60 -111 -178q-104 -245 -104 -655q0 -94 10.5 -197.5t33 -219.5t67 -217.5t104.5 -158.5q61 -61 125 -61v-41q-162 0 -274 264q-107 254 -107 672z" />
<glyph unicode=")" horiz-adv-x="575" d="M20 -274q64 0 125 61q60 57 104.5 158.5t67 217.5t33 219.5t10.5 197.5q0 410 -104 655q-48 118 -111 178q-62 62 -125 62v41q40 0 77.5 -17.5t66 -43.5t54.5 -63t43.5 -70.5t33.5 -70.5q106 -253 106 -630q0 -420 -106 -672q-112 -264 -275 -264v41z" />
<glyph unicode="*" horiz-adv-x="751" d="M45 1147l23 70l299 -107l-27 303h72l-27 -303l299 107l23 -70l-316 -55l211 -265l-57 -43l-168 295l-168 -295l-59 43l210 265z" />
<glyph unicode="+" horiz-adv-x="768" d="M41 477v41h324v322h41v-322h321v-41h-321v-323h-41v323h-324z" />
<glyph unicode="," horiz-adv-x="430" d="M123 -129q24 -1 40.5 7.5t24.5 18t12 31.5t4.5 33.5t0.5 38.5v203h41v-203q0 -38 -4 -65t-16 -52t-38 -38t-65 -13v39z" />
<glyph unicode="-" horiz-adv-x="706" d="M41 477v41h625v-41h-625z" />
<glyph unicode="." horiz-adv-x="389" d="M174 0v203h41v-203h-41z" />
<glyph unicode="/" horiz-adv-x="567" d="M-61 -260l651 1790l39 -14l-652 -1790z" />
<glyph unicode="0" horiz-adv-x="1286" d="M143 707q0 69 7.5 138t25 142t43.5 137t66.5 121.5t90.5 99t118.5 65.5t148.5 24t148.5 -24t118.5 -65.5t90.5 -99t66.5 -121.5t43.5 -137t25 -142t7.5 -138t-7.5 -138t-25 -142t-43.5 -137t-66.5 -121.5t-90.5 -99t-118.5 -65.5t-148.5 -24t-148.5 24t-118.5 65.5 t-90.5 99t-66.5 121.5t-43.5 137t-25 142t-7.5 138zM184 707q0 -92 13 -182t46.5 -183t83.5 -163t132 -114.5t184 -44.5t184 44.5t132 114.5t83.5 163t46.5 183t13 182t-13 182t-46.5 183t-83.5 162.5t-132 114t-184 44.5t-184 -44.5t-132 -114t-83.5 -162.5t-46.5 -183 t-13 -182z" />
<glyph unicode="1" horiz-adv-x="786" d="M82 1075l407 338h52v-1413h-41v1370l-391 -328z" />
<glyph unicode="2" horiz-adv-x="1140" d="M113 0q15 89 52.5 167.5t88.5 138t112.5 113.5t126 100.5t127.5 92.5t119 95t98.5 102t67.5 121t25 145q0 142 -96 230t-238 88q-180 0 -282 -119t-115 -303l-41 4q9 130 60 232t148.5 164.5t229.5 62.5q160 0 267.5 -100t107.5 -259q0 -79 -24 -149t-66 -125.5 t-96 -106.5t-116.5 -97t-125.5 -91.5t-124 -96t-112 -103.5t-89.5 -121.5t-55.5 -143.5h866v-41h-915z" />
<glyph unicode="3" horiz-adv-x="1200" d="M133 379h41q0 -89 34 -159t93 -113t134 -65t161 -22t160.5 22t133 65t92.5 113t34 159q0 88 -33.5 157.5t-91 112.5t-131.5 65.5t-158 22.5h-29v41h29q146 0 240 81t94 226q0 148 -95.5 228t-244.5 80q-151 0 -246.5 -80t-95.5 -228h-41q0 165 107.5 257t275.5 92 q166 0 273.5 -92t107.5 -257q0 -117 -59 -203t-168 -122q143 -34 225 -134.5t82 -246.5q0 -98 -37 -175.5t-101.5 -125.5t-146.5 -73t-176 -25q-95 0 -177.5 25t-147 73t-101.5 125.5t-37 175.5z" />
<glyph unicode="4" d="M20 385l781 1092v-1051h266v-41h-266v-385h-41v385h-740zM100 426h660v924z" />
<glyph unicode="5" horiz-adv-x="1148" d="M102 342l41 10q29 -145 143.5 -238.5t262.5 -93.5q172 0 294 122t122 294t-122 294t-294 122q-102 0 -192 -47t-148 -131l-51 22l125 717h665v-41h-631l-110 -635q65 74 154.5 115t187.5 41q189 0 323 -134t134 -323t-134 -322.5t-323 -133.5q-162 0 -288.5 102 t-158.5 260z" />
<glyph unicode="6" horiz-adv-x="1193" d="M143 612q0 71 5.5 142.5t21 154.5t38.5 156t62 142t88 118t119.5 79t153.5 30q108 0 196.5 -33t153 -105.5t88.5 -177.5l-41 -8q-31 142 -138 212.5t-259 70.5q-77 0 -142 -29t-110 -76.5t-80.5 -114t-56.5 -136t-34.5 -148t-18.5 -145.5t-5 -132v-26q48 137 164 222 t266 85q189 0 323 -134t134 -323t-134 -322.5t-323 -133.5q-106 0 -189 35.5t-136 99.5t-84.5 142t-46.5 173l-2 8q-13 93 -13 174zM197 440q14 -89 42.5 -161t77 -132t124 -93.5t173.5 -33.5q172 0 294 122t122 294t-122 294t-294 122t-290 -119.5t-127 -292.5z" />
<glyph unicode="7" horiz-adv-x="1048" d="M82 1372v41h926l-715 -1421l-37 18l686 1362h-860z" />
<glyph unicode="8" horiz-adv-x="1169" d="M123 379q0 153 84.5 250t224.5 131q-105 35 -167 118.5t-62 206.5q0 165 107.5 257t275.5 92q166 0 273.5 -92t107.5 -257q0 -124 -62 -207t-168 -118q140 -34 225 -131t85 -250q0 -98 -37 -175.5t-101.5 -125.5t-146.5 -73t-176 -25q-95 0 -177.5 25t-147 73 t-101.5 125.5t-37 175.5zM164 379q0 -89 34 -159t93 -113t134 -65t161 -22t160.5 22t133 65t92.5 113t34 159t-34 159t-93 112.5t-133 64.5t-160 22t-161 -22t-134 -64.5t-93 -112.5t-34 -159zM244 1085q0 -148 95.5 -227.5t246.5 -79.5q149 0 244.5 79.5t95.5 227.5 t-95.5 228t-244.5 80q-151 0 -246.5 -80t-95.5 -228z" />
<glyph unicode="9" horiz-adv-x="1193" d="M123 977q0 189 134 323t323 134q106 0 189.5 -36.5t135.5 -96t85.5 -143t47 -170.5t13.5 -185q0 -73 -5.5 -145t-20 -155.5t-37.5 -156t-61 -141.5t-87.5 -117.5t-120.5 -78t-156 -29.5q-165 0 -280.5 79.5t-157.5 233.5l41 12q37 -142 142 -213.5t255 -71.5q77 0 142 27 t110.5 71.5t80.5 107.5t56.5 129.5t35 142.5t18 142t4.5 132v55q-50 -139 -166.5 -223t-263.5 -84q-189 0 -323 134t-134 323zM164 977q0 -172 122 -294t294 -122q167 0 290 120t123 286q0 21 -8 63.5t-16 65.5q-43 142 -142.5 219.5t-246.5 77.5q-171 0 -293.5 -122.5 t-122.5 -293.5z" />
<glyph unicode=":" horiz-adv-x="389" d="M174 0v203h41v-203h-41zM174 588v203h41v-203h-41z" />
<glyph unicode=";" horiz-adv-x="389" d="M92 -129q24 -1 40.5 7.5t24.5 18t12 31.5t4.5 33.5t0.5 38.5v203h41v-203q0 -38 -4 -65t-16 -52t-38 -38t-65 -13v39zM174 588v203h41v-203h-41z" />
<glyph unicode="&#x3c;" horiz-adv-x="1269" d="M102 465v59l1065 465v-43l-1040 -450l1040 -453v-43z" />
<glyph unicode="=" horiz-adv-x="686" d="M41 334v41h604v-41h-604zM41 621v41h604v-41h-604z" />
<glyph unicode="&#x3e;" horiz-adv-x="1290" d="M113 0v43l1040 453l-1040 450v43l1065 -465v-59z" />
<glyph unicode="?" horiz-adv-x="856" d="M31 1085q0 164 108 256.5t275 92.5q166 0 273.5 -92t107.5 -257q0 -122 -62 -205t-178 -122q-56 -21 -89.5 -64t-33.5 -100v-174h-41v174q0 71 42.5 125t111.5 78q209 70 209 288q0 147 -95.5 227.5t-244.5 80.5q-151 0 -246.5 -80.5t-95.5 -227.5h-41zM391 0v203h41 v-203h-41z" />
<glyph unicode="@" horiz-adv-x="2025" d="M123 545q0 180 70.5 344.5t190 284t284 190t344.5 70.5t345 -70.5t284.5 -190t190.5 -284t71 -344.5q0 -100 -25.5 -198.5t-75.5 -184.5t-135 -139.5t-192 -53.5q-98 0 -161 59t-63 156q0 51 19 133q-62 -103 -158.5 -163t-212.5 -60q-148 0 -225.5 91.5t-77.5 242.5 q0 103 32 205.5t90 188t150 139t201 53.5q114 0 192 -60.5t101 -171.5l41 215l41 -8l-146 -747q-6 -27 -6 -58q0 -80 51 -127t132 -47q79 0 145 33.5t110 88t74.5 125.5t44 143.5t13.5 144.5q0 172 -67.5 329t-181.5 270.5t-271.5 181t-329.5 67.5t-329 -67.5t-270.5 -181 t-181 -270.5t-67.5 -329t67.5 -329.5t181 -271.5t270.5 -181.5t329 -67.5q234 0 442 125l21 -35q-214 -131 -463 -131q-180 0 -344.5 71t-284 190.5t-190 284.5t-70.5 345zM637 426q0 -133 65.5 -212t196.5 -79q84 0 156 32t121.5 86t84.5 124.5t51.5 147.5t16.5 155 q0 136 -64 214.5t-196 78.5q-81 0 -152.5 -33t-121.5 -88t-86.5 -126t-54 -148t-17.5 -152z" />
<glyph unicode="A" horiz-adv-x="1220" d="M61 0l527 1413h43l528 -1413h-45l-168 451h-674l-168 -451h-43zM289 492h643l-322 862z" />
<glyph unicode="B" horiz-adv-x="1306" d="M195 0v1413h505q111 0 205 -41t154.5 -125t60.5 -196q0 -114 -65 -204t-172 -130q136 -27 223.5 -122t87.5 -230q0 -113 -60.5 -198t-154.5 -126t-205 -41h-579zM236 41h538q100 0 184.5 35.5t139.5 111t55 177.5q0 101 -55 176t-139.5 110t-184.5 35h-538v-645zM236 727 h464q100 0 184.5 35.5t139.5 111t55 177.5q0 101 -55 176t-139.5 110t-184.5 35h-464v-645z" />
<glyph unicode="C" horiz-adv-x="1402" d="M123 707q0 118 24 224.5t74 198.5t122.5 159.5t175.5 106t226 38.5q193 0 337.5 -94.5t217.5 -270.5l-36 -16q-69 165 -203.5 252.5t-315.5 87.5q-145 0 -258.5 -55.5t-182.5 -151.5t-104.5 -217.5t-35.5 -261.5q0 -111 21.5 -211.5t68 -188t114 -151t164 -100 t213.5 -36.5q181 0 315.5 87.5t203.5 252.5l36 -14q-73 -177 -217.5 -271.5t-337.5 -94.5q-123 0 -226 38.5t-175.5 106t-122.5 159.5t-74 198.5t-24 224.5z" />
<glyph unicode="D" horiz-adv-x="1355" d="M195 0v1413h323q347 0 526 -179.5t179 -526.5t-179 -527t-526 -180h-323zM236 41h282q330 0 497 168t167 498t-167 497.5t-497 167.5h-282v-1331z" />
<glyph unicode="E" horiz-adv-x="1181" d="M195 0v1413h854v-41h-813v-645h716v-41h-716v-645h813v-41h-854z" />
<glyph unicode="F" horiz-adv-x="1130" d="M195 0v1413h854v-41h-813v-645h716v-41h-716v-686h-41z" />
<glyph unicode="G" horiz-adv-x="1421" d="M123 707q0 114 21.5 218.5t68 197.5t114.5 162t167.5 109t220.5 40q201 0 336 -95t190 -262l-39 -16q-51 162 -175 247t-312 85q-114 0 -207 -38.5t-156 -103.5t-106 -153.5t-62.5 -186t-19.5 -204.5q0 -160 38 -285t114.5 -215.5t198.5 -138.5t284 -48q244 0 407 66v520 h-461v41h502v-586q-161 -81 -448 -81q-171 0 -300.5 51t-211.5 147t-123 228.5t-41 300.5z" />
<glyph unicode="H" horiz-adv-x="1314" d="M195 0v1413h41v-686h843v686h41v-1413h-41v686h-843v-686h-41z" />
<glyph unicode="I" horiz-adv-x="430" d="M195 0v1413h41v-1413h-41z" />
<glyph unicode="J" horiz-adv-x="1146" d="M72 371l41 6q22 -172 125 -264.5t276 -92.5q203 0 305.5 121t102.5 328v944h41v-944q0 -223 -115 -356t-334 -133q-188 0 -302.5 102t-139.5 289z" />
<glyph unicode="K" horiz-adv-x="1320" d="M195 0v1413h41v-981l929 981h56l-562 -592l580 -821h-49l-559 791l-395 -418v-373h-41z" />
<glyph unicode="L" horiz-adv-x="1120" d="M195 0v1413h41v-1372h813v-41h-854z" />
<glyph unicode="M" horiz-adv-x="1710" d="M195 0v1413h43l618 -1364l617 1364h43v-1413h-41v1319l-598 -1319h-43l-598 1319v-1319h-41z" />
<glyph unicode="N" horiz-adv-x="1335" d="M195 0v1413h45l860 -1343v1343h41v-1413h-45l-860 1343v-1343h-41z" />
<glyph unicode="O" horiz-adv-x="1490" d="M123 707q0 118 24 224.5t74 198.5t122.5 159.5t175.5 106t226 38.5q124 0 227 -38.5t175.5 -106t123 -159.5t74 -198.5t23.5 -224.5t-23.5 -224.5t-74 -198.5t-123 -159.5t-175.5 -106t-227 -38.5q-123 0 -226 38.5t-175.5 106t-122.5 159.5t-74 198.5t-24 224.5z M164 707q0 -111 21.5 -211.5t68 -188t114 -151t164 -100t213.5 -36.5t213.5 36.5t164 100t114 151t68.5 188t22 211.5q0 140 -35.5 261.5t-105 217.5t-183 151.5t-258.5 55.5t-258.5 -55.5t-182.5 -151.5t-104.5 -217.5t-35.5 -261.5z" />
<glyph unicode="P" horiz-adv-x="1202" d="M195 0v1413h505q111 0 205 -40t154.5 -124.5t60.5 -197.5q0 -114 -60.5 -199t-154.5 -125.5t-205 -40.5h-464v-686h-41zM236 727h464q100 0 184.5 35.5t139.5 111t55 177.5q0 101 -55 176t-139.5 110t-184.5 35h-464v-645z" />
<glyph unicode="Q" horiz-adv-x="1490" d="M123 707q0 118 24 224.5t74 198.5t122.5 159.5t175.5 106t226 38.5q124 0 227 -38.5t175.5 -106t123 -159.5t74 -198.5t23.5 -224.5q0 -188 -64 -354t-200 -265l180 -201l-31 -28l-184 207q-135 -86 -324 -86q-123 0 -226 38.5t-175.5 106t-122.5 159.5t-74 198.5 t-24 224.5zM164 707q0 -111 21.5 -211.5t68 -188t114 -151t164 -100t213.5 -36.5q168 0 297 76l-231 260l31 27l235 -264q129 93 189.5 251t60.5 337q0 140 -35.5 261.5t-105 217.5t-183 151.5t-258.5 55.5t-258.5 -55.5t-182.5 -151.5t-104.5 -217.5t-35.5 -261.5z" />
<glyph unicode="R" horiz-adv-x="1257" d="M195 0v1413h505q111 0 205 -40t154.5 -124.5t60.5 -197.5q0 -154 -103.5 -249.5t-258.5 -111.5l401 -690h-47l-399 686h-477v-686h-41zM236 727h464q99 0 183.5 35.5t140 111t55.5 177.5q0 101 -55 176t-139.5 110t-184.5 35h-464v-645z" />
<glyph unicode="S" horiz-adv-x="1212" d="M102 340l39 12q106 -332 484 -332q69 0 129.5 10.5t115.5 36t94 64t62 97t23 132.5q0 69 -24.5 122.5t-66 85.5t-97 57.5t-118 39.5t-129 30.5t-129 31.5t-118 42t-97 61.5t-66 91t-24.5 129.5q0 175 123.5 279t302.5 104q169 0 289.5 -84t169.5 -244l-41 -12 q-42 147 -152 223t-266 76q-163 0 -274 -92t-111 -250q0 -37 7.5 -69t20 -57t34 -47t42.5 -37.5t52 -30.5t57.5 -25t65 -20.5t67 -17t70.5 -16.5q49 -11 74.5 -17t71.5 -19t71 -23t62.5 -28t58.5 -35.5t46.5 -44t38 -55.5t21.5 -67t9 -82q0 -101 -37.5 -176.5t-103.5 -119 t-147 -64t-177 -20.5q-196 0 -331 88.5t-192 271.5z" />
<glyph unicode="T" horiz-adv-x="1191" d="M61 1372v41h1069v-41h-514v-1372h-41v1372h-514z" />
<glyph unicode="U" horiz-adv-x="1441" d="M184 567v846h41v-846q0 -252 125 -399.5t371 -147.5t371 147.5t125 399.5v846h40v-846q0 -130 -33.5 -237t-98.5 -185.5t-168 -121.5t-236 -43t-236 43t-168.5 121.5t-99 185.5t-33.5 237z" />
<glyph unicode="V" horiz-adv-x="1234" d="M61 1413h43l514 -1374l512 1374h44l-527 -1413h-59z" />
<glyph unicode="W" horiz-adv-x="1935" d="M61 1413h43l381 -1364l461 1364h43l461 -1364l381 1364h43l-395 -1413h-56l-454 1350l-457 -1350h-55z" />
<glyph unicode="X" horiz-adv-x="1091" d="M61 0l461 707l-461 706h50l434 -670l436 670h49l-461 -706l461 -707h-49l-436 670l-434 -670h-50z" />
<glyph unicode="Y" horiz-adv-x="1241" d="M61 1413h50l510 -821l509 821h50l-539 -866v-567h-41v567z" />
<glyph unicode="Z" horiz-adv-x="1269" d="M106 0v59l1000 1313h-959v41h1000v-55l-1004 -1317h1004v-41h-1041z" />
<glyph unicode="[" horiz-adv-x="540" d="M205 -315v1831h284v-41h-243v-1749h243v-41h-284z" />
<glyph unicode="\" horiz-adv-x="567" d="M-61 1516l38 14l652 -1790l-39 -14z" />
<glyph unicode="]" horiz-adv-x="540" d="M51 -274h244v1749h-244v41h285v-1831h-285v41z" />
<glyph unicode="^" horiz-adv-x="610" d="M61 809l220 604h47l221 -604h-47l-197 561l-196 -561h-48z" />
<glyph unicode="_" horiz-adv-x="768" d="M41 0h686v-41h-686v41z" />
<glyph unicode="`" horiz-adv-x="0" d="M-229 1384l28 29l230 -229l-29 -31z" />
<glyph unicode="a" horiz-adv-x="1044" d="M113 246q0 71 24.5 128t65 93.5t97 61t116 34.5t125.5 10h288v105q0 132 -85.5 213.5t-217.5 81.5q-123 0 -198.5 -49.5t-118.5 -153.5l-37 16q48 116 133.5 172t220.5 56q149 0 246.5 -93.5t97.5 -242.5v-678h-41v291q-42 -145 -156 -228t-261 -83q-132 0 -215.5 68.5 t-83.5 197.5zM154 246q0 -112 71.5 -169t186.5 -57q171 0 294 129.5t123 301.5v81h-288q-75 0 -140 -14t-122.5 -45.5t-91 -89.5t-33.5 -137z" />
<glyph unicode="b" d="M184 0v1516h41v-773q48 128 147 199.5t234 71.5q106 0 188.5 -43.5t132 -117t74.5 -164t25 -191.5q0 -102 -25 -192.5t-74 -164.5t-131.5 -117.5t-189.5 -43.5q-135 0 -234 71.5t-147 198.5v-250h-41zM225 498q0 -93 22 -176.5t66 -152t119.5 -109t173.5 -40.5 q79 0 143 27t107.5 72t73 107t42.5 130t13 142q0 73 -13 140.5t-42.5 129t-73 107t-108 72t-142.5 26.5q-79 0 -143.5 -26.5t-108 -72t-73.5 -107t-43 -129t-13 -140.5z" />
<glyph unicode="c" horiz-adv-x="987" d="M113 498q0 101 25 191.5t74.5 164t132.5 117t190 43.5q128 0 222.5 -64.5t145.5 -183.5l-37 -16q-46 107 -130.5 165t-200.5 58q-79 0 -143.5 -26.5t-108 -72t-73.5 -107t-43 -129t-13 -140.5q0 -93 22 -176.5t66 -152t119.5 -109t173.5 -40.5q115 0 200 58.5t131 165.5 l39 -15q-51 -119 -146.5 -184t-223.5 -65q-107 0 -190 43.5t-132.5 117t-74.5 164.5t-25 193z" />
<glyph unicode="d" d="M113 498q0 80 15 154t48 140.5t81.5 115.5t120 77.5t157.5 28.5q135 0 232.5 -72t145.5 -201v775h41v-1516h-41v252q-48 -129 -145.5 -200.5t-232.5 -71.5q-107 0 -190.5 43.5t-132.5 117.5t-74 164.5t-25 192.5zM154 498q0 -93 22 -176.5t66 -152t119.5 -109 t173.5 -40.5q97 0 172 40.5t119 109t65.5 152t21.5 176.5q0 73 -13 140.5t-42.5 129t-72.5 107t-107.5 72t-142.5 26.5q-79 0 -143.5 -26.5t-108 -72t-73.5 -107t-43 -129t-13 -140.5z" />
<glyph unicode="e" horiz-adv-x="1046" d="M113 498q0 80 15 154t48 140.5t81.5 115.5t120 77.5t157.5 28.5q106 0 188.5 -43.5t131.5 -117t74 -164t25 -191.5v-15h-800q2 -72 16.5 -138t44.5 -125.5t73 -103.5t106.5 -70t140.5 -26q116 0 200.5 58.5t130.5 167.5l39 -17q-51 -119 -146.5 -184t-223.5 -65 q-107 0 -190.5 43.5t-132.5 117.5t-74 164.5t-25 192.5zM154 518h759q-2 71 -16.5 136t-44.5 123.5t-73 101.5t-105.5 68.5t-138.5 25.5q-95 0 -169 -38t-118.5 -103t-68 -144.5t-25.5 -169.5z" />
<glyph unicode="f" horiz-adv-x="712" d="M61 952v41h238v279q0 244 211 244q62 0 141 -21l-8 -41q-79 21 -133 21q-94 0 -132 -52t-38 -151v-279h299v-41h-299v-952h-41v952h-238z" />
<glyph unicode="g" d="M113 498q0 80 15 154t48 140.5t81.5 115.5t120 77.5t157.5 28.5q135 0 232.5 -72t145.5 -201v252h41v-993q0 -180 -120.5 -307t-298.5 -127q-298 0 -404 252l39 16q92 -227 365 -227q161 0 269.5 115.5t108.5 277.5v252q-48 -129 -145.5 -200.5t-232.5 -71.5 q-107 0 -190.5 43.5t-132.5 117.5t-74 164.5t-25 192.5zM154 498q0 -93 22 -176.5t66 -152t119.5 -109t173.5 -40.5q97 0 172 40.5t119 109t65.5 152t21.5 176.5q0 73 -13 140.5t-42.5 129t-72.5 107t-107.5 72t-142.5 26.5q-79 0 -143.5 -26.5t-108 -72t-73.5 -107 t-43 -129t-13 -140.5z" />
<glyph unicode="h" d="M184 0v1516h41v-783q54 129 159.5 205t240.5 76q91 0 158.5 -32.5t106.5 -91.5t57 -131t18 -159v-600h-41v600q0 62 -9 115.5t-30.5 101.5t-55 82t-85.5 54t-119 20q-149 0 -248.5 -92t-138.5 -242q-1 -5 -5 -18.5t-6 -24t-2 -18.5v-578h-41z" />
<glyph unicode="i" horiz-adv-x="389" d="M174 0v993h41v-993h-41zM174 1210v203h41v-203h-41z" />
<glyph unicode="j" horiz-adv-x="464" d="M-61 -420l10 41q72 -20 133 -20q94 0 131 51.5t37 150.5v1190h41v-1190q0 -243 -209 -243q-65 0 -143 20zM250 1210v203h41v-203h-41z" />
<glyph unicode="k" horiz-adv-x="946" d="M184 0v1516h41v-1180l578 657h55l-366 -415l413 -578h-51l-391 545l-238 -271v-274h-41z" />
<glyph unicode="l" horiz-adv-x="409" d="M184 0v1516h41v-1516h-41z" />
<glyph unicode="m" horiz-adv-x="1794" d="M184 0v993h41v-256q44 116 146.5 196.5t230.5 80.5q134 0 212 -79t101 -216q36 128 141.5 211.5t241.5 83.5q71 0 127.5 -23t92.5 -61.5t59.5 -93t33 -112.5t9.5 -124v-600h-41v600q0 59 -8 110.5t-27.5 101t-50.5 84t-81 56t-114 21.5q-98 0 -185.5 -57t-138 -146.5 t-50.5 -183.5v-586h-41v592q0 60 -7.5 112t-27 103t-50 86.5t-81 57.5t-115.5 22q-97 0 -185 -57.5t-140 -149t-52 -188.5v-578h-41z" />
<glyph unicode="n" d="M184 0v993h41v-260q54 129 159.5 205t240.5 76q91 0 158.5 -32.5t106.5 -91.5t57 -131t18 -159v-600h-41v600q0 62 -9 115.5t-30.5 101.5t-55 82t-85.5 54t-119 20q-149 0 -248.5 -92t-138.5 -242q-1 -5 -5 -18.5t-6 -24t-2 -18.5v-578h-41z" />
<glyph unicode="o" horiz-adv-x="1067" d="M113 498q0 80 15 154t48 140.5t81.5 115.5t120 77.5t157.5 28.5t156.5 -28.5t118.5 -77.5t81 -115.5t48 -140.5t15 -154q0 -102 -24.5 -192.5t-73.5 -164.5t-131.5 -117.5t-189.5 -43.5t-190.5 43.5t-132.5 117.5t-74 164.5t-25 192.5zM154 498q0 -93 22 -176.5t66 -152 t119.5 -109t173.5 -40.5q97 0 172 40.5t119 109t65.5 152t21.5 176.5q0 73 -13 140.5t-42.5 129t-72.5 107t-107.5 72t-142.5 26.5q-79 0 -143.5 -26.5t-108 -72t-73.5 -107t-43 -129t-13 -140.5z" />
<glyph unicode="p" d="M184 -442v940v495h41v-250q51 129 148.5 200t232.5 71q86 0 156.5 -28.5t119 -77.5t81.5 -115.5t48 -140.5t15 -154q0 -102 -25 -192.5t-74 -164.5t-131.5 -117.5t-189.5 -43.5q-136 0 -233.5 71t-147.5 199v-692h-41zM225 498q0 -93 22 -176.5t66 -152t119.5 -109 t173.5 -40.5q79 0 143 27t107.5 72t73 107t42.5 130t13 142q0 73 -13 140.5t-42.5 129t-73 107t-108 72t-142.5 26.5q-79 0 -143.5 -26.5t-108 -72t-73.5 -107t-43 -129t-13 -140.5z" />
<glyph unicode="q" d="M113 498q0 80 15 154t48 140.5t81.5 115.5t120 77.5t157.5 28.5q135 0 232.5 -72t145.5 -201v252h41v-1435h-41v694q-48 -129 -145.5 -200.5t-232.5 -71.5q-107 0 -190.5 43.5t-132.5 117.5t-74 164.5t-25 192.5zM154 498q0 -93 22 -176.5t66 -152t119.5 -109 t173.5 -40.5q97 0 172 40.5t119 109t65.5 152t21.5 176.5q0 73 -13 140.5t-42.5 129t-72.5 107t-107.5 72t-142.5 26.5q-79 0 -143.5 -26.5t-108 -72t-73.5 -107t-43 -129t-13 -140.5z" />
<glyph unicode="r" horiz-adv-x="782" d="M184 0v993h41v-262q54 132 157.5 207.5t242.5 75.5q61 0 116 -17l-12 -39q-52 15 -104 15q-134 0 -229.5 -76.5t-141.5 -208.5q-29 -75 -29 -110q-1 0 -1 -289l1 -289h-41z" />
<glyph unicode="s" horiz-adv-x="882" d="M82 223l37 17q50 -116 128 -168t202 -52q62 0 112 12t91 38t64 72t23 110q0 53 -21 92t-56 61.5t-81 39t-96.5 27.5t-101 22.5t-96.5 29.5t-81 43.5t-56 68.5t-21 101q0 126 88.5 201.5t216.5 75.5q126 0 210 -56t134 -172l-37 -14q-46 102 -120 151.5t-187 49.5 q-110 0 -187 -63.5t-77 -172.5q0 -51 21 -87.5t56 -58.5t81 -37t96.5 -26.5l101 -23t96.5 -30.5t81 -46t56 -71.5t21 -104.5q0 -73 -26 -127t-72.5 -85t-104.5 -45.5t-128 -14.5q-137 0 -225.5 59t-141.5 184z" />
<glyph unicode="t" horiz-adv-x="712" d="M41 952v41h238v277h40v-277h299v-41h-299v-729q0 -99 38 -151t132 -52q55 0 134 21l8 -41q-75 -20 -144 -20q-208 0 -208 243v729h-238z" />
<glyph unicode="u" d="M174 393v600h41v-600q0 -62 9 -115.5t30.5 -101.5t55 -82t85.5 -54t119 -20q149 0 248.5 92t138.5 242q12 54 12 62v577h41v-993h-41v260q-54 -129 -159 -204.5t-240 -75.5q-91 0 -158.5 32.5t-106.5 91t-57 130.5t-18 159z" />
<glyph unicode="v" horiz-adv-x="880" d="M41 993h43l356 -954l357 954h43l-369 -993h-59z" />
<glyph unicode="w" horiz-adv-x="1413" d="M51 993h43l264 -944l318 944h59l320 -944l264 944h43l-279 -993h-55l-321 952l-322 -952h-55z" />
<glyph unicode="x" horiz-adv-x="798" d="M51 0l324 498l-324 495h49l299 -458l299 458h47l-321 -495l324 -498h-50l-299 459l-299 -459h-49z" />
<glyph unicode="y" horiz-adv-x="880" d="M41 993h43l356 -956l357 956h43l-531 -1429h-45l156 416z" />
<glyph unicode="z" horiz-adv-x="1007" d="M92 0l742 952h-689v41h770l-739 -952h717v-41h-801z" />
<glyph unicode="{" horiz-adv-x="520" d="M102 582v36q60 34 95.5 95.5t35.5 132.5q0 17 -4 45l-47 268q-6 24 -6 53q0 126 89 215t214 89v-41q-107 0 -184.5 -77.5t-77.5 -185.5q0 -15 4 -47l49 -266q4 -36 4 -53q0 -72 -33 -137.5t-91 -108.5q58 -43 91 -108.5t33 -137.5q0 -17 -4 -53l-49 -266q-4 -32 -4 -47 q0 -108 77 -185t185 -77v-41q-125 0 -214 88.5t-89 214.5q0 26 6 53l47 266q4 32 4 47q0 70 -35.5 131.5t-95.5 96.5z" />
<glyph unicode="|" horiz-adv-x="409" d="M184 -389v1905h41v-1905h-41z" />
<glyph unicode="}" horiz-adv-x="520" d="M41 -274q108 0 185 77t77 185q0 15 -4 47l-47 266q-6 27 -6 53q0 72 33.5 137.5t91.5 108.5q-58 43 -91.5 108.5t-33.5 137.5q0 26 6 53l47 266q4 32 4 47q0 108 -77.5 185.5t-184.5 77.5v41q126 0 214.5 -89t88.5 -215q0 -21 -4 -53l-49 -268q-4 -28 -4 -45 q0 -71 35.5 -132.5t95.5 -95.5v-36q-60 -35 -95.5 -96.5t-35.5 -131.5q0 -15 4 -47l49 -266q4 -36 4 -53q0 -126 -88.5 -214.5t-214.5 -88.5v41z" />
<glyph unicode="~" horiz-adv-x="825" d="M113 430q9 72 46 124t103 52q42 0 84.5 -22.5t72 -50t68.5 -50t76 -22.5q34 0 58.5 23.5t35 52.5t15.5 63l41 -4q-9 -73 -46.5 -124.5t-105.5 -51.5q-35 0 -68.5 15t-60.5 36.5t-53.5 42.5t-56.5 36t-60 15q-50 0 -76 -42.5t-32 -98.5z" />
<glyph unicode="&#xa2;" horiz-adv-x="987" d="M113 498q0 78 14.5 150.5t46 138t77.5 114.5t113 79.5t148 33.5v194h41v-194q122 -4 212 -68.5t138 -179.5l-37 -16q-43 103 -123 161t-190 62v-953q109 4 189.5 62.5t123.5 161.5l39 -15q-50 -116 -140 -180.5t-212 -68.5v-185h-41v185q-81 3 -148 33.5t-113 79.5 t-77.5 114.5t-46 138.5t-14.5 152zM154 498q0 -72 12.5 -138t40 -127t68.5 -106.5t102 -74.5t135 -32v953q-92 -4 -163 -46t-112.5 -110t-62 -148.5t-20.5 -170.5z" />
<glyph unicode="&#xa3;" horiz-adv-x="1120" d="M92 0v51q49 47 83.5 84t75 88.5t62 101.5t21.5 95q0 69 -37 217h-205v41h195q-60 234 -60 362q0 163 94.5 278.5t253.5 115.5q115 0 201.5 -71t128.5 -185l-39 -15q-37 102 -113.5 166t-177.5 64q-142 0 -224.5 -104t-82.5 -249q0 -129 64 -362h461v-41h-451 q33 -132 33 -217q0 -37 -11.5 -75.5t-26 -66.5t-43.5 -66.5t-47 -58.5t-55 -59t-49 -53h885v-41h-936z" />
<glyph unicode="&#xa5;" horiz-adv-x="1241" d="M61 1413h50l510 -821l509 821h50l-539 -866v-29h281v-41h-281v-246h281v-41h-281v-210h-41v210h-283v41h283v246h-283v41h283v29z" />
<glyph unicode="&#xa8;" horiz-adv-x="696" d="M174 1210v203h41v-203h-41zM481 1210v203h41v-203h-41z" />
<glyph unicode="&#xa9;" horiz-adv-x="1699" d="M123 707q0 197 97.5 364.5t265 265t364.5 97.5t364.5 -97.5t265 -265t97.5 -364.5t-97.5 -364.5t-265 -265t-364.5 -97.5t-364.5 97.5t-265 265t-97.5 364.5zM164 707q0 -186 92 -344.5t250 -250.5t344 -92t344 92t250 250.5t92 344.5t-92 344t-250 250t-344 92t-344 -92 t-250 -250t-92 -344zM545 707q0 76 20 142.5t58.5 118t101 81.5t141.5 30q99 0 173.5 -48t113.5 -140l-39 -17q-34 79 -98 121.5t-150 42.5q-138 0 -209 -94.5t-71 -236.5q0 -143 71 -237.5t209 -94.5q86 0 150 42.5t98 121.5l39 -17q-38 -90 -113 -139t-174 -49 q-104 0 -178.5 52.5t-108.5 135t-34 185.5z" />
<glyph unicode="&#xad;" horiz-adv-x="706" d="M41 477v41h625v-41h-625z" />
<glyph unicode="&#xae;" horiz-adv-x="1699" d="M123 707q0 197 97.5 364.5t265 265t364.5 97.5t364.5 -97.5t265 -265t97.5 -364.5t-97.5 -364.5t-265 -265t-364.5 -97.5t-364.5 97.5t-265 265t-97.5 364.5zM164 707q0 -186 92 -344.5t250 -250.5t344 -92t344 92t250 250.5t92 344.5t-92 344t-250 250t-344 92t-344 -92 t-250 -250t-92 -344zM643 317v768h281q96 0 165.5 -55t69.5 -149q0 -81 -53.5 -135t-134.5 -66l211 -363h-47l-209 359h-242v-359h-41zM684 717h240q79 0 136.5 43.5t57.5 120.5t-57.5 120t-136.5 43h-240v-327z" />
<glyph unicode="&#xb4;" horiz-adv-x="0" d="M-29 1184l230 229l28 -29l-229 -231z" />
<glyph unicode="&#xb8;" horiz-adv-x="0" d="M-127 -233l16 36q45 -20 91 -20q30 0 58 13.5t28 39.5t-27.5 36.5t-58.5 10.5q-14 0 -39.5 -3t-30.5 -3l78 137h47l-51 -90q47 -2 84.5 -22.5t37.5 -63.5q0 -46 -39.5 -71t-86.5 -25q-48 0 -107 25z" />
<glyph unicode="&#x2c6;" horiz-adv-x="0" d="M-229 1184l229 229l229 -229l-28 -31l-201 203l-201 -203z" />
<glyph unicode="&#x2da;" horiz-adv-x="0" d="M-162 1554q0 66 48 113t114 47t114 -47t48 -113q0 -67 -48 -114t-114 -47t-114 47t-48 114zM-121 1554q0 -51 35.5 -85.5t85.5 -34.5t85.5 34.5t35.5 85.5q0 49 -35.5 84t-85.5 35t-85.5 -35t-35.5 -84z" />
<glyph unicode="&#x2dc;" horiz-adv-x="0" d="M-299 1171q9 72 46 124.5t103 52.5q43 0 85.5 -23t71.5 -50t68 -50t75 -23q50 0 76 42t32 97l41 -4q-9 -73 -45.5 -124.5t-103.5 -51.5q-42 0 -85 23t-72 50t-68.5 50t-76.5 23q-49 0 -74.5 -43t-31.5 -99z" />
<glyph unicode="&#x2000;" horiz-adv-x="857" />
<glyph unicode="&#x2001;" horiz-adv-x="1714" />
<glyph unicode="&#x2002;" horiz-adv-x="857" />
<glyph unicode="&#x2003;" horiz-adv-x="1714" />
<glyph unicode="&#x2004;" horiz-adv-x="571" />
<glyph unicode="&#x2005;" horiz-adv-x="428" />
<glyph unicode="&#x2006;" horiz-adv-x="285" />
<glyph unicode="&#x2007;" horiz-adv-x="285" />
<glyph unicode="&#x2008;" horiz-adv-x="214" />
<glyph unicode="&#x2009;" horiz-adv-x="342" />
<glyph unicode="&#x200a;" horiz-adv-x="95" />
<glyph unicode="&#x2010;" horiz-adv-x="706" d="M41 477v41h625v-41h-625z" />
<glyph unicode="&#x2011;" horiz-adv-x="706" d="M41 477v41h625v-41h-625z" />
<glyph unicode="&#x2012;" horiz-adv-x="706" d="M41 477v41h625v-41h-625z" />
<glyph unicode="&#x2013;" horiz-adv-x="768" d="M41 477v41h686v-41h-686z" />
<glyph unicode="&#x2014;" horiz-adv-x="1341" d="M0 477v41h1341v-41h-1341z" />
<glyph unicode="&#x2022;" horiz-adv-x="393" d="M113 481q0 35 24.5 59.5t59.5 24.5t59.5 -24.5t24.5 -59.5t-24.5 -59.5t-59.5 -24.5t-59.5 24.5t-24.5 59.5z" />
<glyph unicode="&#x2026;" horiz-adv-x="1003" d="M174 0v203h41v-203h-41zM481 0v203h41v-203h-41zM788 0v203h41v-203h-41z" />
<glyph unicode="&#x202f;" horiz-adv-x="342" />
<glyph unicode="&#x205f;" horiz-adv-x="428" />
<glyph unicode="&#x2122;" horiz-adv-x="976" d="M41 1372v41h317v-41h-139v-393h-41v393h-137zM453 979v434h39l174 -385l172 385h36v-434h-40v326l-148 -326h-43l-149 326v-326h-41z" />
<glyph unicode="&#x25fc;" horiz-adv-x="993" d="M0 0v993h993v-993h-993z" />
</font>
</defs>
</svg>
