<?xml version="1.0" encoding="utf-8"?>
<!-- Generator: Adobe Illustrator 19.0.0, SVG Export Plug-In . SVG Version: 6.00 Build 0)  -->
<svg version="1.1" id="Logo" xmlns="http://www.w3.org/2000/svg" xmlns:xlink="http://www.w3.org/1999/xlink" x="0px" y="0px"
	 viewBox="-281 404.9 32 32" style="enable-background:new -281 404.9 32 32;" xml:space="preserve">
<style type="text/css">
	.st0{fill:#FFFFFF;}
</style>
<g>
	<path class="st0" d="M-265,407.8c4.3,0,4.8,0,6.5,0.1c1.6,0.1,2.4,0.3,3,0.6c0.7,0.3,1.3,0.6,1.8,1.2c0.6,0.6,0.9,1.1,1.2,1.8
		c0.2,0.5,0.5,1.4,0.5,2.9c0.1,1.7,0.1,2.2,0.1,6.5c0,4.3,0,4.8-0.1,6.5c-0.1,1.6-0.3,2.4-0.6,3c-0.3,0.7-0.6,1.3-1.2,1.8
		c-0.6,0.6-1.1,0.9-1.8,1.2c-0.6,0.2-1.4,0.5-3,0.6c-1.7,0.1-2.2,0.1-6.5,0.1c-4.3,0-4.8,0-6.5-0.1c-1.6-0.1-2.4-0.3-3-0.6
		c-0.7-0.3-1.3-0.6-1.8-1.2c-0.6-0.6-0.9-1.1-1.2-1.8c-0.1-0.6-0.4-1.5-0.4-3c-0.1-1.7-0.1-2.2-0.1-6.5c0-4.3,0-4.8,0.1-6.5
		c0-1.5,0.3-2.4,0.5-2.9c0.3-0.7,0.6-1.3,1.2-1.8c0.6-0.6,1.1-0.9,1.8-1.2c0.6-0.3,1.5-0.6,3-0.6
		C-269.8,407.8-269.3,407.8-265,407.8 M-265,404.9c-4.3,0-4.9,0-6.6,0.1c-1.7,0.1-2.9,0.3-3.9,0.7c-1.1,0.4-1.9,1-2.8,1.8
		c-0.9,1-1.5,1.9-1.9,2.9c-0.4,1-0.7,2.2-0.7,3.9c-0.1,1.7-0.1,2.3-0.1,6.6c0,4.3,0,4.9,0.1,6.6c0.1,1.7,0.3,2.9,0.7,3.9
		c0.4,1.1,1,1.9,1.8,2.8c0.9,0.9,1.8,1.4,2.8,1.8s2.2,0.7,3.9,0.7c1.8,0.2,2.4,0.2,6.7,0.2s4.9,0,6.6-0.1c1.7-0.1,2.9-0.3,3.9-0.7
		c1.1-0.4,1.9-1,2.8-1.8c0.9-0.9,1.4-1.8,1.8-2.8c0.4-1,0.7-2.2,0.7-3.9c0.2-1.8,0.2-2.4,0.2-6.7c0-4.3,0-4.9-0.1-6.6
		c-0.1-1.7-0.3-2.9-0.7-3.9c-0.4-1.1-1-1.9-1.8-2.8c-0.9-0.9-1.8-1.4-2.8-1.8s-2.2-0.7-3.9-0.7C-260.1,404.9-260.7,404.9-265,404.9
		L-265,404.9z"/>
	<path class="st0" d="M-265,412.7c-4.5,0-8.2,3.7-8.2,8.2s3.7,8.2,8.2,8.2s8.2-3.7,8.2-8.2S-260.5,412.7-265,412.7z M-265,426.2
		c-2.9,0-5.3-2.4-5.3-5.3c0-2.9,2.4-5.3,5.3-5.3s5.3,2.4,5.3,5.3C-259.7,423.8-262.1,426.2-265,426.2z"/>
	<circle class="st0" cx="-256.5" cy="412.4" r="1.9"/>
</g>
</svg>
