<?xml version="1.0" encoding="utf-8"?>
<!-- Generator: Adobe Illustrator 19.0.0, SVG Export Plug-In . SVG Version: 6.00 Build 0)  -->
<svg version="1.1" id="Слой_1" xmlns="http://www.w3.org/2000/svg" xmlns:xlink="http://www.w3.org/1999/xlink" x="0px" y="0px"
	 viewBox="-213 405.4 32 32" style="enable-background:new -213 405.4 32 32;" xml:space="preserve">
<style type="text/css">
	.st0{fill:#FFFFFF;}
</style>
<path class="st0" d="M-212.8,420.3c0-0.4,0-0.9,0-1.3c0.3-2,1-4,2.1-5.8c1.1-1.8,2.4-3.3,4.1-4.6c1.6-1.2,3.5-2.2,5.5-2.7
	c1-0.3,2-0.4,3-0.5l0.4,0h0.4h0.4h0h0.1h0.1h0.2c0.4,0,1,0,1.5,0.1c2,0.2,4,0.9,5.8,1.9c1.8,1,3.4,2.3,4.7,3.9
	c1.3,1.6,2.2,3.4,2.8,5.3c0.6,1.9,0.8,4,0.6,5.9c-0.1,2.2-0.7,4.4-1.8,6.4s-2.5,3.7-4.2,5.1c-1.8,1.4-3.8,2.4-6,2.9
	c-1.1,0.3-2.2,0.4-3.3,0.4h-0.4h-0.1h0h-0.1h-0.2h-0.4l-0.4,0l-0.4,0l-0.4,0c-0.3,0-0.6-0.1-0.8-0.1c-1.4-0.2-2.7-0.7-4-1.3
	c-1.2-0.6-2.4-1.4-3.5-2.3c-2.1-1.8-3.7-4.2-4.5-6.8c-0.5-1.4-0.6-2.8-0.6-3.7c0.1-0.9,0.2-1.5,0.4-1.6c0.5-0.2,0.6,2.1,1.6,4.6
	c0.8,2.2,2.2,4.2,3.9,5.8c0.9,0.8,1.8,1.4,2.9,2c1,0.6,2.1,1,3.3,1.2c2.3,0.6,4.7,0.5,7-0.1c2.3-0.6,4.4-1.8,6.1-3.4
	c1.1-1,2-2.2,2.8-3.5c0.7-1.3,1.2-2.8,1.4-4.2c0.1-0.4,0.1-0.8,0.1-1.1l0-0.6c0-0.2,0-0.4,0-0.6c0-0.7,0-1.5-0.1-2.2
	c-0.4-3-1.8-5.8-3.9-7.9s-4.9-3.7-7.8-4.1c-0.8-0.1-1.4-0.2-2.3-0.2h-0.6c-0.2,0-0.4,0-0.6,0c-0.4,0-0.8,0.1-1.1,0.1
	c-1.5,0.2-3,0.7-4.3,1.3c-1.1,0.6-2.2,1.3-3.1,2.1c-0.9,0.8-1.8,1.7-2.5,2.7c-1.4,2-2.4,4.1-2.9,6.3c-0.1,0.3-0.1,0.6-0.2,0.9
	c-0.1,0.2-0.1,0.4-0.2,0.6c-0.1,0.3-0.2,0.3-0.3,0C-212.7,421-212.8,420.7-212.8,420.3z M-198.2,424.7c-0.2,0.3-0.3,0.7,0.1,1
	c0.3,0.3,0.7,0.3,1,0.1c0.6-0.4,1.1-0.8,1.6-1.3c0.8-0.8,1.4-1.6,2.2-2.4l0.1-0.1l0,0c0.2-0.1,0.3-0.4,0.2-0.7l-0.2-0.3
	c-1-1.7-2.5-2.9-3.8-4.3c-0.1-0.1-0.3,0-0.4,0c-0.2,0.1-0.3,0.3-0.3,0.6c0,0.8,0.3,1.4,0.8,1.9c0.7,0.8,1.3,1.6,2,2.3
	c-0.1,0.1-0.3,0.2-0.4,0.4C-196.5,422.7-197.4,423.6-198.2,424.7z"/>
</svg>
