<?xml version="1.0" encoding="utf-8"?>
<!-- Generator: Adobe Illustrator 19.0.0, SVG Export Plug-In . SVG Version: 6.00 Build 0)  -->
<svg version="1.1" id="Слой_1" xmlns="http://www.w3.org/2000/svg" xmlns:xlink="http://www.w3.org/1999/xlink" x="0px" y="0px"
	 viewBox="-281 404.9 32 32" style="enable-background:new -281 404.9 32 32;" xml:space="preserve">
<style type="text/css">
	.st0{fill:#FFFFFF;}
</style>
<g id="background_1_">
</g>
<g id="WhatsApp_Logo">
	<g id="WA_Logo">
		<g>
			<path class="st0" d="M-253.7,409.6c-3-3-7-4.6-11.2-4.7c-8.8,0-15.9,7.1-15.9,15.9c0,2.8,0.7,5.5,2.1,7.9l-2.2,8.2l8.4-2.2
				c2.3,1.3,4.9,1.9,7.6,1.9l0,0l0,0c8.7,0,15.9-7.1,15.9-15.9C-249.1,416.5-250.7,412.5-253.7,409.6z M-264.9,433.9L-264.9,433.9
				c-2.4,0-4.7-0.6-6.7-1.8l-0.5-0.3l-5,1.3l1.3-4.9l-0.3-0.5c-1.3-2.1-2-4.5-2-7c0-7.3,5.9-13.2,13.2-13.2c3.5,0,6.8,1.4,9.3,3.9
				s3.9,5.8,3.9,9.3C-251.8,428-257.7,433.9-264.9,433.9z M-257.7,424.1c-0.4-0.2-2.3-1.2-2.7-1.3s-0.6-0.2-0.9,0.2
				c-0.3,0.4-1,1.3-1.3,1.6c-0.2,0.3-0.5,0.3-0.9,0.1s-1.7-0.6-3.2-2c-1.2-1.1-2-2.3-2.2-2.7c-0.2-0.4,0-0.6,0.2-0.8
				c0.2-0.2,0.4-0.5,0.6-0.7c0.2-0.2,0.3-0.4,0.4-0.7c0.1-0.3,0.1-0.5,0-0.7c-0.1-0.2-0.9-2.1-1.2-2.9c-0.3-0.8-0.6-0.7-0.9-0.7
				c-0.2,0-0.5,0-0.8,0c-0.3,0-0.6,0-1,0.4c-0.4,0.4-1.4,1.4-1.4,3.3c0,2,1.4,3.8,1.6,4.1c0.2,0.3,2.8,4.3,6.8,6
				c0.9,0.4,1.7,0.7,2.3,0.8c0.9,0.3,1.8,0.3,2.5,0.2c0.8-0.1,2.3-1,2.7-1.9c0.3-0.9,0.3-1.7,0.2-1.9
				C-257,424.4-257.3,424.3-257.7,424.1z"/>
		</g>
	</g>
</g>
</svg>
