<?xml version="1.0" encoding="utf-8"?>
<!-- Generator: Adobe Illustrator 19.0.0, SVG Export Plug-In . SVG Version: 6.00 Build 0)  -->
<svg version="1.1" id="Слой_1" xmlns="http://www.w3.org/2000/svg" xmlns:xlink="http://www.w3.org/1999/xlink" x="0px" y="0px"
	 viewBox="-252 375.6 90 90" style="enable-background:new -252 375.6 90 90;" xml:space="preserve">
<style type="text/css">
	.st0{fill:#633A6E;}
</style>
<g>
	<g>
		<path class="st0" d="M-207,427.5c-3.8,0-6.9-3.1-6.9-6.9s3.1-6.9,6.9-6.9s6.9,3.1,6.9,6.9S-203.2,427.5-207,427.5z M-207,416.6
			c-2.2,0-4,1.8-4,4s1.8,4,4,4s4-1.8,4-4S-204.8,416.6-207,416.6z"/>
	</g>
	<g>
		<path class="st0" d="M-207,465.6c-24.8,0-45-20.2-45-45s20.2-45,45-45s45,20.2,45,45S-182.2,465.6-207,465.6z M-207,378.5
			c-23.2,0-42,18.9-42,42.1s18.9,42.1,42.1,42.1s42-18.9,42-42.1S-183.8,378.5-207,378.5z M-191.9,454c-0.2,0-0.4,0-0.5-0.1
			c-0.4-0.1-0.7-0.4-0.8-0.8l-4-10.1c-0.3-0.7,0-1.5,0.7-1.9c4.3-2.2,7.9-5.8,10.1-10.1c0.3-0.7,1.2-1,1.9-0.7l10.1,4
			c0.4,0.2,0.7,0.5,0.8,0.8c0.1,0.4,0.1,0.8,0,1.2c-3.6,7.7-9.9,13.9-17.6,17.6C-191.5,454-191.7,454-191.9,454z M-194.1,443.1
			l3,7.4c6-3.2,10.9-8.1,14.1-14.1l-7.4-3C-186.8,437.5-190.1,440.8-194.1,443.1z M-207,435.7c-2.6,0-5.3-0.7-7.9-2
			c-2.2-1.2-4-3-5.2-5.2c-3.4-6.4-2.4-13.7,2.4-18.5c4.8-4.8,12.1-5.8,18.5-2.4l0,0c2.2,1.2,4,3,5.2,5.2c3.4,6.4,2.4,13.7-2.4,18.5
			C-199.2,434.2-203,435.7-207,435.7z M-207,408.4c-3.6,0-6.6,1.6-8.6,3.6c-3.1,3.1-5.2,8.7-1.9,15.1c0.9,1.7,2.3,3.1,3.9,3.9
			c6.4,3.4,12,1.2,15.1-1.9c3.1-3.1,5.2-8.7,1.9-15.1c-0.9-1.7-2.3-3.1-3.9-3.9l0,0C-202.8,408.9-205,408.4-207,408.4z M-228.8,411
			c-0.2,0-0.4,0-0.5-0.1l-10.1-4c-0.4-0.2-0.7-0.5-0.8-0.8c-0.1-0.4-0.1-0.8,0-1.2c3.6-7.7,9.9-13.9,17.6-17.6
			c0.4-0.2,0.8-0.2,1.2,0c0.4,0.1,0.7,0.4,0.8,0.8l4,10.1c0.3,0.7,0,1.5-0.7,1.9c-4.3,2.2-7.9,5.8-10.1,10.1
			C-227.8,410.7-228.3,411-228.8,411z M-236.9,404.7l7.4,3c2.3-4,5.6-7.3,9.6-9.6l-3-7.4C-228.8,393.9-233.7,398.8-236.9,404.7z"/>
	</g>
</g>
</svg>
