<?xml version="1.0" encoding="utf-8"?>
<!-- Generator: Adobe Illustrator 19.0.0, SVG Export Plug-In . SVG Version: 6.00 Build 0)  -->
<svg version="1.1" id="Слой_1" xmlns="http://www.w3.org/2000/svg" xmlns:xlink="http://www.w3.org/1999/xlink" x="0px" y="0px"
	 viewBox="-242 407.5 90 60" style="enable-background:new -242 407.5 90 60;" xml:space="preserve">
<style type="text/css">
	.st0{fill:#FFFFFF;}
</style>
<g>
	<ellipse class="st0" cx="-172.9" cy="445.9" rx="11.3" ry="11.6"/>
	<path class="st0" d="M-153,407.7h-77.9l38.9-24.4c1.5,1.3,3.8,1.5,5.6,0.4c2.3-1.4,3-4.5,1.6-6.8c-1.4-2.4-4.3-3.1-6.6-1.7
		c-1.8,1.1-2.6,3.3-2.2,5.3l-43.4,27.2h-3.9c-0.6,0-1,0.5-1,1v57.7c0,0.6,0.4,1,1,1h88c0.6,0,1-0.5,1-1v-57.7
		C-152,408.1-152.4,407.7-153,407.7z M-235.6,414.3h51.4v13.3h-51.4V414.3z M-232.4,460.8h-3.2v-29.9h3.2V460.8z M-225.9,460.8h-3.2
		v-29.9h3.2V460.8z M-219.5,460.8h-3.2v-29.9h3.2V460.8z M-213.1,460.8h-3.2v-29.9h3.2V460.8z M-206.6,460.8h-3.2v-29.9h3.2V460.8z
		 M-200.2,460.8h-3.2v-29.9h3.2V460.8z M-172.9,460.8c-8,0-14.5-6.7-14.5-14.9c0-8.3,6.5-14.9,14.5-14.9c8,0,14.5,6.7,14.5,14.9
		C-158.4,454.1-164.9,460.8-172.9,460.8z M-158.4,427.6h-22.5v-13.3h22.5V427.6z"/>
</g>
<text transform="matrix(1 0 0 1 -41 679.89)" style="font-family:'Arial-BoldMT'; font-size:5px;">Created by Ralf Schmitzer</text>
<text transform="matrix(1 0 0 1 -41 684.89)" style="font-family:'Arial-BoldMT'; font-size:5px;">from the Noun Project</text>
</svg>
