<?xml version="1.0" encoding="utf-8"?>
<!-- Generator: Adobe Illustrator 19.0.0, SVG Export Plug-In . SVG Version: 6.00 Build 0)  -->
<svg version="1.1" id="Слой_1" xmlns="http://www.w3.org/2000/svg" xmlns:xlink="http://www.w3.org/1999/xlink" x="0px" y="0px"
	 viewBox="-247 358.9 97.3 57.4" style="enable-background:new -247 358.9 97.3 57.4;" xml:space="preserve">
<style type="text/css">
	.st0{fill:#0064AF;}
</style>
<g>
	<g>
		<path class="st0" d="M-155.2,416.3h-36.1c-0.9,0-1.7-0.7-1.7-1.7c0-0.9,0.7-1.7,1.7-1.7h36.1c2.1,0,2.2-1.7,2.2-2.2v-46.3
			c0-2-1.6-2.2-2.3-2.2h-45.6c-2,0-2.2,1.6-2.2,2.3v28.6c0,0.9-0.7,1.7-1.7,1.7s-1.7-0.7-1.7-1.7v-28.7c0-2.2,1.5-5.6,5.6-5.6h45.6
			c2.2,0,5.6,1.5,5.6,5.6v46.3C-149.7,413-151.1,416.3-155.2,416.3z"/>
	</g>
	<g>
		<path class="st0" d="M-206.9,416.3c-0.2,0-0.4,0-0.6-0.1c-0.6-0.3-1.1-0.9-1.1-1.5c0-7.8-5.3-14.7-12.9-16.7
			c-0.7-0.2-1.2-0.8-1.2-1.4c-0.1-0.7,0.3-1.3,0.9-1.6c3.4-1.7,5.5-5,5.5-8.7c0-5.4-4.4-9.7-9.9-9.7c-5.5,0-9.9,4.4-9.9,9.7
			c0,3.7,2.1,7,5.5,8.7c0.6,0.3,1,1,0.9,1.6c-0.1,0.7-0.6,1.3-1.2,1.4c-7.6,2.1-12.9,8.9-12.9,16.7c0,0.9-0.7,1.7-1.7,1.7
			s-1.7-0.7-1.7-1.7c0-8.1,4.9-15.4,12.2-18.8c-2.8-2.4-4.5-6-4.5-9.8c0-7.2,5.9-13.1,13.2-13.1c7.3,0,13.2,5.9,13.2,13.1
			c0,3.8-1.7,7.3-4.5,9.8c6.1,2.8,10.5,8.4,11.8,14.9l19.7-21.3c0.6-0.7,1.7-0.7,2.3-0.1c0.7,0.6,0.7,1.7,0.1,2.3l-22.2,24
			C-206,416.1-206.4,416.3-206.9,416.3z"/>
	</g>
</g>
</svg>
