<?xml version="1.0" encoding="utf-8"?>
<!-- Generator: Adobe Illustrator 19.0.0, SVG Export Plug-In . SVG Version: 6.00 Build 0)  -->
<svg version="1.1" id="Слой_1" xmlns="http://www.w3.org/2000/svg" xmlns:xlink="http://www.w3.org/1999/xlink" x="0px" y="0px"
	 viewBox="-247 373.1 41.8 43.2" style="enable-background:new -247 373.1 41.8 43.2;" xml:space="preserve">
<style type="text/css">
	.st0{fill:#0064AF;}
</style>
<g>
	<path class="st0" d="M-205.8,412.7c-0.1-0.5-0.1-0.9-0.1-1.4c0-0.3,0.1-0.4,0.3-0.6c-1.3-6.5-5.7-12-11.8-14.8
		c2.8-2.4,4.5-6,4.5-9.8c0-7.2-5.9-13.1-13.2-13.1c-7.3,0-13.2,5.9-13.2,13.1c0,3.8,1.7,7.3,4.5,9.8c-7.3,3.3-12.2,10.6-12.2,18.8
		c0,0.9,0.7,1.7,1.7,1.7c0.9,0,1.7-0.7,1.7-1.7c0-7.8,5.3-14.7,12.9-16.7c0.7-0.2,1.2-0.8,1.2-1.4c0.1-0.7-0.3-1.3-0.9-1.6
		c-3.4-1.7-5.5-5-5.5-8.7c0-5.4,4.4-9.7,9.9-9.7c5.5,0,9.9,4.4,9.9,9.7c0,3.7-2.1,7-5.5,8.7c-0.6,0.3-1,1-0.9,1.6
		c0.1,0.7,0.6,1.3,1.2,1.4c7.6,2.1,12.9,8.9,12.9,16.7c0,0.7,0.4,1.3,1.1,1.5c0.2,0.1,0.4,0.1,0.6,0.1c0.5,0,0.9-0.2,1.2-0.5
		C-205.7,414.8-205.7,413.7-205.8,412.7z"/>
</g>
<g>
	<path class="st0" d="M-246.4,412.7c0.1-0.5,0.1-0.9,0.1-1.4c0-0.3-0.1-0.4-0.3-0.6c1.3-6.5,5.7-12,11.8-14.8
		c-2.8-2.4-4.5-6-4.5-9.8c0-7.2,5.9-13.1,13.2-13.1c7.3,0,13.2,5.9,13.2,13.1c0,3.8-1.7,7.3-4.5,9.8c7.3,3.3,12.2,10.6,12.2,18.8
		c0,0.9-0.7,1.7-1.7,1.7c-0.9,0-1.7-0.7-1.7-1.7c0-7.8-5.3-14.7-12.9-16.7c-0.7-0.2-1.2-0.8-1.2-1.4c-0.1-0.7,0.3-1.3,0.9-1.6
		c3.4-1.7,5.5-5,5.5-8.7c0-5.4-4.4-9.7-9.9-9.7c-5.5,0-9.9,4.4-9.9,9.7c0,3.7,2.1,7,5.5,8.7c0.6,0.3,1,1,0.9,1.6
		c-0.1,0.7-0.6,1.3-1.2,1.4c-7.6,2.1-12.9,8.9-12.9,16.7c0,0.7-0.4,1.3-1.1,1.5c-0.2,0.1-0.4,0.1-0.6,0.1c-0.5,0-0.9-0.2-1.2-0.5
		C-246.5,414.8-246.5,413.7-246.4,412.7z"/>
</g>
</svg>
