<?xml version="1.0" encoding="utf-8"?>
<!-- Generator: Adobe Illustrator 19.0.0, SVG Export Plug-In . SVG Version: 6.00 Build 0)  -->
<svg version="1.1" id="Слой_1" xmlns="http://www.w3.org/2000/svg" xmlns:xlink="http://www.w3.org/1999/xlink" x="0px" y="0px"
	 viewBox="-429 206.5 90 90" style="enable-background:new -429 206.5 90 90;" xml:space="preserve">
<style type="text/css">
	.st0{fill:#FF536D;}
</style>
<path class="st0" d="M-417,285h66c6.6,0,12-5.4,12-12v-43c0-6.6-5.4-12-12-12h-66c-6.6,0-12,5.4-12,12v43
	C-429,279.6-423.6,285-417,285z M-425,230c0-4.4,3.6-8,8-8h66c4.4,0,8,3.6,8,8v43c0,4.4-3.6,8-8,8h-66c-4.4,0-8-3.6-8-8V230z"/>
<path class="st0" d="M-416.3,234.2l31.4,20.4c0.3,0.2,0.7,0.3,1.1,0.3c0.4,0,0.8-0.1,1.1-0.3l31.1-20.4c0.9-0.6,1.2-1.8,0.6-2.8
	c-0.6-0.9-1.8-1.2-2.8-0.6l-30,19.7l-30.3-19.7c-0.9-0.6-2.2-0.3-2.8,0.6C-417.5,232.4-417.3,233.6-416.3,234.2z"/>
</svg>
