<?xml version="1.0" encoding="utf-8"?>
<!-- Generator: Adobe Illustrator 19.0.0, SVG Export Plug-In . SVG Version: 6.00 Build 0)  -->
<svg version="1.1" id="Слой_1" xmlns="http://www.w3.org/2000/svg" xmlns:xlink="http://www.w3.org/1999/xlink" x="0px" y="0px"
	 viewBox="-449.5 437.3 25.4 36" style="enable-background:new -449.5 437.3 25.4 36;" xml:space="preserve">
<style type="text/css">
	.st0{fill:#FF536D;}
</style>
<path class="st0" d="M-436.8,437.3c-7,0-12.7,5.7-12.7,12.7c0,13.6,11.7,22.7,12.2,23.1c0.2,0.1,0.3,0.2,0.5,0.2
	c0.2,0,0.4-0.1,0.5-0.2c0.5-0.4,12.2-9.5,12.2-23.1C-424,443-429.7,437.3-436.8,437.3z M-436.8,471.5c-2.2-1.9-11.1-10.2-11.1-21.4
	c0-6.1,5-11.1,11.1-11.1c6.1,0,11.1,5,11.1,11.1C-425.7,461.3-434.5,469.6-436.8,471.5z"/>
<path class="st0" d="M-436.8,438.5c-6.3,0-11.5,5.1-11.5,11.5c0,11.6,9.2,20.2,11.5,22.2c2.3-2,11.5-10.5,11.5-22.2
	C-425.3,443.7-430.4,438.5-436.8,438.5z M-436.8,455.6c-3.1,0-5.6-2.5-5.6-5.6c0-3.1,2.5-5.6,5.6-5.6c3.1,0,5.6,2.5,5.6,5.6
	C-431.2,453.1-433.7,455.6-436.8,455.6z"/>
</svg>
