<?xml version="1.0" encoding="utf-8"?>
<!-- Generator: Adobe Illustrator 19.0.0, SVG Export Plug-In . SVG Version: 6.00 Build 0)  -->
<svg version="1.1" id="Слой_1" xmlns="http://www.w3.org/2000/svg" xmlns:xlink="http://www.w3.org/1999/xlink" x="0px" y="0px"
	 viewBox="-450.5 437 90 90" style="enable-background:new -450.5 437 90 90;" xml:space="preserve">
<style type="text/css">
	.st0{fill:#FF536D;}
</style>
<path class="st0" d="M-441.3,521.9c0.6,0.6,1.3,1.1,1.8,1.7c1.7,1.6,4.5,2.5,8.2,2.5c10.9,0,29.1-7.2,45.4-23.2
	c9.8-9.8,17.3-21.2,21.2-32.2c3.5-10,3.5-18.2-0.1-21.8c-0.7-0.7-1.5-1.7-2.4-2.6c-3.2-3.7-7.2-8.2-12.3-8.2c-3.2,0-6.4,1.9-9.3,5.6
	c-10,12.5-8.7,15.7-1.8,22.4c0.4,0.4,0.8,0.8,1.2,1.2c1.7,1.7-2.5,11-11.8,20.3c-6.8,6.8-14.8,11.8-18.6,11.8
	c-0.9,0-1.2-0.3-1.3-0.4c-0.4-0.4-0.8-0.8-1.2-1.3c-2.5-2.5-5-5.1-8.9-5.1c-3.5,0-7.4,2.2-12.3,6.9c-3.7,3.5-5.4,6.9-5.4,10.4
	C-448.9,515-444.7,518.8-441.3,521.9z M-440.8,502.3c4.1-3.9,7.2-5.8,9.6-5.8c2.1,0,3.6,1.5,6,3.9c0.4,0.4,0.9,0.9,1.3,1.3
	c0.7,0.7,2,1.5,4.1,1.5c5.8,0,15-6.5,21.5-13c4.3-4.3,8.1-9.2,10.6-13.6c3.2-5.8,3.7-9.9,1.3-12.3c-0.4-0.4-0.8-0.8-1.2-1.2
	c-5.5-5.4-6.4-6.3,2.2-17c2.2-2.7,4.3-4.1,6.2-4.1c3.3,0,6.5,3.6,9.3,6.9c0.9,1,1.7,2,2.6,2.8c1.9,1.9,2.5,8.3-0.8,17.7
	c-3.7,10.4-10.8,21.3-20.2,30.7c-15.5,15.2-32.6,22-42.6,22c-3.6,0-5-0.9-5.4-1.3c-0.6-0.6-1.2-1.2-1.9-1.8c-3-2.7-6.4-5.8-6.4-9.2
	C-445,507.4-443.6,504.9-440.8,502.3z"/>
</svg>
