<?xml version="1.0" encoding="utf-8"?>
<!-- Generator: Adobe Illustrator 19.0.0, SVG Export Plug-In . SVG Version: 6.00 Build 0)  -->
<svg version="1.1" id="Слой_1" xmlns="http://www.w3.org/2000/svg" xmlns:xlink="http://www.w3.org/1999/xlink" x="0px" y="0px"
	 viewBox="-213 405.4 32 32" style="enable-background:new -213 405.4 32 32;" xml:space="preserve">
<style type="text/css">
	.st0{fill:#2A363B;}
</style>
<path class="st0" d="M-186.7,412.9c0-0.4-0.3-0.7-0.7-0.7h-3.6c0-3.2-2.7-5.9-5.9-5.9c-3.2,0-5.9,2.6-5.9,5.9h-3.6
	c-0.4,0-0.7,0.3-0.7,0.7l-1.7,19.5c0,0,0,0,0,0.1c0,2.2,2,3.9,4.5,3.9h15.1c2.4,0,4.5-1.7,4.5-3.9c0,0,0,0,0-0.1L-186.7,412.9z
	 M-197,407.9c2.4,0,4.4,2,4.4,4.4h-8.7C-201.4,409.8-199.4,407.9-197,407.9z M-189.5,434.9h-15.1c-1.6,0-2.9-1.1-3-2.4l1.7-18.8h3
	v2.6c0,0.4,0.3,0.7,0.7,0.7c0.4,0,0.7-0.3,0.7-0.7v-2.6h8.8v2.6c0,0.4,0.3,0.7,0.7,0.7c0.4,0,0.7-0.3,0.7-0.7v-2.6h3l1.7,18.8
	C-186.5,433.8-187.8,434.9-189.5,434.9z M-192.5,425.2c0,0.4-0.3,0.7-0.7,0.7h-3v3c0,0.4-0.3,0.7-0.7,0.7c-0.4,0-0.7-0.3-0.7-0.7v-3
	h-3c-0.4,0-0.7-0.3-0.7-0.7s0.3-0.7,0.7-0.7h3v-3c0-0.4,0.3-0.7,0.7-0.7c0.4,0,0.7,0.3,0.7,0.7v3h3
	C-192.9,424.4-192.5,424.8-192.5,425.2z"/>
</svg>
