<?xml version="1.0" encoding="utf-8"?>
<!-- Generator: Adobe Illustrator 19.0.0, SVG Export Plug-In . SVG Version: 6.00 Build 0)  -->
<svg version="1.1" id="Слой_1" xmlns="http://www.w3.org/2000/svg" xmlns:xlink="http://www.w3.org/1999/xlink" x="0px" y="0px"
	 viewBox="-281 404.9 32 32" style="enable-background:new -281 404.9 32 32;" xml:space="preserve">
<style type="text/css">
	.st0{fill:#FFFFFF;}
</style>
<path class="st0" d="M-252.2,432.6l-1.8-20.7c0-0.4-0.4-0.7-0.8-0.7h-3.9c0-3.5-2.8-6.3-6.3-6.3s-6.3,2.8-6.3,6.3h-3.9
	c-0.4,0-0.8,0.3-0.8,0.7l-1.8,20.7c0,0,0,0,0,0.1c0,2.3,2.1,4.2,4.7,4.2h16.1C-254.3,436.9-252.2,435-252.2,432.6
	C-252.2,432.7-252.2,432.6-252.2,432.6z M-265,406.5c2.6,0,4.7,2.1,4.7,4.7h-9.3C-269.7,408.6-267.6,406.5-265,406.5z M-257,435.3
	h-16c-1.7,0-3.1-1.1-3.1-2.6l1.8-20h3.1v2.8c0,0.4,0.4,0.8,0.8,0.8s0.8-0.4,0.8-0.8v-2.8h9.3v2.8c0,0.4,0.4,0.8,0.8,0.8
	c0.4,0,0.8-0.4,0.8-0.8v-2.8h3.1l1.8,20C-253.8,434.1-255.2,435.3-257,435.3z"/>
</svg>
