<?xml version="1.0" encoding="utf-8"?>
<!-- Generator: Adobe Illustrator 19.0.0, SVG Export Plug-In . SVG Version: 6.00 Build 0)  -->
<svg version="1.1" id="Слой_1" xmlns="http://www.w3.org/2000/svg" xmlns:xlink="http://www.w3.org/1999/xlink" x="0px" y="0px"
	 viewBox="-247 370.9 24.8 24.8" style="enable-background:new -247 370.9 24.8 24.8;" xml:space="preserve">
<path d="M-222.7,374l-9.3,9.3l9.3,9.3c0.7,0.7,0.7,1.9,0,2.6c-0.4,0.4-0.8,0.5-1.3,0.5s-0.9-0.2-1.3-0.5l-9.3-9.3l-9.3,9.3
	c-0.4,0.4-0.8,0.5-1.3,0.5s-0.9-0.2-1.3-0.5c-0.7-0.7-0.7-1.9,0-2.6l9.3-9.3l-9.3-9.3c-0.7-0.7-0.7-1.9,0-2.6c0.7-0.7,1.9-0.7,2.6,0
	l9.3,9.3l9.3-9.3c0.7-0.7,1.9-0.7,2.6,0C-222,372.1-222,373.2-222.7,374z"/>
</svg>
