<?xml version="1.0" encoding="utf-8"?>
<!-- Generator: Adobe Illustrator 19.0.0, SVG Export Plug-In . SVG Version: 6.00 Build 0)  -->
<svg version="1.1" id="Слой_1" xmlns="http://www.w3.org/2000/svg" xmlns:xlink="http://www.w3.org/1999/xlink" x="0px" y="0px"
	 viewBox="-281 404.9 32 32" style="enable-background:new -281 404.9 32 32;" xml:space="preserve">
<style type="text/css">
	.st0{fill:#1D6FA4;}
</style>
<g id="hanger">
	<g id="XMLID_74_">
		<path id="XMLID_75_" class="st0" d="M-253.4,426.6c-1.1-0.8-9.5-5.9-11.1-6.8v-1.6c1.5-0.2,2.7-1.5,2.7-3.1
			c-0.1-1.8-1.5-3.2-3.2-3.2s-3.1,1.4-3.1,3.1c0,0.3,0,0.5,0.1,0.8s0.3,0.4,0.6,0.3c0.3-0.1,0.4-0.3,0.3-0.6c0-0.2-0.1-0.4-0.1-0.6
			c0-1.2,1-2.2,2.2-2.2s2.2,1,2.2,2.2s-1,2.2-2.2,2.2c-0.3,0-0.5,0.2-0.5,0.5v2.1c-1.3,0.8-10,6.1-11.1,6.8c-0.7,0.5-1.1,1.3-0.8,2
			c0.2,0.7,0.9,1.4,2.2,1.4h20.4c1.3,0,2-0.7,2.2-1.3C-252.4,427.9-252.7,427.1-253.4,426.6z M-253.5,428.3
			c-0.1,0.4-0.6,0.6-1.3,0.6h-20.4c-0.7,0-1.2-0.2-1.3-0.6c-0.1-0.3,0.1-0.7,0.5-1c1.1-0.7,9.6-5.9,11-6.8c1.6,1,9.9,6.1,11,6.8
			C-253.6,427.6-253.4,428-253.5,428.3z"/>
	</g>
</g>
</svg>
