<?xml version="1.0" encoding="utf-8"?>
<!-- Generator: Adobe Illustrator 19.0.0, SVG Export Plug-In . SVG Version: 6.00 Build 0)  -->
<svg version="1.1" id="Слой_1" xmlns="http://www.w3.org/2000/svg" xmlns:xlink="http://www.w3.org/1999/xlink" x="0px" y="0px"
	 viewBox="-281 404.9 32 32" style="enable-background:new -281 404.9 32 32;" xml:space="preserve">
<style type="text/css">
	.st0{fill:#1D6FA4;}
</style>
<g id="Delivery_van">
	<g id="XMLID_158_">
		<path id="XMLID_159_" class="st0" d="M-271.6,421.1h8.7c0.3,0,0.6-0.3,0.6-0.6v-8.1c0-0.4-0.6-0.5-0.6-0.5h-8.7
			c0,0-0.5,0.1-0.5,0.6v8.1C-272.2,420.9-271.9,421.1-271.6,421.1z M-271,413h7.6v7h-7.6V413z M-279.2,421.1h5.8
			c0.3,0,0.6-0.3,0.6-0.6v-4.1c0-0.5-0.6-0.5-0.6-0.5h-5.8c0,0-0.5,0.1-0.6,0.5v4.1C-279.7,420.9-279.5,421.1-279.2,421.1z
			 M-278.6,417.1h4.7v2.9h-4.7V417.1z M-258.8,414.8v4.7h7.2l-1.6-4.7H-258.8z M-257.6,418.3v-2.4h3.6l0.9,2.3h-4.5V418.3z
			 M-249,419.8c0-0.1,0-0.2-0.1-0.3v-0.2l-2.4-6.1l0,0c-0.1-0.5-0.6-0.8-1.1-0.8l0,0l0,0h-7.4h-1.2v9.3h-19.1
			c-0.3,0-0.6,0.3-0.6,0.6v4c0,0.3,0.3,0.6,0.6,0.6h2.8c0.1,1.7,1.5,3,3.2,3s3.1-1.3,3.2-3h12.8c0.1,1.7,1.5,3,3.2,3s3.1-1.3,3.2-3
			h2.3c0.3,0,0.6-0.3,0.6-0.6V420L-249,419.8L-249,419.8z M-274.3,428.8c-1.2,0-2.1-0.9-2.1-2.1s0.9-2.1,2.1-2.1s2.1,0.9,2.1,2.1
			C-272.2,427.8-273.2,428.8-274.3,428.8z M-261.1,425.8h-10.1c-0.4-1.4-1.6-2.4-3.1-2.4s-2.7,1-3.1,2.4h-2.3v-2.9h18.6V425.8z
			 M-255,428.8c-1.2,0-2.1-0.9-2.1-2.1s0.9-2.1,2.1-2.1c1.2,0,2.1,0.9,2.1,2.1C-252.9,427.8-253.9,428.8-255,428.8z M-250.1,425.8
			h-1.8c-0.4-1.4-1.6-2.4-3.1-2.4s-2.7,1-3.1,2.4h-1.8v-12.2h7.4l2.5,6.4L-250.1,425.8L-250.1,425.8z"/>
	</g>
</g>
</svg>
