<?xml version="1.0" encoding="utf-8"?>
<!-- Generator: Adobe Illustrator 19.0.0, SVG Export Plug-In . SVG Version: 6.00 Build 0)  -->
<svg version="1.1" id="Слой_1" xmlns="http://www.w3.org/2000/svg" xmlns:xlink="http://www.w3.org/1999/xlink" x="0px" y="0px"
	 viewBox="-247 370.9 40 40" style="enable-background:new -247 370.9 40 40;" xml:space="preserve">
<path d="M-227,370.9c-11,0-20,9-20,20s9,20,20,20c11,0,20-9,20-20C-206.9,379.8-216,370.9-227,370.9z M-227,409
	c-9.9,0-18.1-8.1-18.1-18.1c0-9.9,8.1-18.1,18.1-18.1c9.9,0,18.1,8.1,18.1,18.1C-208.9,400.8-217,409-227,409z M-216.8,390.9
	c0,0.5-0.4,0.9-0.9,0.9h-15.3l5.4,5.4c0.4,0.4,0.4,1,0,1.4c-0.2,0.2-0.4,0.3-0.7,0.3s-0.5-0.1-0.7-0.3l-7.1-7.1
	c-0.1-0.1-0.1-0.1-0.1-0.2l-0.1-0.1c0-0.1-0.1-0.1-0.1-0.1c0-0.1,0-0.1-0.1-0.1c0-0.1,0-0.1,0-0.1c0-0.1,0-0.3,0-0.4
	c0-0.1,0-0.1,0-0.1c0-0.1,0-0.1,0.1-0.1c0-0.1,0.1-0.1,0.1-0.1c0,0,0-0.1,0.1-0.1c0.1-0.1,0.1-0.1,0.1-0.2l7.2-7.2
	c0.4-0.4,1-0.4,1.4,0c0.4,0.4,0.4,1,0,1.4l-5.5,5.5h15.3C-217.2,389.9-216.8,390.4-216.8,390.9z"/>
</svg>
