<?xml version="1.0" encoding="utf-8"?>
<!-- Generator: Adobe Illustrator 19.0.0, SVG Export Plug-In . SVG Version: 6.00 Build 0)  -->
<svg version="1.1" id="Слой_1" xmlns="http://www.w3.org/2000/svg" xmlns:xlink="http://www.w3.org/1999/xlink" x="0px" y="0px"
	 viewBox="-247 370.9 40 40" style="enable-background:new -247 370.9 40 40;" xml:space="preserve">
<path d="M-227,410.9c11,0,20-9,20-20s-9-20-20-20c-11,0-20,9-20,20C-247.1,401.9-238,410.9-227,410.9z M-227,372.8
	c9.9,0,18.1,8.1,18.1,18.1c0,9.9-8.1,18.1-18.1,18.1c-9.9,0-18.1-8.1-18.1-18.1C-245.1,380.9-237,372.8-227,372.8z M-237.2,390.9
	c0-0.5,0.4-0.9,0.9-0.9h15.3l-5.4-5.4c-0.4-0.4-0.4-1,0-1.4c0.2-0.2,0.4-0.3,0.7-0.3s0.5,0.1,0.7,0.3l7.1,7.1
	c0.1,0.1,0.1,0.1,0.1,0.2l0.1,0.1c0,0.1,0.1,0.1,0.1,0.1s0,0.1,0.1,0.1c0,0.1,0,0.1,0,0.1c0,0.1,0,0.3,0,0.4c0,0.1,0,0.1,0,0.1
	c0,0.1,0,0.1-0.1,0.1c0,0.1-0.1,0.1-0.1,0.1c0,0,0,0.1-0.1,0.1c-0.1,0.1-0.1,0.1-0.1,0.2l-7.2,7.2c-0.4,0.4-1,0.4-1.4,0
	c-0.4-0.4-0.4-1,0-1.4l5.5-5.5h-15.3C-236.8,391.9-237.2,391.4-237.2,390.9z"/>
</svg>
