<?xml version="1.0" encoding="utf-8"?>
<!-- Generator: Adobe Illustrator 19.0.0, SVG Export Plug-In . SVG Version: 6.00 Build 0)  -->
<svg version="1.1" id="Слой_1" xmlns="http://www.w3.org/2000/svg" xmlns:xlink="http://www.w3.org/1999/xlink" x="0px" y="0px"
	 viewBox="-247 358.9 40 50" style="enable-background:new -247 358.9 40 50;" xml:space="preserve">
<path d="M-207,402.3l-2.9-32.4c-0.1-0.6-0.6-1.1-1.2-1.1h-6.1c0-5.4-4.4-9.8-9.8-9.8s-9.8,4.4-9.8,9.8h-6.1c-0.6,0-1.2,0.5-1.2,1.1
	l-2.9,32.4c0,0,0,0.1,0,0.1c0,3.6,3.3,6.6,7.4,6.6h25.2c4.1,0,7.4-2.9,7.4-6.6C-207,402.3-207,402.3-207,402.3z M-227,361.4
	c4,0,7.3,3.3,7.3,7.3h-14.6C-234.3,364.7-231,361.4-227,361.4z M-214.4,406.4h-25.2c-2.7,0-4.9-1.8-4.9-4l2.8-31.2h4.9v4.3
	c0,0.7,0.6,1.3,1.3,1.3s1.3-0.6,1.3-1.3v-4.3h14.6v4.3c0,0.7,0.6,1.3,1.3,1.3c0.7,0,1.3-0.6,1.3-1.3v-4.3h4.9l2.8,31.2
	C-209.5,404.6-211.7,406.4-214.4,406.4z"/>
</svg>
