<?xml version="1.0" encoding="utf-8"?>
<!-- Generator: Adobe Illustrator 19.0.0, SVG Export Plug-In . SVG Version: 6.00 Build 0)  -->
<svg version="1.1" id="Слой_1" xmlns="http://www.w3.org/2000/svg" xmlns:xlink="http://www.w3.org/1999/xlink" x="0px" y="0px"
	 viewBox="-290.4 404.9 32 32" style="enable-background:new -290.4 404.9 32 32;" xml:space="preserve">
<style type="text/css">
	.st0{fill:#FFFFFF;}
</style>
<path class="st0" d="M-268,426.7l-0.9-10.4c-0.1-0.2-0.2-0.4-0.4-0.4h-2c0-1.7-1.4-3.1-3.1-3.1s-3.1,1.4-3.1,3.1h-2
	c-0.2,0-0.4,0.2-0.4,0.4l-0.9,10.4v0.1c0,1.2,1.1,2.1,2.4,2.1h8.1C-269.1,428.9-268,428-268,426.7L-268,426.7z M-274.5,413.6
	c1.3,0,2.3,1.1,2.3,2.3h-4.7C-276.8,414.7-275.8,413.6-274.5,413.6z M-270.4,428h-8.1c-0.9,0-1.6-0.6-1.6-1.3l0.9-10h1.6v1.4
	c0,0.3,0.2,0.4,0.4,0.4s0.4-0.2,0.4-0.4v-1.4h4.7v1.4c0,0.3,0.2,0.4,0.4,0.4s0.4-0.2,0.4-0.4v-1.4h1.6l0.9,10
	C-268.8,427.5-269.5,428-270.4,428z"/>
</svg>
