<?xml version="1.0" encoding="utf-8"?>
<!-- Generator: Adobe Illustrator 19.0.0, SVG Export Plug-In . SVG Version: 6.00 Build 0)  -->
<svg version="1.1" id="Слой_1" xmlns="http://www.w3.org/2000/svg" xmlns:xlink="http://www.w3.org/1999/xlink" x="0px" y="0px"
	 viewBox="-281 404.9 32 32" style="enable-background:new -281 404.9 32 32;" xml:space="preserve">
<style type="text/css">
	.st0{fill:#2A363B;}
</style>
<path class="st0" d="M-253,431.9l-1.7-19.5c-0.2-0.4-0.4-0.8-0.8-0.8h-3.7c0-3.2-2.6-5.8-5.8-5.8s-5.8,2.6-5.8,5.8h-3.8
	c-0.4,0-0.7,0.4-0.7,0.8l-1.7,19.5v0.2c0,2.3,2.1,3.9,4.5,3.9h15.2C-255.1,436-253,434.3-253,431.9L-253,431.9z M-265.2,407.3
	c2.4,0,4.3,2.1,4.3,4.3h-8.8C-269.5,409.4-267.6,407.3-265.2,407.3z M-257.5,434.3h-15.2c-1.7,0-3-1.1-3-2.4l1.7-18.8h3v2.6
	c0,0.6,0.4,0.8,0.8,0.8s0.7-0.4,0.7-0.8v-2.6h8.8v2.6c0,0.6,0.4,0.8,0.8,0.8s0.8-0.4,0.8-0.8v-2.6h3l1.7,18.8
	C-254.5,433.4-255.8,434.3-257.5,434.3z"/>
</svg>
