<?xml version="1.0" encoding="utf-8"?>
<!-- Generator: Adobe Illustrator 19.0.0, SVG Export Plug-In . SVG Version: 6.00 Build 0)  -->
<svg version="1.1" id="Слой_1" xmlns="http://www.w3.org/2000/svg" xmlns:xlink="http://www.w3.org/1999/xlink" x="0px" y="0px"
	 viewBox="-213 405.4 32 32" style="enable-background:new -213 405.4 32 32;" xml:space="preserve">
<style type="text/css">
	.st0{fill:#2D2D2D;}
</style>
<path class="st0" d="M-184.2,433.1l-1.8-20.7c0-0.4-0.4-0.7-0.8-0.7h-3.9c0-3.5-2.8-6.3-6.3-6.3s-6.3,2.8-6.3,6.3h-3.9
	c-0.4,0-0.8,0.3-0.8,0.7l-1.8,20.7c0,0,0,0,0,0.1c0,2.3,2.1,4.2,4.7,4.2h16.1C-186.3,437.4-184.2,435.5-184.2,433.1
	C-184.2,433.2-184.2,433.1-184.2,433.1z M-197,407c2.6,0,4.7,2.1,4.7,4.7h-9.3C-201.7,409.1-199.6,407-197,407z M-189,435.8H-205
	c-1.7,0-3.1-1.1-3.1-2.6l1.8-20h3.1v2.8c0,0.4,0.4,0.8,0.8,0.8c0.4,0,0.8-0.4,0.8-0.8v-2.8h9.3v2.8c0,0.4,0.4,0.8,0.8,0.8
	c0.4,0,0.8-0.4,0.8-0.8v-2.8h3.1l1.8,20C-185.8,434.6-187.2,435.8-189,435.8z"/>
</svg>
