<?xml version="1.0" encoding="utf-8"?>
<!-- Generator: Adobe Illustrator 19.0.0, SVG Export Plug-In . SVG Version: 6.00 Build 0)  -->
<svg version="1.1" id="Слой_1" xmlns="http://www.w3.org/2000/svg" xmlns:xlink="http://www.w3.org/1999/xlink" x="0px" y="0px"
	 viewBox="-213 405.4 32 32" style="enable-background:new -213 405.4 32 32;" xml:space="preserve">
<style type="text/css">
	.st0{fill:#9DAAC1;}
</style>
<path class="st0" d="M-209.8,431.4c-1,0-1.9-0.9-1.9-1.9v-11.4c0-1,0.9-1.9,1.9-1.9h2.7v-2.9c0-1,0.9-1.9,1.9-1.9h21
	c1,0,1.9,0.9,1.9,1.9v11.4c0,1-0.9,1.9-1.9,1.9h-2.7v2.9c0,1-0.9,1.9-1.9,1.9H-209.8z M-188.3,427.4c-1.4,0.1-2.6,1.3-2.8,2.7h2.2
	c0.3,0,0.6-0.3,0.6-0.6V427.4z M-188.3,418c0-0.3-0.3-0.6-0.6-0.6h-2.1c0.1,1.4,1.3,2.6,2.7,2.8V418z M-205.7,416.2h16.9
	c1,0,1.9,0.9,1.9,1.9v7.2h2.7c0.3,0,0.6-0.3,0.6-0.6v-11.4c0-0.3-0.3-0.6-0.6-0.6h-21c-0.3,0-0.6,0.3-0.6,0.6L-205.7,416.2
	L-205.7,416.2z M-210.4,420.2c1.4-0.1,2.6-1.3,2.8-2.7h-2.2c-0.3,0-0.6,0.3-0.6,0.6V420.2z M-210.4,426c2.2,0.2,3.9,1.9,4,4.1h14
	c0.2-2.2,1.9-3.9,4.1-4v-4.4c-2.2-0.2-3.9-1.9-4-4.1h-14c-0.2,2.2-1.9,3.9-4.1,4V426z M-209.8,430h2.1c-0.1-1.4-1.3-2.6-2.7-2.8v2.2
	C-210.4,429.8-210.1,430-209.8,430z"/>
<g>
	<path class="st0" d="M-201.7,425.1c-0.2,0.1-0.3,0.1-0.5,0.1c-0.8,0-1.3-0.5-1.3-1.5c0-0.9,0.5-1.4,1.3-1.4c0.2,0,0.4,0,0.5,0.1
		c0.2,0.1,0.2,0.1,0.4,0.3l-0.6,0.6c-0.1-0.1-0.2-0.2-0.3-0.2c-0.3,0-0.4,0.2-0.4,0.7c0,0.4,0.1,0.7,0.4,0.7c0.1,0,0.2,0,0.3-0.2
		l0.6,0.6C-201.5,425-201.6,425-201.7,425.1z"/>
	<path class="st0" d="M-198.9,424.8c-0.2,0.2-0.5,0.4-0.9,0.4s-0.7-0.1-0.9-0.4c-0.2-0.2-0.3-0.5-0.3-1.1c0-0.5,0.1-0.8,0.3-1
		c0.2-0.2,0.5-0.4,0.9-0.4s0.7,0.1,0.9,0.4c0.2,0.2,0.3,0.5,0.3,1.1C-198.6,424.3-198.7,424.6-198.9,424.8z M-199.8,423.1
		c-0.3,0-0.4,0.2-0.4,0.6c0,0.5,0.1,0.7,0.4,0.7s0.4-0.2,0.4-0.7C-199.5,423.3-199.6,423.1-199.8,423.1z"/>
	<path class="st0" d="M-196,425.2v-1.4l-0.4,0.7h-0.4l-0.4-0.7v1.4h-0.9v-2.8h0.8l0.6,1.2l0.6-1.2h0.8v2.8H-196z"/>
</g>
</svg>
