<?xml version="1.0" encoding="utf-8"?>
<!-- Generator: Adobe Illustrator 19.0.0, SVG Export Plug-In . SVG Version: 6.00 Build 0)  -->
<svg version="1.1" id="Слой_1" xmlns="http://www.w3.org/2000/svg" xmlns:xlink="http://www.w3.org/1999/xlink" x="0px" y="0px"
	 viewBox="-213 405.4 32 32" style="enable-background:new -213 405.4 32 32;" xml:space="preserve">
<style type="text/css">
	.st0{fill:#888888;}
</style>
<path class="st0" d="M-183.3,414.4c-0.1-0.2-0.1-0.3-0.2-0.4c-0.1-0.1-0.1-0.1-0.2-0.1c-0.3-0.1-0.4-0.1-0.4,0
	c0,0.1,0.1,0.3,0.1,0.5c0,0.1,0,0.1,0,0.1c0,0.1,0,0.1,0,0.1c0,0.1-0.1,0.1-0.1,0.2c-0.1,0.1-0.1,0.1-0.1,0.2
	c-0.5,0.7-1.1,1.8-1.7,3.1l-0.3,0.6c-0.1,0.1-0.1,0.2-0.1,0.2c0,0,0,0,0,0c0,0,0,0,0,0s-0.1,0-0.1,0h-0.1l-0.1,0l-0.7-0.1
	c-0.9-0.2-1.7-0.4-2.6-0.5c0,0-0.1,0-0.1,0c-0.4,0-0.7,0.3-0.7,0.7v0c-0.1,3.4-0.1,6.8-0.1,10.2v1.6v0.8c0,0.1,0,0.1,0,0.1
	c0,0,0,0-0.1,0s-0.1,0-0.2,0h-0.8h-1.6l-6.3,0l-3.1,0c-0.1,0-0.1,0-0.1,0c0,0,0,0,0-0.1v-0.1v-0.1v-0.2v-1.6l0-6.3
	c0.1-1.5,0.1-3,0.1-4.6c0,0,0-0.1,0-0.1c-0.1-0.4-0.4-0.7-0.8-0.6h0c-0.7,0.1-1.4,0.2-2.2,0.4l-1.1,0.2c-0.1,0-0.1,0-0.1,0
	c-0.6-1.3-1.2-2.5-1.8-3.8l-0.1-0.2v0l0.1-0.1c0.1-0.1,0.3-0.2,0.4-0.3c0.6-0.4,1.2-0.8,1.8-1.1c1.2-0.7,2.5-1.3,3.8-1.8
	c0.1-0.1,0.3-0.1,0.5-0.2l0.2-0.1c0.1,0.6,0.4,1.2,0.7,1.8c0.2,0.4,0.4,0.7,0.7,1.1c0.1,0.1,0.2,0.2,0.3,0.3c0,0,0.1,0.1,0.1,0.1
	l0.1,0.1l0.1,0.1l0.1,0.1l0,0l0.1,0.1l0,0l0.1,0.1c0.1,0.1,0.2,0.1,0.3,0.2c0.7,0.5,1.6,0.7,2.5,0.8c0.8,0.1,1.8-0.1,2.6-0.4
	c0.4-0.2,0.8-0.4,1.1-0.7l0.1,0l0,0l0,0l0.1-0.1c0.1,0,0.1-0.1,0.1-0.1l0.1-0.1c0.2-0.2,0.3-0.4,0.4-0.5c0.5-0.7,0.7-1.5,1-2.3
	c0-0.1,0.1-0.2,0.1-0.3h0l0.1,0c1.7,0.6,3.3,1.3,4.8,2.3c0.3,0.2,0.6,0.4,1,0.5c0.3,0.2,0.6,0.3,0.8,0.4c0.3,0.1,0.4,0,0.2-0.2
	c-0.2-0.2-0.5-0.6-1-1c-1.4-1.2-3.3-2.3-5.3-3.1h0c-0.1-0.1-0.1-0.1-0.1-0.1l-0.1,0l-0.2-0.1l-0.2-0.1c-0.1,0-0.2-0.1-0.3,0
	c-0.1,0-0.2,0-0.3,0.1c-0.2,0.1-0.3,0.3-0.4,0.5l-0.1,0.2c0,0.1-0.1,0.3-0.1,0.5c-0.2,0.6-0.4,1.3-0.8,1.8c-0.2,0.3-0.4,0.5-0.6,0.7
	c-0.1,0-0.1,0.1-0.1,0.1c-0.1,0.1-0.1,0.1-0.2,0.1c-0.1,0.1-0.3,0.1-0.4,0.2c-0.5,0.3-1.2,0.4-1.8,0.4c-0.5,0-1-0.1-1.4-0.2
	c-0.4-0.2-0.9-0.4-1.2-0.7c0,0,0,0-0.1-0.1l0-0.1c0,0-0.1-0.1-0.1-0.1c-0.1-0.1-0.1-0.2-0.2-0.3c-0.1-0.2-0.2-0.4-0.3-0.7
	c-0.2-0.5-0.4-1-0.5-1.5c0-0.1-0.1-0.2-0.1-0.4l0-0.1c0-0.1,0,0,0-0.1c0-0.1-0.1-0.1-0.1-0.2c-0.1-0.2-0.3-0.4-0.5-0.5
	s-0.5-0.1-0.7,0l-0.2,0.1l-0.4,0.1c-0.3,0.1-0.5,0.2-0.8,0.3s-0.5,0.2-0.8,0.3c-1.1,0.4-2.1,0.9-3.1,1.5c-0.5,0.3-1,0.6-1.5,0.9
	c-0.2,0.1-0.5,0.3-0.7,0.5l-0.4,0.3c-0.1,0.1-0.2,0.2-0.4,0.3c-0.1,0.1-0.2,0.2-0.2,0.3c-0.1,0.1-0.1,0.3-0.2,0.5
	c-0.1,0.4,0.1,0.6,0.1,0.8c0,0.1,0.1,0.2,0.1,0.2l0.1,0.2l0.2,0.4l0.7,1.5l0.7,1.5l0.2,0.4l0.1,0.1c0,0,0.1,0.1,0.1,0.1
	c0.1,0.1,0.1,0.2,0.2,0.3c0.1,0.1,0.2,0.2,0.4,0.3c0.2,0.1,0.3,0.1,0.5,0.1c0.3,0,0.5,0,0.7,0c0.7-0.1,1.5-0.3,2.3-0.4
	c0,3.3,0,6.6,0.1,9.9v1.2v0.3v0.1v0.2c0,0.1,0,0.1,0,0.2c0,0.1,0,0.1,0.1,0.2c0.1,0.2,0.1,0.4,0.3,0.6c0.2,0.2,0.4,0.3,0.6,0.4
	c0.2,0.1,0.4,0.1,0.5,0.1c0.1,0,0.1,0,0.2,0h0.1h0.3h1.2c2,0,4,0,6.1,0h3h0.7h0.2h0.2h0.1h0.1c0.1,0,0.1,0,0.1,0
	c0.1,0,0.2,0,0.3-0.1c0.1,0,0.1,0,0.2-0.1c0.1,0,0.1-0.1,0.2-0.1c0.1-0.1,0.3-0.2,0.4-0.4c0.2-0.3,0.3-0.6,0.3-0.7
	c0-0.2,0-0.4,0-0.5v-0.4c0-3.7,0-7.4-0.1-11c0.6,0.1,1.1,0.2,1.7,0.3l0.7,0.1c0.1,0,0.3,0,0.6,0c0.2,0,0.5-0.1,0.7-0.3
	c0.2-0.2,0.3-0.4,0.4-0.5c0-0.1,0.1-0.1,0.1-0.2l0.1-0.1l0.3-0.6c0.6-1.3,1-2.5,1.3-3.4c0-0.1,0.1-0.3,0.1-0.4
	C-183.3,414.8-183.3,414.6-183.3,414.4z M-209.1,414.6L-209.1,414.6L-209.1,414.6L-209.1,414.6z"/>
</svg>
