<?xml version="1.0" encoding="utf-8"?>
<!-- Generator: Adobe Illustrator 19.0.0, SVG Export Plug-In . SVG Version: 6.00 Build 0)  -->
<svg version="1.1" id="Слой_1" xmlns="http://www.w3.org/2000/svg" xmlns:xlink="http://www.w3.org/1999/xlink" x="0px" y="0px"
	 viewBox="-269 405.4 32 32" style="enable-background:new -269 405.4 32 32;" xml:space="preserve">
<style type="text/css">
	.st0{fill:#9DAAC1;}
</style>
<g>
	<g>
		<g>
			<path class="st0" d="M-249.3,433.4h-7.5c-2,0-3.6-1.6-3.6-3.6v-9.3c-1.3,0.6-3,0.4-4-0.6l-0.9-0.9c-0.7-0.6-1.1-1.5-1.1-2.5
				s0.3-1.9,1-2.6c0.4-0.4,3.5-3.1,4.5-3.7c1-0.6,2.2-0.6,3.2-0.7c0.3,0,0.6-0.1,0.9-0.1h0.1c0.2,0,0.4,0.1,0.5,0.2s0.2,0.3,0.2,0.5
				c0.1,1.6,1.4,2.9,3,2.9c1.6,0,2.9-1.3,3-2.9c0-0.2,0.1-0.4,0.2-0.5c0.1-0.1,0.3-0.2,0.5-0.2h0.1c0.3,0.1,0.6,0.1,0.9,0.1
				c1,0.1,2.2,0.1,3.2,0.7c1,0.6,4.1,3.3,4.4,3.6c1.4,1.5,1.4,3.8-0.1,5.2l-0.8,0.9c-0.7,0.7-1.6,1-2.5,1l0,0c-0.6,0-1-0.1-1.5-0.3
				v9.3C-245.6,431.8-247.3,433.4-249.3,433.4z M-259.8,417.2L-259.8,417.2c0.4,0,0.7,0.3,0.7,0.7v11.9c0,1.3,1,2.3,2.3,2.3h7.5
				c1.3,0,2.3-1,2.3-2.3v-12c0-0.4,0.3-0.7,0.7-0.7l0,0c0.4,0,0.7,0.3,0.7,0.7v1.1c0.9,0.7,2.2,0.7,3.1-0.1l0.8-0.9
				c1-0.9,1-2.3,0.1-3.3c-1.3-1.2-3.5-3-4.1-3.4s-1.7-0.4-2.6-0.5c-0.1,0-0.2,0-0.4,0c-0.4,2-2.1,3.5-4.2,3.5s-3.8-1.5-4.2-3.5
				c-0.1,0-0.2,0-0.4,0c-1,0.1-2,0.1-2.8,0.5c-0.7,0.4-2.9,2.3-4.2,3.5c-0.4,0.4-0.6,1-0.6,1.6c0,0.6,0.3,1.2,0.7,1.6l0.9,0.9
				c0.4,0.4,0.9,0.6,1.5,0.6c0.6,0,1.1-0.2,1.5-0.6v-1.1C-260.4,417.5-260.1,417.2-259.8,417.2z"/>
		</g>
	</g>
</g>
</svg>
