<?xml version="1.0" encoding="utf-8"?>
<!-- Generator: Adobe Illustrator 19.0.0, SVG Export Plug-In . SVG Version: 6.00 Build 0)  -->
<svg version="1.1" id="Слой_1" xmlns="http://www.w3.org/2000/svg" xmlns:xlink="http://www.w3.org/1999/xlink" x="0px" y="0px"
	 viewBox="-213 405.4 32 32" style="enable-background:new -213 405.4 32 32;" xml:space="preserve">
<style type="text/css">
	.st0{fill:#2D2D2D;}
	.st1{display:none;}
	.st2{display:inline;fill:#2D2D2D;}
	.st3{display:inline;}
	.st4{display:none;fill:#2D2D2D;}
</style>
<g>
	<g>
		<path class="st0" d="M-185.4,412.7h-23.2c-0.6,0-1-0.5-1-1l0,0c0-0.6,0.5-1,1-1h23.2c0.6,0,1,0.5,1,1l0,0
			C-184.3,412.3-184.8,412.7-185.4,412.7z"/>
		<path class="st0" d="M-208.6,431.7h23.2c0.6,0,1-0.5,1-1l0,0c0-0.6-0.5-1-1-1h-23.2c-0.6,0-1,0.5-1,1l0,0
			C-209.6,431.3-209.2,431.7-208.6,431.7z"/>
		<path class="st0" d="M-208.6,422.2h13.7c0.6,0,1-0.5,1-1l0,0c0-0.6-0.5-1-1-1h-13.7c-0.6,0-1,0.5-1,1l0,0
			C-209.6,421.7-209.2,422.2-208.6,422.2z"/>
	</g>
	<g class="st1">
		<path class="st2" d="M-197.2,433.2c-0.2,0-0.5-0.1-0.6-0.3c-0.5-0.5-11.4-11.5-11.4-17.6c0-4,2.6-6.7,6.4-6.7
			c2.1,0,3.8,0.8,5.1,2.1c0.4,0.4,1.1,0.4,1.4,0c1.2-1.3,3-2.1,5.1-2.1c3.9,0,6.7,2.9,6.7,7c0,2.5-2.1,6.2-6.1,11
			c-2.9,3.4-5.9,6.3-5.9,6.3C-196.7,433.1-196.9,433.2-197.2,433.2z M-202.8,410.5c-2.8,0-4.6,1.9-4.6,4.9c0,3.9,6,11.1,9.6,14.9
			c0.4,0.4,1,0.4,1.4,0c3.7-3.7,10.1-11,10.1-14.6c0-3.1-1.9-5.1-4.9-5.1c-2.9,0-4.9,1.9-4.9,4.6c0,0.5-0.4,0.9-0.9,1
			c-0.5,0-1-0.4-1-0.9C-197.9,412.4-199.9,410.5-202.8,410.5z"/>
	</g>
	<g class="st1">
		<g class="st3">
			<path class="st0" d="M-199.3,434.8c-0.2,0-0.3,0-0.5-0.1c-0.4-0.2-0.6-0.6-0.6-1l0.5-6.7c0-0.6,0.5-1,1.1-1c0.6,0,1,0.5,1,1.1
				l-0.1,1.6c0,0.3,0.3,0.4,0.5,0.2l5.4-8.3c0.1-0.2,0-0.4-0.2-0.4h-3.6c-0.2,0-0.4,0-0.5-0.1c-0.4-0.2-0.6-0.6-0.5-1.1l0.6-4.9
				c0-0.3-0.3-0.4-0.5-0.2l-5,7.5c-0.1,0.2,0,0.4,0.2,0.4h3c0.5,0,1,0.4,1.1,0.9c0.1,0.6-0.4,1.1-1,1.1h-5.5c-0.3,0-0.5-0.1-0.7-0.3
				c-0.4-0.4-0.4-0.9-0.2-1.3l9.5-14.1c0.2-0.3,0.6-0.5,1-0.5c0.6,0.1,1,0.6,0.9,1.2l-1.2,9.2h4.8c0.3,0,0.5,0.1,0.7,0.3
				c0.4,0.4,0.4,0.9,0.2,1.3l-9.5,14.7C-198.7,434.6-199,434.8-199.3,434.8z"/>
		</g>
	</g>
	<g class="st1">
		<path class="st2" d="M-183.6,433.1l-7.6-8c-0.4,0.5-0.9,1-1.5,1.5l7.6,7.9c0.4,0.4,1.1,0.4,1.5-0.1
			C-183.2,434.1-183.2,433.5-183.6,433.1z"/>
		<path class="st2" d="M-192.7,424.2c-1.8,2.1-4.5,3.4-7.5,3.2c-4.6-0.3-8.3-4.1-8.4-8.7c-0.1-5.2,4.2-9.5,9.5-9.2
			c4.3,0.2,7.9,3.6,8.4,7.9c0.1,1.3,0,2.6-0.4,3.7c-0.1,0.4,0,0.8,0.2,1l0,0c0.5,0.6,1.5,0.4,1.8-0.4c0.4-1.3,0.6-2.7,0.5-4.2
			c-0.4-5.5-4.9-10-10.5-10.3c-6.3-0.3-11.5,4.6-11.6,10.8c-0.1,6,4.7,11.1,10.7,11.3c3.7,0.1,7-1.6,9.1-4.2l-1.1-1.1
			C-192.2,424-192.5,424-192.7,424.2z"/>
	</g>
	<g class="st1">
		<g class="st3">
			<g>
				<path class="st0" d="M-194.8,431.7c-0.2,0-0.4,0.1-0.6,0.3c-0.4,0.5-1,0.8-1.6,0.8s-1.2-0.3-1.6-0.8c-0.1-0.2-0.4-0.3-0.6-0.3
					s-0.5,0-0.7,0c-0.6,0-1,0.6-0.7,1.1c0.7,1.2,2.1,2,3.6,2s2.9-0.8,3.6-2c0.3-0.5-0.1-1.2-0.7-1.1
					C-194.3,431.7-194.5,431.7-194.8,431.7z"/>
			</g>
			<path class="st0" d="M-188.6,424.7L-188.6,424.7L-188.6,424.7c-0.3-0.2-1.8-1.5-1.8-7c0-1.9-0.3-3.4-0.9-4.5
				c-0.3-0.6-1.2-0.7-1.7-0.2c0,0,0,0,0,0c-0.3,0.3-0.3,0.8-0.1,1.2c0.4,0.7,0.6,1.9,0.6,3.5c0,7,2.3,8.5,3,8.8
				c0.7,0.4,0.7,0.7,0.7,0.9c0,0.1-0.1,0.4-0.2,0.5c0,0-1.2,0.5-7.9,0.5c-6.8,0-7.9-0.5-7.9-0.5c-0.1-0.1-0.2-0.4-0.2-0.5
				c0-0.2,0-0.5,0.7-0.9c0.5-0.3,2.7-1.8,2.7-8.8c0-3.2,0.8-5,4.8-5c1.2,0,2.3-0.7,2.8-1.7c-0.8-0.2-1.8-0.4-2.8-0.4
				c-4.7,0-6.8,2.3-6.8,7.1c0,5.7-1.4,6.9-1.6,7c-1.2,0.7-1.9,1.6-1.9,2.8c0,0.8,0.5,2.1,1.5,2.5c0.6,0.4,2.2,0.7,8.8,0.7
				c6.6,0,8.2-0.3,8.8-0.7c1-0.4,1.5-1.7,1.5-2.5C-186.7,426.3-187.3,425.4-188.6,424.7z"/>
			<path class="st0" d="M-197,408.5c0.6,0,1,0.5,1,1s-0.5,1-1,1c-0.6,0-1-0.5-1-1S-197.6,408.5-197,408.5 M-197,406.4
				c-1.8,0-3.2,1.4-3.2,3.2s1.4,3.2,3.2,3.2s3.2-1.4,3.2-3.2S-195.2,406.4-197,406.4L-197,406.4z"/>
		</g>
	</g>
	<g class="st1">
		<g class="st3">
			<path class="st0" d="M-189.6,433.3c-0.2,0-0.5-0.1-0.7-0.3l-4.7-4.2c-0.2-0.2-0.4-0.3-0.7-0.3h-10.8c-1.8,0-3.2-1.4-3.2-3.2
				v-12.6c0-1.8,1.4-3.2,3.2-3.2h19c1.8,0,3.2,1.4,3.2,3.2v12.6c0,1.8-1.4,3.2-3.2,3.2h-2.1c-0.6,0-1-0.5-1-1c0-0.6,0.5-1,1-1h2.1
				c0.6,0,1-0.5,1-1v-12.7c0-0.6-0.5-1-1-1h-18.9c-0.6,0-1,0.5-1,1v12.6c0,0.6,0.5,1,1,1h10.8c0.8,0,1.5,0.3,2.1,0.8l4.7,4.2
				c0.4,0.4,0.5,1,0.1,1.5C-189,433.2-189.3,433.3-189.6,433.3z"/>
		</g>
	</g>
	<path class="st4" d="M-188,416.4L-188,416.4c0-5-4-8.9-9-8.9s-8.9,3.9-9,8.9l0,0l0,0l0,0l0,0c0,6.8,8,13.7,8.3,14
		c0.2,0.2,0.4,0.3,0.7,0.3s0.5-0.1,0.7-0.3C-196,430.1-188,423.3-188,416.4L-188,416.4C-188,416.5-188,416.5-188,416.4
		C-188,416.5-188,416.4-188,416.4z M-196.2,427.4c-0.4,0.4-1.1,0.4-1.5,0c-2.2-2.2-6.1-6.8-6.1-11c0-3.7,3.1-6.8,6.8-6.8
		s6.8,3.1,6.8,6.8C-190.1,420.7-194,425.2-196.2,427.4z M-188,430.6c0,2.8-4.5,4.2-9,4.2s-9-1.4-9-4.2c0-1.3,1-2.3,2.5-3
		c0.4-0.2,0.9-0.1,1.2,0.3c0,0,0,0,0,0c0.4,0.5,0.3,1.3-0.4,1.6c-0.8,0.4-1.2,0.8-1.2,1.1c0,0.6,2.3,2.1,6.8,2.1
		c4.5,0,6.8-1.5,6.8-2.1c0-0.3-0.4-0.7-1.2-1.1c-0.6-0.3-0.8-1.1-0.4-1.6c0,0,0,0,0,0c0.3-0.3,0.8-0.5,1.2-0.3
		C-189,428.4-188,429.4-188,430.6z M-197,412.7c-2,0-3.7,1.7-3.7,3.7c0,2,1.7,3.7,3.7,3.7s3.7-1.7,3.7-3.7S-195,412.7-197,412.7z
		 M-197,418c-0.9,0-1.6-0.7-1.6-1.6s0.7-1.6,1.6-1.6s1.6,0.7,1.6,1.6S-196.1,418-197,418z"/>
	<g class="st1">
		<path class="st2" d="M-197,426.7c-3,0-5.5-2.5-5.5-5.5c0-3,2.5-5.5,5.5-5.5s5.5,2.5,5.5,5.5c0,0.4-0.1,0.9-0.2,1.3
			c-0.1,0.6-0.7,0.9-1.3,0.8c-0.6-0.1-0.9-0.7-0.8-1.3c0.1-0.3,0.1-0.5,0.1-0.8c0-1.9-1.6-3.4-3.4-3.4s-3.4,1.6-3.4,3.4
			s1.6,3.4,3.4,3.4c0.4,0,0.8-0.1,1.2-0.2c0.5-0.2,1.1,0.1,1.3,0.6c0.2,0.5-0.1,1.1-0.6,1.3C-195.7,426.6-196.3,426.7-197,426.7z
			 M-192.9,431.7v-1l0.6,0.7c0.6,0.6,1.4,0.9,2.2,0.9s1.6-0.3,2.2-0.9l1.1-1.1c0.6-0.6,0.9-1.4,0.9-2.2s-0.3-1.6-0.9-2.2l-0.7-0.7h1
			c1.8,0,3.3-1.5,3.3-3.3v-1.6c0-1.8-1.6-3.3-3.3-3.3h-1l0.7-0.6c1.2-1.2,1.2-3.2,0-4.5l-1.1-1.1c-0.6-0.6-1.4-0.9-2.2-0.9
			s-1.6,0.3-2.2,0.9l-0.6,0.7v-1c0-1.8-1.5-3.3-3.3-3.3h-1.6c-1.8,0-3.3,1.6-3.3,3.3v1l-0.6-0.7c-0.6-0.6-1.4-0.9-2.2-0.9
			c-0.8,0-1.6,0.3-2.2,0.9l-1.1,1.1c-1.2,1.2-1.2,3.2,0,4.4l0.7,0.6h-1c-1.7,0-3.2,1.5-3.2,3.3v1.6c0,1.8,1.6,3.3,3.3,3.3h1
			l-0.7,0.6c-1.2,1.2-1.2,3.2,0,4.5l1.1,1.1c0.6,0.6,1.4,0.9,2.2,0.9c0.8,0,1.6-0.3,2.2-0.9l0.6-0.7v1c0,1.8,1.5,3.3,3.3,3.3h1.6
			C-194.5,435-192.9,433.4-192.9,431.7z M-202.1,428.9l-1,1c-0.2,0.2-0.5,0.3-0.7,0.3c-0.3,0-0.5-0.1-0.7-0.3l-1.1-1.1
			c-0.4-0.4-0.4-1.1,0-1.5l1-1c0.5-0.5,0.7-1.4,0.4-2.2c-0.3-0.7-1-1.2-1.8-1.2h-1.5c-0.6,0-0.9-0.3-0.9-0.9v-1.6
			c0-0.6,0.3-0.9,0.9-0.9h1.5c0.8,0,1.4-0.5,1.8-1.3v0c0.3-0.7,0.1-1.6-0.4-2.1l-1.1-1c-0.4-0.4-0.4-1.1,0-1.5l1.1-1.1
			c0.2-0.2,0.5-0.3,0.7-0.3s0.5,0.1,0.7,0.3l0.9,0.9c0.4,0.4,0.9,0.6,1.5,0.6c0.3,0,0.5-0.1,0.8-0.1l0,0h0.1
			c0.6-0.3,1.1-0.9,1.1-1.6v-1.6c0-0.6,0.3-0.9,0.9-0.9h1.6c0.6,0,0.9,0.3,0.9,0.9v1.5c0,0.8,0.5,1.4,1.3,1.8
			c0.2,0.1,0.5,0.1,0.8,0.1c0.5,0,1-0.2,1.3-0.5l1-1c0.2-0.2,0.5-0.3,0.7-0.3c0.3,0,0.5,0.1,0.7,0.3l1.1,1.1c0.4,0.4,0.4,1.1,0,1.5
			l-1,1c-0.5,0.5-0.7,1.4-0.4,2.2c0.3,0.7,1,1.2,1.8,1.2h1.5c0.6,0,0.9,0.3,0.9,0.9v1.6c0,0.6-0.3,0.9-0.9,0.9h-1.5
			c-0.8,0-1.4,0.5-1.8,1.2v0v0c-0.3,0.7-0.1,1.5,0.4,2.1l1,1c0.4,0.4,0.4,1.1,0,1.5l-1.1,1.1c-0.2,0.2-0.5,0.3-0.7,0.3
			s-0.5-0.1-0.7-0.3l-1-1c-0.4-0.4-0.8-0.5-1.3-0.5c-0.2,0-0.5,0-0.7,0.1h-0.1c-0.7,0.3-1.2,1-1.2,1.8v1.5c0,0.6-0.3,0.9-0.9,0.9
			h-1.6c-0.6,0-0.9-0.3-0.9-0.9v-1.5c0-0.8-0.5-1.4-1.3-1.8c-0.2-0.1-0.5-0.1-0.8-0.1C-201.2,428.3-201.7,428.5-202.1,428.9z"/>
	</g>
	<g class="st1">
		<path class="st2" d="M-187.5,429.6c-0.3,0-0.5-0.1-0.7-0.3l-3.9-3.9h-9c-1.8,0-3.2-1.4-3.2-3.2v-9.5c0-1.8,1.4-3.2,3.2-3.2h14.8
			c1.8,0,3.2,1.4,3.2,3.2v9.5c0,1.8-1.4,3.2-3.2,3.2h-0.3c-0.6,0-1-0.5-1-1s0.5-1,1-1h0.3c0.6,0,1-0.5,1-1v-9.5c0-0.6-0.5-1-1-1
			h-14.8c-0.6,0-1,0.5-1,1v9.5c0,0.6,0.5,1,1,1h9.5c0.3,0,0.5,0.1,0.7,0.3l4.2,4.2c0.4,0.4,0.4,1.1,0,1.5
			C-187,429.5-187.2,429.6-187.5,429.6z M-205.4,428.6c0-0.6-0.5-1-1-1h-1c-0.6,0-1-0.5-1-1v-9.2c0-0.6,0.5-1,1-1h1c0.6,0,1-0.5,1-1
			s-0.5-1-1-1h-1c-1.8,0-3.2,1.4-3.2,3.2v9.2c0,1.8,1.4,3.2,3.2,3.2h1C-205.9,429.6-205.4,429.1-205.4,428.6z M-204.7,433.5l3.9-3.9
			h8c0.6,0,1-0.5,1-1s-0.5-1-1-1h-8.4c-0.3,0-0.5,0.1-0.7,0.3l-4.2,4.2c-0.4,0.4-0.4,1.1,0,1.5c0.2,0.2,0.5,0.3,0.7,0.3
			S-204.9,433.7-204.7,433.5z"/>
	</g>
	<g class="st1">
		<path class="st2" d="M-195.9,434.9c-0.3,0-0.7-0.2-1-0.6c-0.1-0.1-0.1-0.2-0.1-0.3v-7.9c0-0.1,0.1-0.3,0.2-0.4
			c0.9-0.8,2-0.2,2,0.7v1.3c0,0.3,0.4,0.4,0.5,0.1c2.3-5.1,5.7-12.4,7.6-16.6c0.1-0.2-0.1-0.4-0.3-0.3l-17,7.7
			c-0.3,0.1-0.2,0.5,0.1,0.5h7c1.2,0,2.1,0.9,2.1,2.2v1.3c0,0.1-0.1,0.3-0.2,0.4c-0.9,0.8-2,0.2-2-0.7v-0.5c0-0.3-0.2-0.5-0.5-0.5
			h-12.9c-0.1,0-0.2,0-0.3-0.1c-0.8-0.6-0.6-1.6,0.1-2l25.8-11.6c0.6-0.3,1.4,0.1,1.5,1c0,0.1,0,0.1,0,0.2
			c-3.9,8.5-11.5,25.1-11.7,25.5S-195.5,434.9-195.9,434.9z"/>
	</g>
	<g class="st1">
		<path class="st2" d="M-185.5,423.5c-2,2-6.2,5.4-11.8,5.4c-5.8,0-10-3.5-12-5.6c-0.4-0.4-0.4-1.1,0-1.5c0.4-0.4,1.1-0.4,1.5,0
			c1.8,1.9,5.5,5,10.5,5c4.9,0,8.6-3,10.3-4.7c0.4-0.4,1.1-0.4,1.5,0C-185,422.4-185,423.1-185.5,423.5z M-186,419.8
			c-0.4,0.2-0.9,0.1-1.2-0.2c-1.1-1-2.5-2.2-4.3-3.1c-0.2-0.1-0.4,0.1-0.3,0.3c0.2,0.6,0.4,1.3,0.4,2c0,3.6-3.3,6.4-7,5.7
			c-2.2-0.5-3.9-2.2-4.4-4.4c-0.2-1.2-0.1-2.3,0.2-3.3c0.1-0.2-0.1-0.4-0.3-0.3c-1.8,0.9-3.2,2.1-4.3,3.1c-0.2,0.2-0.5,0.3-0.7,0.3
			c-0.4,0-0.8-0.2-1-0.7c-0.2-0.4,0-0.8,0.3-1.1c2.4-2.3,6.3-5.1,11.5-5.1c5.2,0,9.1,2.7,11.5,5C-185.2,418.5-185.3,419.4-186,419.8
			z M-193.6,419.5c0.3-0.9-0.5-1.7-1.4-1.4c-0.3,0.1-0.5,0.3-0.6,0.6c-0.3,0.9,0.5,1.7,1.4,1.4
			C-193.9,419.9-193.7,419.7-193.6,419.5z"/>
	</g>
	<g class="st1">
		<path class="st2" d="M-188.6,426.4c-1.2,0-2.2,0.5-3,1.2l-9.7-5.6c0.1-0.3,0.1-0.6,0.1-0.9c0-0.4-0.1-0.9-0.2-1.2l9.8-5.3
			c0.8,0.8,1.9,1.3,3.1,1.3c2.3,0,4.2-1.9,4.2-4.2s-1.9-4.2-4.2-4.2s-4.2,1.9-4.2,4.2c0,0.4,0,0.7,0.1,1l-9.9,5.4
			c-0.7-0.7-1.8-1.2-2.9-1.2c-2.3,0-4.2,1.9-4.2,4.2s1.9,4.2,4.2,4.2c1.2,0,2.4-0.6,3.2-1.4l9.6,5.6c-0.1,0.4-0.2,0.7-0.2,1.1
			c0,2.3,1.9,4.2,4.2,4.2s4.2-1.9,4.2-4.2S-186.2,426.4-188.6,426.4z M-188.6,409.6c1.1,0,2.1,0.9,2.1,2.1c0,1.1-0.9,2.1-2.1,2.1
			c-0.8,0-1.5-0.4-1.9-1.1l0,0c-0.2-0.3-0.3-0.6-0.3-1C-190.6,410.5-189.7,409.6-188.6,409.6z M-205.4,423.3c-1.1,0-2.1-0.9-2.1-2.1
			c0-1.1,0.9-2.1,2.1-2.1s2.1,0.9,2.1,2.1C-203.3,422.3-204.3,423.3-205.4,423.3z M-188.6,432.8c-1.1,0-2.1-0.9-2.1-2.1
			c0-1.1,0.9-2.1,2.1-2.1c1.1,0,2.1,0.9,2.1,2.1C-186.5,431.8-187.4,432.8-188.6,432.8z"/>
	</g>
	<g class="st1">
		<path class="st2" d="M-201.4,413c-0.4-0.4-0.4-1.1,0-1.6l3.7-3.7c0.4-0.4,1.1-0.4,1.5,0l3.7,3.7c0.4,0.4,0.4,1.1,0,1.6
			c-0.2,0.2-0.4,0.3-0.7,0.3s-0.6-0.1-0.8-0.3l-1.9-2v13.3c0,0.6-0.4,1-1,1c-0.6,0-1-0.5-1-1v-13.3l-2,1.9c-0.2,0.2-0.5,0.3-0.7,0.3
			C-201,413.3-201.2,413.2-201.4,413z M-188.6,414.4h-3.4c-0.5,0-1,0.4-1.1,0.9c-0.1,0.6,0.4,1.1,1,1.1h2.9c0.3,0,0.5,0.2,0.5,0.5
			v15.3c0,0.3-0.2,0.4-0.5,0.4h-15.8c-0.3,0-0.5-0.1-0.5-0.4V417c0-0.3,0.2-0.5,0.5-0.5h2.8c0.5,0,1-0.4,1.1-0.9
			c0.1-0.6-0.4-1.1-1-1.1h-3.4c-1.2,0-2,0.8-2,2v16.3c0,1.2,0.8,2.2,2,2.2h16.9c1.2,0,2-1.1,2-2.2v-16.3
			C-186.5,415.3-187.4,414.4-188.6,414.4z"/>
	</g>
	<g class="st1">
		<path class="st2" d="M-197,418c-0.6,0-1-0.5-1-1v-8.4c0-0.6,0.4-1,1-1c0.6,0,1,0.5,1,1v8.4C-196,417.5-196.4,418-197,418z
			 M-184.9,422.8c0-5-2.9-9.4-7.5-11.3c-0.5-0.2-1.1,0-1.4,0.6c-0.2,0.5,0,1.1,0.6,1.4c3.7,1.5,6.2,5.2,6.2,9.3c0,5.5-4.5,10-10,10
			s-10-4.5-10-10c0-4.1,2.4-7.7,6.2-9.3c0.5-0.2,0.8-0.8,0.6-1.4c-0.2-0.5-0.8-0.8-1.4-0.6c-4.6,1.9-7.5,6.3-7.5,11.2
			c0,6.7,5.4,12.1,12.1,12.1S-184.9,429.4-184.9,422.8z"/>
	</g>
	<g class="st1">
		<path class="st2" d="M-187.6,413.2l3.3-3.3c0.4-0.4,0.4-1,0.1-1.4c-0.4-0.5-1.1-0.5-1.6-0.1l-3.4,3.4l-7.2-0.6
			c-0.6-0.1-1.2,0.2-1.7,0.6l-11.6,11.5c-0.8,0.8-0.8,2.2,0,3l7.5,7.5c0.8,0.8,2.2,0.8,3,0l11.6-11.6c0.4-0.4,0.7-1,0.6-1.7
			L-187.6,413.2z M-193.9,418c0.4,0.4,0.4,1.1,0,1.5c-0.4,0.4-1.1,0.4-1.5,0c-0.4-0.4-0.4-1.1,0-1.5S-194.3,417.6-193.9,418z
			 M-201,431.8l-6.7-6.7c-0.2-0.2-0.2-0.5,0-0.7l11-11c0.1-0.1,0.3-0.2,0.4-0.2l4.1,0.4c0.4,0,0.6,0.6,0.3,0.9l-1.5,1.4
			c-1.2-0.6-2.8-0.3-3.7,0.7c-1.1,1.2-1,3.1,0,4.2c1.2,1.3,3.3,1.3,4.6,0.1c1-1,1.2-2.4,0.6-3.6l1.5-1.5c0.3-0.3,0.8-0.1,0.9,0.3
			l0.4,4.1c0,0.2,0,0.3-0.2,0.4l-11,11.1C-200.4,432-200.8,432-201,431.8z M-200.6,427.7c-0.4,0.4-1.1,0.4-1.5,0l-1.5-1.5
			c-0.4-0.4-0.4-1.1,0-1.5c0.4-0.4,1.1-0.4,1.5,0l1.5,1.5C-200.2,426.6-200.2,427.3-200.6,427.7z M-196.1,424.7
			c0.4,0.4,0.4,1.1,0,1.5c-0.4,0.4-1.1,0.4-1.5,0l-4.5-4.5c-0.4-0.4-0.4-1.1,0-1.5s1.1-0.4,1.5,0L-196.1,424.7z"/>
	</g>
	<g class="st1">
		<path class="st2" d="M-197,432.7c-6.4,0-11.6-5.2-11.6-11.5s5.2-11.5,11.6-11.5c6.4,0,11.6,5.2,11.6,11.5c0,2.3-0.7,4.5-2,6.4
			c-0.3,0.5-0.9,0.6-1.4,0.3c-0.5-0.3-0.6-0.9-0.3-1.4c1-1.6,1.6-3.4,1.6-5.3c0-5.2-4.3-9.5-9.5-9.5c-5.2,0-9.5,4.2-9.5,9.5
			s4.2,9.5,9.5,9.5c1.9,0,3.7-0.5,5.2-1.6c0.5-0.3,1.1-0.2,1.4,0.3c0.3,0.5,0.2,1.1-0.3,1.4C-192.5,432-194.7,432.7-197,432.7z
			 M-191.7,420.6l-4.5-4.5c-0.2-0.2-0.6-0.3-0.9-0.3c-0.3,0-0.6,0.1-0.9,0.3l-4.5,4.5c-0.4,0.4-0.4,0.9-0.2,1.3
			c0.4,0.6,1.1,0.6,1.6,0.2l2.4-2.4c0.2-0.2,0.5,0,0.5,0.2v6c0,0.5,0.2,0.9,0.7,1c0.7,0.2,1.3-0.3,1.3-1v-6c0-0.2,0.3-0.3,0.5-0.2
			l2.3,2.3c0.5,0.5,1.2,0.4,1.6-0.2C-191.3,421.5-191.4,420.9-191.7,420.6z"/>
	</g>
	<g class="st1">
		<g class="st3">
			<path class="st0" d="M-187.5,415.9h-19c-1.2,0-2.1,0.9-2.1,2.1v14.8c0,1.2,0.9,2.1,2.1,2.1h19c1.2,0,2.1-0.9,2.1-2.1V418
				C-185.4,416.9-186.3,415.9-187.5,415.9z M-188,432.8H-206c-0.3,0-0.5-0.2-0.5-0.5v-13.7c0-0.3,0.2-0.5,0.5-0.5h1
				c0.3,0,0.5,0.2,0.5,0.5v11c0,0.5,0.4,1,0.9,1.1c0.6,0.1,1.1-0.4,1.1-1v-11.1c0-0.3,0.2-0.5,0.5-0.5h13.7c0.3,0,0.5,0.2,0.5,0.5
				v13.7C-187.5,432.5-187.7,432.8-188,432.8z"/>
			<path class="st0" d="M-202.2,412.7c0-1.6,1.1-2.8,2.6-3.1c0.2,0,0.4,0.2,0.3,0.4c-0.5,0.8-0.7,1.7-0.7,2.7v1c0,0.6,0.5,1,1,1l0,0
				c0.6,0,1-0.5,1-1v-1c0-0.7,0.2-1.3,0.6-1.9c0.2-0.3,0.6-0.3,0.8,0c0.4,0.5,0.6,1.2,0.6,1.9v1c0,0.6,0.5,1,1,1l0,0
				c0.6,0,1-0.5,1-1v-1c0-1-0.3-1.9-0.7-2.7c0.2-0.3,0.1-0.1,0.3-0.4c1.4,0.3,2.6,1.6,2.6,3.1v1c0,0.6,0.5,1,1,1l0,0
				c0.6,0,1-0.5,1-1v-0.9c0-2.8-2.1-5.2-4.8-5.4c-0.9-0.1-1.8,0.1-2.6,0.4l0,0c-0.8-0.3-1.7-0.5-2.6-0.4c-2.7,0.2-4.8,2.6-4.8,5.4
				v0.9c0,0.6,0.5,1,1,1l0,0c0.6,0,1-0.5,1-1v-1H-202.2z"/>
		</g>
	</g>
	<g class="st1">
		<path class="st2" d="M-189.6,419.1v13.7c0,1.2-0.9,2.1-2.1,2.1h-10.8c-1,0-1.9-0.8-1.9-1.9v-13.9c0-0.8,0.8-1.3,1.7-0.9
			c0.3,0.2,0.4,0.5,0.4,0.8v13.3c0,0.3,0.2,0.5,0.5,0.5h9.5c0.3,0,0.5-0.2,0.5-0.5V419c0-0.3,0.2-0.6,0.4-0.8
			C-190.4,417.7-189.6,418.3-189.6,419.1z M-194.9,428.6h-4.2c-0.6,0-1,0.5-1,1c0,0.6,0.5,1,1,1h4.2c0.6,0,1-0.5,1-1
			C-193.8,429-194.3,428.6-194.9,428.6z M-194.9,424.3h-4.2c-0.6,0-1,0.5-1,1s0.5,1,1,1h4.2c0.6,0,1-0.5,1-1
			S-194.3,424.3-194.9,424.3z M-194.9,420.1h-4.2c-0.6,0-1,0.5-1,1s0.5,1,1,1h4.2c0.6,0,1-0.5,1-1S-194.3,420.1-194.9,420.1z
			 M-204.4,415.9c0-0.6,0.5-1,1-1c0-2,1.3-3.6,3.2-4.1v-1.2c0-1.8,1.4-3.2,3.2-3.2s3.2,1.4,3.2,3.2v1.2c1.8,0.5,3.2,2.1,3.2,4.1
			c0.6,0,1,0.5,1,1c0,0.6-0.5,1-1,1h-12.7C-203.9,417-204.4,416.5-204.4,415.9z M-201.2,414.8h8.4c0-1.1-0.9-2.1-2.1-2.1l0,0
			c-0.6,0-1-0.5-1-1v-2.1c0-0.6-0.5-1.1-1.1-1c-0.5,0.1-0.9,0.5-0.9,1.1v2.1c0,0.6-0.5,1-1,1l0,0
			C-200.3,412.7-201.2,413.7-201.2,414.8z"/>
	</g>
	<g class="st1">
		<path class="st2" d="M-197,432.7c-6.4,0-11.6-5.2-11.6-11.5s5.2-11.5,11.6-11.5c6.4,0,11.6,5.2,11.6,11.5c0,2.3-0.7,4.5-2,6.4
			c-0.3,0.5-0.9,0.6-1.4,0.3c-0.5-0.3-0.6-0.9-0.3-1.4c1-1.6,1.6-3.4,1.6-5.3c0-5.2-4.3-9.5-9.5-9.5c-5.2,0-9.5,4.2-9.5,9.5
			s4.2,9.5,9.5,9.5c1.9,0,3.7-0.5,5.2-1.6c0.5-0.3,1.1-0.2,1.4,0.3c0.3,0.5,0.2,1.1-0.3,1.4C-192.5,432-194.7,432.7-197,432.7z
			 M-191.6,420.4c-0.4-0.6-1.1-0.6-1.6-0.2l-2.3,2.3c-0.2,0.2-0.5,0-0.5-0.2v-6c0-0.7-0.6-1.2-1.3-1c-0.4,0.1-0.7,0.6-0.7,1v6
			c0,0.2-0.3,0.3-0.5,0.2l-2.4-2.4c-0.5-0.5-1.2-0.4-1.6,0.2c-0.3,0.4-0.2,1,0.2,1.3l4.4,4.5c0.2,0.2,0.6,0.3,0.9,0.3
			c0.3,0,0.6-0.1,0.9-0.3l4.5-4.5C-191.4,421.4-191.3,420.8-191.6,420.4z"/>
	</g>
	<g class="st1">
		<path class="st2" d="M-200.2,430.6c0,1.2-0.9,2.1-2.1,2.1s-2.1-0.9-2.1-2.1c0-1.1,0.9-2.1,2.1-2.1S-200.2,429.5-200.2,430.6z
			 M-189.6,428.6c-1.2,0-2.1,0.9-2.1,2.1c0,1.1,0.9,2.1,2.1,2.1s2.1-0.9,2.1-2.1C-187.5,429.5-188.5,428.6-189.6,428.6z
			 M-201.2,413.8c-0.5,0-1.1,0.3-1.1,1c0,0.7,0.4,1,1,1h14.8c0.3,0,0.6,0.4,0.5,0.7l-1.4,5.5c0,0.2-0.2,0.4-0.4,0.4l-13.4,2.7
			c-0.3,0.1-0.5-0.1-0.6-0.4l-3.8-13.3c-0.1-0.4-0.5-0.7-1-0.7h-3.1c-0.5,0-1,0.4-1.1,0.9c-0.1,0.6,0.4,1.1,1,1.1h2
			c0.2,0,0.4,0.2,0.5,0.4l3.6,12.7c0.3,1.1,1.4,1.7,2.5,1.5l14.2-2.9c0.8-0.2,1.4-0.8,1.6-1.6l1.8-7.1c0.2-1-0.5-2-1.6-2
			C-185,413.8-201.2,413.8-201.2,413.8z"/>
	</g>
	<g class="st1">
		<path class="st2" d="M-194.9,417c0,1.2-0.9,2.1-2.1,2.1s-2.1-0.9-2.1-2.1s0.9-2.1,2.1-2.1S-194.9,415.8-194.9,417z M-196.3,436.7
			c0.2-0.2,0.8-0.7,1.2-0.9l0.1-0.1c0.7-0.5,2.2-1.4,2.2-3.9l0,0c0-0.6-0.5-1-1-1l0,0c-0.6,0-1,0.5-1,1l0,0c0,1.4-0.6,1.8-1.2,2.2
			l-0.1,0.1c-0.2,0.2-0.5,0.4-0.7,0.5c-0.2-0.2-0.5-0.4-0.7-0.5l-0.1-0.1c-0.7-0.5-1.2-0.8-1.2-2.2l0,0c0-0.6-0.5-1-1-1l0,0
			c-0.6,0-1,0.5-1,1l0,0c0,2.6,1.3,3.4,2.2,4l0.1,0.1c0.5,0.3,1.1,0.9,1.1,0.9l0.7,0.7L-196.3,436.7z M-186.2,428.6
			c0,1-0.3,2-0.8,2.9c-0.2,0.3-0.5,0.4-0.8,0.5c0,0,0,0-0.1,0c-0.3,0-0.6-0.1-0.8-0.4c-1.2-1.4-2.4-1.9-4.3-1.9c-0.1,0-0.1,0-0.2,0
			v0h-2.7v1c0,0.6-0.4,1-1,1c-0.6,0-1-0.5-1-1v-1h-2.2c-1.9,0-3.1,0.5-4.3,1.9c-0.2,0.2-0.5,0.4-0.8,0.4c0,0,0,0-0.1,0
			c-0.3,0-0.6-0.2-0.8-0.5c-0.5-0.8-0.8-1.9-0.8-2.9c0-2.5,1.7-4.5,4-5.1c-0.2-1-0.3-2.1-0.3-3.3c0-5.2,3.3-12.6,6.3-12.6
			c2,0,3.6,2.8,4.4,4.5c1.2,2.6,2,5.7,2,8.2c0,1.2-0.1,2.2-0.2,3.2C-188.2,423.6-186.2,425.8-186.2,428.6z M-201.8,427.6
			c-0.2-0.4-0.4-1-0.6-1.6c-0.1-0.3-0.4-0.5-0.7-0.3c-1,0.5-1.8,1.6-1.8,2.8c0,0.1,0,0.3,0,0.4C-204,428.3-203,427.8-201.8,427.6z
			 M-194.4,427.6c0.5-1,1.7-3.7,1.7-7.4c0-2.2-0.6-5-1.8-7.3c-1.1-2.5-2.2-3.3-2.5-3.3c-0.9,0-4.2,5.6-4.2,10.5
			c0,1.4,0.2,2.6,0.4,3.7c0.1,0.2,0.1,0.3,0.1,0.5c0,0,0,0.1,0,0.1c0.4,1.5,0.8,2.5,1.1,3.1h1.5v-3.2c0-0.6,0.4-1,1-1
			c0.6,0,1,0.5,1,1v3.3H-194.4z M-188.3,428.6c0-1.6-1.1-2.8-2.6-3.1c-0.3,0-0.5,0.1-0.6,0.4c-0.2,0.7-0.4,1.2-0.6,1.7
			c1.5,0.1,2.7,0.6,3.8,1.4C-188.3,428.8-188.3,428.7-188.3,428.6z"/>
	</g>
	<g class="st1">
		<path class="st2" d="M-197,407.5c-7.6,0-13.7,6.1-13.7,13.7s6.1,13.7,13.7,13.7s13.7-6.1,13.7-13.7S-189.4,407.5-197,407.5z
			 M-187.3,414.8c-0.2,0-0.4,0-0.6,0c-0.2,0-0.4,0-0.6,0c-0.5,0-0.9-0.1-1-0.2c0-1.1,0.2-1.6,0.5-2
			C-188.4,413.3-187.8,414.1-187.3,414.8z M-200,410c0,0,0.4,0.7,0.5,0.8c0.1,0,0.1,0.1,0.1,0.2c0,0,0,0,0,0.1c0,0.3,0,1,0.7,1.5
			c0.4,0.3,0.8,0.3,1.2,0.3c0.1,0,0.3,0,0.4,0c0,0.6-0.2,0.9-0.4,1.2c-0.3,0.4-0.6,0.9-0.6,1.7c-0.3,0-0.8,0-1,0
			c-1.3,0-3.2,1.1-3.2,3.2c0,2.2,1.6,3.2,3.2,3.2c0.5,0,1.2,0.3,1.7,0.6c0.2,0.2,0.5,0.3,0.5,1.6c0,0.6,0,0.9-1.8,2.4
			c-1.2,1-2.3,2.6-3.1,3.9c-0.7-1.1-1.5-3.3-1.5-4.2c0-1,0.2-1.4,0.5-1.9c0.2-0.3,0.3-0.5,0.5-0.9c0.5-1.4,0-2.9-1.3-4.2
			c-0.2-0.2-0.5-0.5-0.7-0.7c-0.7-0.6-1-0.9-1-1.7c0,0-0.2-2-0.3-2.9c0-0.4,0.3-0.8,0.3-0.8S-202.4,410.6-200,410z M-208.5,421.2
			c0-1.7,0.4-3.3,1.1-4.8v0.6c0,1.9,1,2.7,1.8,3.4c0.2,0.2,0.4,0.3,0.6,0.5c0.7,0.7,1,1.4,0.8,2.1c0,0.1-0.1,0.3-0.3,0.5
			c-0.4,0.6-0.8,1.4-0.8,3c0,0.6,0.4,2.1,1,3.6C-206.9,427.9-208.5,424.7-208.5,421.2z M-200.4,432.2c0.7-1.2,2-3,3.1-3.9
			c1.8-1.6,2.5-2.4,2.5-4c0-1.6-0.4-2.5-1.3-3.2c-0.7-0.6-2-1-2.9-1c-1,0-1-0.7-1-1c0-0.7,0.8-1,1-1c1.2,0,2,0,2.6-0.7
			c0.4-0.4,0.5-0.8,0.5-1.4c0-0.2,0-0.2,0.2-0.5c0.3-0.5,0.8-1.2,0.8-2.6c0-1.8-1.8-1.9-2.4-2v0c-0.1-0.4-0.2-0.8-0.4-1.1
			c0.2,0,0.5,0,0.7,0c2.3,0,4.4,0.7,6.2,1.8c-0.8,1-0.9,2.3-0.9,3.4c0,1.3,1.2,2.1,3.2,2.1c0.2,0,0.4,0,0.6,0c0.5,0,1,0,1.4,0h0
			c0.1,0,0.2,0,0.2,0c0.1,0.3,0.3,0.7,0.4,1.1c-2.3,0-6.9,0.3-6.9,4.2c0,2.5,1.3,3.3,2.2,3.8c0.1,0.1,0.3,0.2,0.4,0.2
			c0.2,0.1,0.5,0.8,0.6,3.4c0,0.2,0,0.3,0,0.4c-2,1.7-4.6,2.7-7.4,2.7C-198.5,432.8-200.4,432.2-200.4,432.2z M-187.6,428
			c-0.1-1.5-0.5-2.8-1.4-3.4c-0.2-0.1-0.4-0.2-0.5-0.3c-0.7-0.4-1.1-0.7-1.1-2c0-1.1,0.6-2.1,5.2-2.1c0,0.3,0,0.7,0,1
			C-185.4,423.7-186.2,426.1-187.6,428z"/>
	</g>
	<g class="st1">
		<path class="st2" d="M-197,407.5c-7.6,0-13.7,6.1-13.7,13.7s6.1,13.7,13.7,13.7s13.7-6.1,13.7-13.7S-189.4,407.5-197,407.5z
			 M-185.4,421.2c0,0.4,0,0.7,0,1c-0.6,0-0.9-0.3-1.4-1.2s-1.2-2-2.8-2c-0.6,0-1.1,0.2-1.4,0.5c-0.6,0.6-0.6,1.4-0.6,2.2
			c0,0.4,0,0.8-0.1,1.2c-0.5,2.4-1.5,5.2-2.2,6.3l0,0c-0.1-0.3-0.2-0.6-0.2-0.9c-0.4-1.7-1-3.6-2.6-4c-0.7-0.2-1.3-0.6-1.3-2.1
			c0-1.7,0.6-2.1,3.2-2.1h0.5c1.4,0,2.6-1.2,2.6-2.7s-1.2-2.7-2.6-2.7h-0.5c-0.5,0-0.9-0.1-1-0.1c0-0.3,0-0.6,0-0.8
			c0.1,0,0.2-0.1,0.4-0.1l0.1,0c0.1,0,2.2-1.1,2.6-3.3C-188.5,412-185.4,416.2-185.4,421.2z M-204.8,412.6c0.2,0.1,0.3,0.2,0.4,0.2
			c0,0,0,0,0,0c0,0.7-0.2,0.9-0.4,1.3c-0.3,0.4-0.6,0.9-0.6,1.7c-0.3,0-0.8,0-1,0c-0.3,0-0.6,0.1-0.9,0.2
			C-206.8,414.8-205.9,413.6-204.8,412.6z M-206.8,427.3c-1.1-1.7-1.7-3.7-1.8-5.8c0.6,0.5,1.3,0.7,2.1,0.7c0.5,0,1.2,0.3,1.7,0.6
			c0.2,0.2,0.5,0.3,0.5,1.6c0,0.6,0,0.9-1.8,2.4C-206.3,426.9-206.6,427.1-206.8,427.3z M-197,432.8c-3.3,0-6.4-1.4-8.5-3.7
			c0.3-0.3,0.5-0.5,0.7-0.7c1.8-1.6,2.5-2.4,2.5-4c0-1.6-0.4-2.5-1.3-3.2c-0.7-0.6-2-1-2.9-1c-1,0-1-0.7-1-1c0-0.7,0.8-1,1-1
			c1.2,0,2,0,2.6-0.7c0.4-0.4,0.5-0.8,0.5-1.4c0-0.2,0-0.2,0.2-0.5c0.3-0.5,0.8-1.2,0.8-2.6c0-0.8-0.3-1.2-0.7-1.5
			c1.8-1,3.8-1.7,6-1.7c0.7,0,1.4,0.1,2.1,0.2c-0.1,1.2-1.3,1.9-1.5,2c-1.6,0.6-1.7,1.3-1.7,3.1c0,1.3,1.2,2.2,3.2,2.2h0.5
			c0.3,0,0.5,0.2,0.5,0.5c0,0.3-0.2,0.4-0.5,0.4h-0.5c-1.9,0-5.3-0.1-5.3,4.1c0,1.2,0.4,3.4,2.9,4.1c0.5,0.1,0.8,1.6,1.1,2.5
			c0.1,0.3,0.2,0.6,0.3,0.9c0.5,1.6,1.6,1.8,2.1,1.8c1,0,1.8-1,2.8-3.5c0.6-1.6,1.2-3.5,1.4-4.7c0.1-0.6,0.1-1.2,0.1-1.7
			c0-0.2,0-0.4,0-0.6c0.3,0,0.4,0.2,0.8,0.9c0.5,0.8,1.2,2,2.8,2.2C-187.2,429.2-191.7,432.8-197,432.8z"/>
	</g>
	<g class="st1">
		<path class="st2" d="M-183.3,415.9c0-0.8-0.4-1.3-0.7-1.6c-0.7-0.6-1.8-0.8-3.7-0.5c-0.6,0.1-1,0.6-0.9,1.2c0.1,0.6,0.6,1,1.2,0.9
			c1.3-0.2,1.9-0.2,2,0c-0.1,0.4-1.1,1.2-2.6,2.2c-1.3-3.7-4.8-6.4-9-6.4c-4.8,0-8.7,3.5-9.4,8.1c-0.1,0-0.1,0-0.2,0.1
			c-3.5,2.1-5,3.8-4.5,5.4c0.4,1,1.6,1.6,3.6,1.6c0.6,0,1.3,0,2.1-0.1c0.2,0,0.3,0,0.5-0.1c1.7,2.5,4.6,4.1,7.8,4.1
			c5.2,0,9.5-4.2,9.5-9.5c0-0.3,0-0.6,0-0.9C-185,418.7-183.3,417.1-183.3,415.9z M-203.9,418.7c0.2-0.4,0.5-0.7,1-0.7h8
			c0.5,0,1-0.4,1.1-0.9c0.1-0.6-0.4-1.1-1-1.1h-6.5c-0.2,0-0.4-0.3-0.2-0.5c1.3-1,2.9-1.7,4.6-1.7c3.4,0,6.2,2.3,7.1,5.4
			c-0.5,0.3-1.1,0.6-1.7,0.9h-10.6c-0.5,0-1,0.4-1.1,0.9c-0.1,0.6,0.4,1.1,1,1.1h5.7c-2.8,1-5.2,1.7-7.1,2c-0.4-0.9-0.7-2-0.7-3.1
			C-204.4,420.3-204.2,419.5-203.9,418.7z M-209,424.5c0.1-0.3,0.8-1.1,2.5-2.2c0.1,0.8,0.3,1.6,0.6,2.3
			C-207.5,424.7-208.5,424.7-209,424.5z M-197,428.6c-1,0-1.9-0.2-2.8-0.5c-0.3-0.1-0.2-0.5,0.1-0.5h4.8c0.5,0,1-0.4,1.1-0.9
			c0.1-0.6-0.4-1.1-1-1.1h-4.7c1.3-0.4,2.6-0.8,3.9-1.3c1.5-0.5,3-1.2,4.5-1.9h1.1c0.2,0,0.3,0.1,0.3,0.3
			C-190.4,426-193.4,428.6-197,428.6z"/>
	</g>
	<g class="st1">
		<path class="st2" d="M-198,427.5v-4.8c0-0.3-0.2-0.5-0.5-0.5h-4.8c-0.6,0-1.1-0.5-1-1.1c0.1-0.5,0.5-0.9,1.1-0.9h4.7
			c0.3,0,0.5-0.2,0.5-0.5v-4.8c0-0.6,0.5-1.1,1.1-1c0.5,0.1,0.9,0.5,0.9,1.1v4.7c0,0.3,0.2,0.5,0.5,0.5h4.8c0.6,0,1.1,0.5,1,1.1
			c-0.1,0.5-0.5,0.9-1.1,0.9h-4.7c-0.3,0-0.5,0.2-0.5,0.5v4.7c0,0.5-0.4,1-0.9,1.1C-197.5,428.6-198,428.1-198,427.5z M-197,407.5
			c-7.6,0-13.7,6.1-13.7,13.7s6.1,13.7,13.7,13.7c3.4,0,6.7-1.3,9.3-3.6c0.4-0.4,0.4-1,0.1-1.5c-0.4-0.4-1-0.4-1.5-0.1
			c-2.2,2-5,3.1-7.9,3.1c-6.4,0-11.6-5.2-11.6-11.6s5.2-11.6,11.6-11.6s11.6,5.2,11.6,11.6c0,1.9-0.5,3.8-1.4,5.5
			c-0.3,0.5-0.1,1.1,0.4,1.4s1.1,0.1,1.4-0.4c1.1-2,1.7-4.2,1.7-6.5C-183.3,413.6-189.4,407.5-197,407.5z"/>
	</g>
	<g class="st1">
		<path class="st2" d="M-186.5,420.1h-17.2c-0.5,0-0.7-0.6-0.4-0.9l2.6-2.6c0.4-0.4,0.4-1.1,0-1.5c-0.4-0.4-1.1-0.4-1.5,0l-5.3,5.3
			c-0.4,0.4-0.4,1.1,0,1.5l5.2,5.2c0.2,0.2,0.5,0.3,0.7,0.3s0.5-0.1,0.7-0.3c0.4-0.4,0.4-1.1,0-1.5l-2.5-2.5
			c-0.3-0.3-0.1-0.9,0.4-0.9h17.3c0.6,0,1.1-0.5,1-1.1C-185.5,420.5-186,420.1-186.5,420.1z"/>
	</g>
	<g class="st1">
		<g class="st3">
			<path class="st0" d="M-197,408.5c-7,0-12.6,5.7-12.6,12.6s5.7,12.6,12.6,12.6s12.6-5.7,12.6-12.6S-190,408.5-197,408.5z
				 M-195.5,410.8c0.3,0,0.5,0.4,0.4,0.7c-0.3,0.7-1.1,1.3-1.9,1.3s-1.6-0.5-1.9-1.3c-0.1-0.3,0.1-0.7,0.4-0.7
				c0.5-0.1,1-0.1,1.5-0.1S-196,410.7-195.5,410.8z M-201.1,430.9c-1-0.4-2-1-2.8-1.8c-0.2-0.2-0.2-0.5-0.1-0.7
				c0.5-0.7,1.5-1.1,2.4-0.8c0.5,0.2,0.9,0.5,1.2,1c0.3,0.7,0.3,1.4,0,2C-200.6,430.9-200.8,431-201.1,430.9z M-197,431.7
				c-0.3,0-0.6,0-0.8,0c-0.3,0-0.6-0.4-0.4-0.7c0.2-0.4,0.2-0.9,0.2-1.4c0-2.3-1.9-4.2-4.2-4.2c-1.1,0-2.2,0.5-3,1.2
				c-0.2,0.2-0.6,0.2-0.8-0.1c-0.9-1.6-1.4-3.4-1.4-5.4c0-4.1,2.4-7.7,5.8-9.4c0.3-0.1,0.6,0,0.7,0.3c0.6,1.6,2.2,2.8,4,2.8
				s3.4-1.2,4-2.8c0.1-0.3,0.4-0.4,0.7-0.3c3.4,1.7,5.8,5.3,5.8,9.4C-186.5,427-191.2,431.7-197,431.7z"/>
			<path class="st0" d="M-192.8,418c-2.3,0-4.2,1.9-4.2,4.2s1.9,4.2,4.2,4.2s4.2-1.9,4.2-4.2S-190.4,418-192.8,418z M-192.8,424.3
				c-1.1,0-2.1-0.9-2.1-2.1c0-1.1,0.9-2.1,2.1-2.1s2.1,0.9,2.1,2.1C-190.7,423.4-191.6,424.3-192.8,424.3z"/>
			<path class="st0" d="M-201.7,416.3c-0.5-0.3-1.1-0.1-1.4,0.4c-0.3,0.5-0.1,1.1,0.4,1.4c0.3,0.2,0.5,0.5,0.5,0.9c0,0.6-0.5,1-1,1
				c-0.2,0-0.4,0-0.5-0.1c-0.5-0.3-1.1-0.1-1.4,0.4c-0.3,0.5-0.1,1.1,0.4,1.4c0.5,0.3,1,0.4,1.6,0.4c1.8,0,3.2-1.4,3.2-3.2
				C-200.2,417.9-200.8,416.9-201.7,416.3z"/>
		</g>
	</g>
	<g class="st1">
		<path class="st2" d="M-190.7,422.2h-4.7h-3.2h-4.8c-0.6,0-1.1-0.5-1-1.1c0.1-0.5,0.5-0.9,1.1-0.9h4.7h3.2h4.8c0.6,0,1.1,0.5,1,1.1
			C-189.7,421.8-190.2,422.2-190.7,422.2z M-197,407.5c-7.6,0-13.7,6.1-13.7,13.7s6.1,13.7,13.7,13.7c3.4,0,6.7-1.3,9.3-3.6
			c0.4-0.4,0.4-1,0.1-1.5c-0.4-0.4-1-0.4-1.5-0.1c-2.2,2-5,3.1-7.9,3.1c-6.4,0-11.6-5.2-11.6-11.6s5.2-11.6,11.6-11.6
			s11.6,5.2,11.6,11.6c0,1.9-0.5,3.8-1.4,5.5c-0.3,0.5-0.1,1.1,0.4,1.4s1.1,0.1,1.4-0.4c1.1-2,1.7-4.2,1.7-6.5
			C-183.3,413.6-189.4,407.5-197,407.5z"/>
	</g>
	<g class="st1">
		<path class="st2" d="M-189.9,416.2c0.4,0.4,0.4,1.1,0,1.5l-8.4,8.4c-0.2,0.2-0.5,0.3-0.7,0.3s-0.5-0.1-0.7-0.3l-4.2-4.2
			c-0.4-0.4-0.4-1.1,0-1.5c0.4-0.4,1.1-0.4,1.5,0l3.5,3.5l7.7-7.7C-191,415.8-190.3,415.8-189.9,416.2z M-197,407.5
			c-7.6,0-13.7,6.1-13.7,13.7s6.1,13.7,13.7,13.7c3.4,0,6.7-1.3,9.3-3.6c0.4-0.4,0.4-1,0.1-1.5c-0.4-0.4-1-0.4-1.5-0.1
			c-2.2,2-5,3.1-7.9,3.1c-6.4,0-11.6-5.2-11.6-11.6s5.2-11.6,11.6-11.6s11.6,5.2,11.6,11.6c0,1.9-0.5,3.8-1.4,5.5
			c-0.3,0.5-0.1,1.1,0.4,1.4s1.1,0.1,1.4-0.4c1.1-2,1.7-4.2,1.7-6.5C-183.3,413.6-189.4,407.5-197,407.5z"/>
	</g>
	<g class="st1">
		<path class="st2" d="M-197,428.6v6.4 M-196,434.9v-6.3c0-0.6-0.4-1-1-1c-0.6,0-1,0.5-1,1v6.3c0,0.6,0.4,1,1,1
			C-196.4,435.9-196,435.5-196,434.9z M-188.6,424.4c0-0.3-0.2-0.6-0.4-0.8l-4-4.9v-4.6l4.1-5c0.3-0.3,0.3-0.8,0.2-1.2
			c-0.2-0.4-0.5-0.7-0.9-0.7h-14.8c-0.4,0-0.8,0.3-0.9,0.7c-0.2,0.4-0.2,0.8,0,1.1l3.9,5v4.5l-3.9,5c-0.3,0.3-0.3,0.8-0.1,1.2
			s0.6,0.7,1,0.7h14.8l0,0C-189,425.6-188.6,425-188.6,424.4z M-199.3,419.7c0.1-0.2,0.3-0.4,0.3-0.6v-5.3c0-0.2-0.1-0.4-0.3-0.6
			l-2.9-3.5h10.4l-2.9,3.5c-0.1,0.2-0.3,0.4-0.3,0.6v5.3c0,0.2,0.1,0.4,0.3,0.6l2.9,3.5h-10.4L-199.3,419.7z"/>
	</g>
	<g class="st1">
		<path class="st2" d="M-193.3,426.4l-3.7-3.7l-3.7,3.7c-0.4,0.4-1.1,0.4-1.6-0.1c-0.3-0.4-0.3-1,0.1-1.4l3.7-3.7l-3.7-3.7
			c-0.4-0.4-0.4-1.1,0.1-1.6c0.4-0.3,1-0.3,1.4,0.1l3.7,3.7l3.7-3.7c0.4-0.4,1.1-0.4,1.6,0.1c0.3,0.4,0.3,1-0.1,1.4l-3.7,3.7
			l3.7,3.7c0.4,0.4,0.4,1,0.1,1.4C-192.1,426.8-192.8,426.8-193.3,426.4z M-197,407.5c-7.6,0-13.7,6.1-13.7,13.7s6.1,13.7,13.7,13.7
			c3.4,0,6.7-1.3,9.3-3.6c0.4-0.4,0.4-1,0.1-1.5c-0.4-0.4-1-0.4-1.5-0.1c-2.2,2-5,3.1-7.9,3.1c-6.4,0-11.6-5.2-11.6-11.6
			s5.2-11.6,11.6-11.6s11.6,5.2,11.6,11.6c0,1.9-0.5,3.8-1.4,5.5c-0.3,0.5-0.1,1.1,0.4,1.4s1.1,0.1,1.4-0.4c1.1-2,1.7-4.2,1.7-6.5
			C-183.3,413.6-189.4,407.5-197,407.5z"/>
	</g>
	<g class="st1">
		<path class="st2" d="M-187.5,434.9h-19c-0.6,0-1-0.5-1-1v-25.3c0-0.6,0.5-1,1-1h11.8c0.8,0,1.7,0.3,2.2,0.9l5.7,5.7
			c0.3,0.3,0.4,0.7,0.2,1.1s-0.5,0.6-1,0.6h-6.3c-0.6,0-1-0.5-1-1v-5.3h-10.6v23.2h16.9V418c0-0.6,0.5-1,1-1s1,0.5,1,1v15.8
			C-186.5,434.4-186.9,434.9-187.5,434.9z M-192.8,413.8h2.7l-2.7-2.7V413.8z"/>
	</g>
	<g class="st1">
		<path class="st2" d="M-186.5,410.7h-5.3c0-1.7-1.4-3.4-3.2-3.4h-4.2c-1.8,0-3.2,1.7-3.2,3.4h-5.3c-0.6,0-1,0.4-1,1
			c0,0.6,0.5,1,1,1h21.1c0.6,0,1-0.4,1-1C-185.4,411.2-185.9,410.7-186.5,410.7z M-199.1,410.7c-0.6,0-0.7-0.9-0.1-1
			c0,0,0.1,0,0.1,0h4.2c0,0,0.1,0,0.1,0c0.6,0.1,0.5,1-0.1,1H-199.1z M-186.5,414.9l-1,19c0,0.6-0.5,1.1-1,1.1h-16.9
			c-0.6,0-1-0.5-1-1l-1-19c0-0.6,0.4-1.1,1-1.1c0.6,0,1.1,0.3,1.1,0.9l1,17.9h14.8l1-17.9c0-0.6,0.5-1,1.1-1
			C-186.9,413.8-186.4,414.3-186.5,414.9z M-197,430.6c-0.6,0-1-0.5-1-1V417c0-0.6,0.4-1,1-1c0.6,0,1,0.5,1,1v12.6
			C-196,430.2-196.4,430.6-197,430.6z M-201.2,430.6c-0.6,0-1.2-0.5-1.2-1V418c0-0.6,0.6-1,1.2-1c0.6,0,1.2,0.5,1.2,1v11.6
			C-200,430.2-200.6,430.6-201.2,430.6z M-192.8,430.6c-0.6,0-1.2-0.5-1.2-1V418c0-0.6,0.6-1,1.2-1c0.6,0,1.2,0.5,1.2,1v11.6
			C-191.6,430.2-192.2,430.6-192.8,430.6z"/>
	</g>
	<g class="st1">
		<path class="st2" d="M-202.4,421.6L-202.4,421.6c-0.1,0.1-0.2,0.2-0.2,0.3l-2.3,6.2c-0.1,0.2,0.1,0.4,0.3,0.3l6.2-2.3
			c0.1-0.1,0.2-0.1,0.3-0.2l0,0l12.6-12.6l-4.4-4.4L-202.4,421.6z M-189.8,412l1.4,1.4l-10.8,10.8l-1.6,0.1l0.1-1.6L-189.8,412z
			 M-186.5,432.6h-21c-0.6,0-1-0.4-1-1c0-0.6,0.5-1,1-1h21.1c0.6,0,1,0.4,1,1C-185.4,432.2-185.9,432.6-186.5,432.6z"/>
	</g>
	<g class="st1">
		<path class="st2" d="M-188.6,420.6c-0.6,0-1,0.5-1,1v8.9h-14.8v-18.9h13.3l-8.2,8.2l0,0c-0.1,0.1-0.2,0.2-0.2,0.3l-2.3,6.2
			c-0.1,0.2,0.1,0.4,0.3,0.3l6.2-2.3c0.1-0.1,0.2-0.1,0.3-0.2l0,0l12.6-12.6l-4.4-4.4l-2.4,2.5c-0.2-0.1-0.4-0.1-0.5-0.1h-15.8
			c-0.6,0-1,0.3-1,0.9v21.1c0,0.6,0.4,0.9,1,0.9h16.9c0.6,0,1-0.3,1-0.9v-10C-187.5,421.1-188,420.6-188.6,420.6z M-185.3,411.7
			l-10.8,10.8l-1.5,0.1l0.1-1.6l10.8-10.8L-185.3,411.7z"/>
	</g>
	<g class="st1">
		<path class="st2" d="M-188.6,414.9l-1,19c0,0.6-0.5,1-1,1h-12.7c-0.6,0-1-0.5-1-1l-1-19c0-0.6,0.4-1.1,1-1.1
			c0.6,0,1.1,0.3,1.1,0.9l1,17.9h10.7l1-17.9c0-0.6,0.5-1,1.1-1C-189,413.8-188.5,414.3-188.6,414.9z M-198,429.6V417
			c0-0.6-0.4-1-1-1c-0.6,0-1,0.5-1,1v12.6c0,0.6,0.4,1,1,1C-198.4,430.6-198,430.2-198,429.6z M-193.9,429.6V417c0-0.6-0.4-1-1-1
			c-0.6,0-1,0.5-1,1v12.6c0,0.6,0.4,1,1,1C-194.4,430.6-193.9,430.2-193.9,429.6z M-186.5,411.7c0,0.6-0.5,1-1,1h-19
			c-0.6,0-1-0.4-1-1c0-0.6,0.5-1,1-1h4.2c0-1.7,1.4-3.4,3.2-3.4h4.2c1.8,0,3.2,1.7,3.2,3.4h4.2
			C-186.9,410.7-186.5,411.2-186.5,411.7z M-193.6,410.2c0-0.3-0.2-0.5-0.5-0.5h-5.4c-0.3,0-0.5,0.2-0.5,0.5l0,0
			c0,0.3,0.2,0.5,0.5,0.5h5.4C-193.8,410.7-193.6,410.5-193.6,410.2L-193.6,410.2z"/>
	</g>
	<g class="st1">
		<g class="st3">
			<path class="st0" d="M-185.4,411.7H-198c-0.6,0-1,0.5-1,1v2.1h-9.5c-0.6,0-1,0.5-1,1v3.2c0,0.6,0.5,1,1,1h3.2v8.4h-2.1v-5.2
				c0-0.5-0.4-1-0.9-1.1c-0.6-0.1-1.1,0.4-1.1,1v6.3c0,0.6,0.5,1,1,1h23.1c0.5,0,1-0.4,1.1-0.9c0.1-0.6-0.4-1.1-1-1.1h-4.6
				c-0.2,0-0.3-0.3-0.2-0.4c1-0.9,1.6-2.3,1.6-3.8s-0.6-2.8-1.6-3.8c-0.2-0.2,0-0.4,0.2-0.4h3c0.3,0,0.5,0.2,0.5,0.5v4.7
				c0,0.5,0.4,1,0.9,1.1c0.6,0.1,1.1-0.4,1.1-1v-6.3v-6.3C-184.3,412.2-184.8,411.7-185.4,411.7z M-207.5,418v-1h9.5
				c0.6,0,1-0.5,1-1v-2.1h10.5v4.2L-207.5,418L-207.5,418z M-193.8,427.5c-1.8,0-3.2-1.4-3.2-3.2s1.4-3.2,3.2-3.2
				c1.8,0,3.2,1.4,3.2,3.2S-192.1,427.5-193.8,427.5z M-199.1,424.3c0,1.5,0.6,2.8,1.6,3.8c0.2,0.2,0,0.4-0.2,0.4h-5.1
				c-0.3,0-0.5-0.2-0.5-0.5v-7.4c0-0.3,0.2-0.5,0.5-0.5h5.1c0.2,0,0.3,0.3,0.2,0.4C-198.5,421.5-199.1,422.9-199.1,424.3z"/>
			<path class="st0" d="M-189.6,414.8h-4.2c-0.6,0-1,0.6-1,1.2s0.5,1.2,1,1.2h4.2c0.6,0,1-0.6,1-1.2S-189,414.8-189.6,414.8z"/>
			<path class="st0" d="M-206.5,413.8h4.2c0.6,0,1-0.4,1-1s-0.5-1-1-1h-4.2c-0.6,0-1,0.4-1,1S-207.1,413.8-206.5,413.8z"/>
		</g>
	</g>
	<g class="st1">
		<path class="st2" d="M-190.5,410.2l-0.7,0.7l-0.7,0.7l-14.2,14.2c-0.2,0.2-0.2,0.2-0.2,0.3l-2.3,6.2c-0.1,0.2,0.1,0.4,0.3,0.3
			l6.2-2.3c0.1-0.1,0.2,0,0.4-0.2l0,0l11.9-11.9c0.4-0.4,0.4-1.1,0-1.5s-1.1-0.4-1.5,0l-0.7,0.7l-0.6,0.6l-10.4,10.4l-1.7,0.2
			l0.2-1.7l10.4-10.4l0.6-0.6l3-3l2.2,2.2c0.4,0.4,1.1,0.4,1.5,0l0.7-0.7c1.2-1.2,1.2-3.2,0-4.5C-187.3,409-189.3,409-190.5,410.2z
			 M-187.5,413.2l-1.5-1.5c0.4-0.4,1.1-0.4,1.5,0C-187.1,412.1-187.1,412.7-187.5,413.2z"/>
	</g>
	<g class="st1">
		<path class="st2" d="M-197,434.9c-7.6,0-13.7-6.1-13.7-13.7s6.1-13.7,13.7-13.7s13.7,6.1,13.7,13.7S-189.4,434.9-197,434.9z
			 M-197,409.6c-6.4,0-11.6,5.2-11.6,11.6s5.2,11.6,11.6,11.6s11.6-5.2,11.6-11.6S-190.6,409.6-197,409.6z M-191,427.2
			c0.4-0.4,0.4-1.1,0-1.5l-5-5v-5.9c0-0.6-0.4-1-1-1c-0.6,0-1,0.5-1,1v6.3c0,0.3,0.1,0.5,0.3,0.7l5.3,5.3c0.2,0.2,0.5,0.3,0.7,0.3
			S-191.2,427.4-191,427.2z"/>
	</g>
	<g class="st1">
		<path class="st2" d="M-185.4,432.6h-23.2c-0.6,0-1.2-0.3-1.2-0.9v-16.9c0-0.6,0.6-1.1,1.2-1.1h4.2c0.6,0,1,0.5,1,1.1v12.6
			c0,0.6-0.4,1-1,1s-1-0.5-1-1v-11.7h-2v14.8h20.9v-14.8h-5.2c-0.6,0-1.2-0.3-1.2-0.9v-3.1h-4v3.1c0,0.6-0.5,0.9-1,0.9h-2.1
			c-0.6,0-1-0.4-1-1s0.5-1,1-1h1.1v-3.1c0-0.6,0.4-0.9,1-0.9h6.3c0.6,0,1.1,0.3,1.1,0.9v3.1h5.2c0.6,0,0.9,0.5,0.9,1.1v16.9
			C-184.5,432.3-184.8,432.6-185.4,432.6z M-204.4,411.7c0-0.6-0.5-1-1-1h-2.1c-0.6,0-1,0.4-1,1c0,0.6,0.5,1,1,1h2.1
			C-204.8,412.7-204.4,412.3-204.4,411.7z M-184.3,411.7c0-0.6-0.5-1-1-1h-2.1c-0.6,0-1,0.4-1,1c0,0.6,0.5,1,1,1h2.1
			C-184.8,412.7-184.3,412.3-184.3,411.7z M-188.6,423.3c0-3.5-2.8-6.3-6.3-6.3s-6.3,2.8-6.3,6.3c0,3.5,2.9,6.3,6.3,6.3
			S-188.6,426.8-188.6,423.3z M-190.6,423.3c0,2.3-1.9,4.2-4.2,4.2s-4.2-1.9-4.2-4.2s1.9-4.2,4.2-4.2S-190.6,421-190.6,423.3z"/>
	</g>
	<g class="st1">
		<path class="st2" d="M-186.5,410.7h-2.1v2h2v2h-20.9v-2h2v-2h-2.1c-1.1,0-2.3,0.9-2.3,2v19c0,1.1,1.1,2.3,2.3,2.3h21.1
			c1.1,0,2-1.1,2-2.3v-19C-184.5,411.6-185.3,410.7-186.5,410.7z M-186.5,431.6h-20.9v-14.5h20.9V431.6z M-202.4,413.8h-2v-6.4h2
			v3.4h4.4v-3.4h2v3.4h4.4v-3.4h2v6.4h-2v-1h-4.4v1h-2v-1h-4.4V413.8z M-201.4,423.2h-4v-4h4V423.2z M-195,423.2h-4v-4h4V423.2z
			 M-188.6,423.2h-4.4v-4h4.4V423.2z M-201.4,429.6h-4v-4h4V429.6z M-195,429.6h-4v-4h4V429.6z M-188.6,429.6h-4.4v-4h4.4V429.6z"/>
	</g>
	<g class="st1">
		<path class="st2" d="M-184.1,415.7c1.2-1,1.9-2.5,1.9-4c0-2.9-2.4-5.3-5.3-5.3c-1.6,0-3,0.7-4,1.9c-0.4,0.4-0.3,1.1,0.1,1.5
			c0.4,0.4,1.1,0.3,1.5-0.1c0.6-0.7,1.5-1.1,2.4-1.1c1.8,0,3.2,1.4,3.2,3.2c0,0.9-0.4,1.8-1.1,2.4c-0.4,0.4-0.5,1-0.1,1.5
			c0.2,0.2,0.5,0.4,0.8,0.4C-184.6,415.9-184.3,415.9-184.1,415.7z M-208.5,415.5c0.4-0.4,0.3-1.1-0.1-1.5c-0.7-0.6-1.1-1.4-1.1-2.4
			c0-1.8,1.4-3.2,3.2-3.2c0.9,0,1.8,0.4,2.4,1.1c0.4,0.4,1,0.5,1.5,0.1c0.4-0.4,0.5-1,0.1-1.5c-1-1.2-2.5-1.9-4-1.9
			c-2.9,0-5.3,2.4-5.3,5.3c0,1.5,0.7,3,1.8,3.9c0.2,0.2,0.4,0.3,0.7,0.3C-209,415.9-208.7,415.8-208.5,415.5z M-186.5,421.2
			c0-5.8-4.7-10.5-10.5-10.5s-10.5,4.7-10.5,10.5c0,5.8,4.7,10.5,10.5,10.5S-186.5,427-186.5,421.2z M-188.6,421.2
			c0,4.7-3.8,8.4-8.4,8.4s-8.4-3.8-8.4-8.4s3.8-8.4,8.4-8.4S-188.6,416.5-188.6,421.2z M-196,421.2V417c0-0.6-0.4-1-1-1
			c-0.6,0-1,0.5-1,1v3.2h-1.1c-0.6,0-1,0.4-1,1s0.5,1,1,1h2.1C-196.4,422.2-196,421.7-196,421.2z M-206.6,435.5l2.1-3.2
			c0.3-0.5,0.2-1.1-0.3-1.4c-0.5-0.3-1.1-0.2-1.4,0.3l-2.1,3.2c-0.3,0.5-0.2,1.1,0.3,1.4c0.2,0.1,0.4,0.2,0.6,0.2
			C-207.2,435.9-206.9,435.8-206.6,435.5z M-185.9,435.7c0.5-0.3,0.6-1,0.3-1.4l-2.1-3.2c-0.3-0.5-1-0.6-1.4-0.3
			c-0.5,0.3-0.6,1-0.3,1.4l2.1,3.2c0.2,0.3,0.5,0.5,0.9,0.5C-186.3,435.9-186,435.9-185.9,435.7z"/>
	</g>
	<g class="st1">
		<path class="st2" d="M-186.5,432.8h-21c-1.1,0-2.1-0.9-2.1-2.1v-14.8c0-1.1,0.9-2.1,2.1-2.1h3.2c0.6,0,1-0.5,1-1
			c0-1.8,1.4-3.2,3.2-3.2h6.3c1.8,0,3.2,1.4,3.2,3.2c0,0.6,0.5,1,1,1h3.2c1.1,0,2.1,0.9,2.1,2.1v14.8
			C-184.3,431.8-185.3,432.8-186.5,432.8z M-207.5,415.9v14.8h21.1v-14.8h-3.2c-1.8,0-3.2-1.4-3.2-3.2c0-0.6-0.5-1-1-1h-6.3
			c-0.6,0-1,0.5-1,1c0,1.8-1.4,3.2-3.2,3.2C-204.4,415.9-207.5,415.9-207.5,415.9z M-194.6,428.1c0.5-0.2,0.8-0.8,0.6-1.4
			s-0.8-0.8-1.4-0.6c-0.5,0.2-1,0.3-1.6,0.3c-2.3,0-4.2-1.9-4.2-4.2s1.9-4.2,4.2-4.2s4.2,1.9,4.2,4.2c0,0.5-0.1,1-0.3,1.6
			c-0.2,0.5,0,1.1,0.6,1.4c0.5,0.2,1.1,0,1.4-0.6c0.3-0.8,0.5-1.6,0.5-2.4c0-3.5-2.8-6.3-6.3-6.3s-6.3,2.8-6.3,6.3
			c0,3.5,2.9,6.3,6.3,6.3C-196.2,428.6-195.4,428.4-194.6,428.1z"/>
	</g>
	<g class="st1">
		<path class="st2" d="M-189.9,409.6l-0.7,0.7c-3.9-2.3-8.9-2.3-12.8,0l-0.6-0.7c-0.6-0.6-1.6-0.6-2.2,0l-2.2,2.2
			c-0.6,0.6-0.6,1.6,0,2.2l0.6,0.6c-2.3,3.9-2.3,8.9,0,12.8l-0.7,0.7c-0.6,0.6-0.6,1.6,0,2.2l2.2,2.2c0.6,0.6,1.6,0.6,2.2,0l0.6-0.6
			c3.9,2.3,8.9,2.3,12.8,0l0.6,0.6c0.6,0.6,1.6,0.6,2.2,0l2.2-2.2c0.6-0.6,0.6-1.6,0-2.2l-0.6-0.7c2.3-3.9,2.3-8.9,0-12.8l0.6-0.6
			c0.6-0.6,0.6-1.6,0-2.2l-2.2-2.2C-188.3,409-189.3,409-189.9,409.6z M-192.6,412.4l-1.7,1.6c-0.1,0.1-0.3,0.2-0.5,0.1
			c-1.4-0.4-2.9-0.4-4.3,0c-0.2,0.1-0.4,0-0.5-0.1l-1.7-1.7c-0.3-0.3-0.2-0.7,0.2-0.8c2.7-1.1,5.7-1.1,8.4,0
			C-192.5,411.7-192.4,412.1-192.6,412.4z M-193.3,424.9c-2,2.1-5.4,2.1-7.4,0c-2-2.1-2.1-5.4,0-7.4s5.4-2.1,7.5,0
			C-191.2,419.5-191.2,422.9-193.3,424.9z M-205.2,411.5l3.8,3.8c-0.3,0.2-0.5,0.4-0.8,0.7c-0.3,0.2-0.5,0.5-0.7,0.8l-3.8-3.8
			L-205.2,411.5z M-205.8,416.8l1.7,1.7c0.1,0.1,0.2,0.3,0.1,0.5c-0.4,1.4-0.4,2.9,0,4.3c0.1,0.2,0,0.4-0.1,0.5l-1.7,1.7
			c-0.3,0.3-0.7,0.2-0.8-0.2c-1.1-2.7-1.1-5.7,0-8.4C-206.5,416.7-206.1,416.6-205.8,416.8z M-206.7,429.4l3.8-3.8
			c0.2,0.3,0.4,0.5,0.7,0.8c0.3,0.3,0.5,0.5,0.8,0.7l-3.8,3.8L-206.7,429.4z M-201.3,430l1.7-1.7c0.1-0.1,0.3-0.2,0.5-0.1
			c1.4,0.4,2.9,0.4,4.3,0c0.2-0.1,0.4,0,0.5,0.1l1.7,1.7c0.3,0.3,0.2,0.7-0.2,0.8c-2.7,1.1-5.7,1.1-8.4,0
			C-201.5,430.7-201.6,430.2-201.3,430z M-188.8,430.8l-3.8-3.8c0.3-0.2,0.5-0.4,0.8-0.7c0.3-0.3,0.5-0.5,0.7-0.8l3.8,3.8
			L-188.8,430.8z M-188.2,425.5l-1.6-1.7c-0.1-0.1-0.2-0.3-0.1-0.5c0.4-1.4,0.4-2.9,0-4.3c-0.1-0.2,0-0.4,0.1-0.5l1.7-1.7
			c0.3-0.3,0.7-0.2,0.8,0.2c1.1,2.7,1.1,5.7,0,8.4C-187.5,425.7-187.9,425.8-188.2,425.5z M-187.3,413l-3.8,3.8
			c-0.2-0.3-0.4-0.5-0.7-0.8c-0.3-0.3-0.5-0.5-0.8-0.7l3.8-3.8L-187.3,413z"/>
	</g>
	<g class="st1">
		<path class="st2" d="M-193.8,422.2c0,0.6-0.5,1-1,1h-2.1c-0.6,0-1-0.4-1-1V418c0-0.6,0.4-1,1-1c0.6,0,1,0.5,1,1v3.2h1.1
			C-194.3,421.2-193.8,421.6-193.8,422.2z M-192.8,431.7c-0.6,0-1.2,0.5-1.2,1v2.1c0,0.6,0.6,1,1.2,1c0.6,0,1.2-0.5,1.2-1v-2.1
			C-191.6,432.2-192.2,431.7-192.8,431.7z M-187,419.1c-0.1,0-0.3,0-0.4,0.1c-0.2,0.1-0.3,0-0.3-0.2c-0.6-2.4-2.2-4.4-3.9-5.7v-5.9
			c0-0.6-0.6-1.1-1.3-1c-0.5,0-1.1,0.5-1.1,1.1v4c0,0.3-0.3,0.6-0.6,0.5c-0.8-0.2-1.6-0.3-2.5-0.3s-1.6,0.1-2.4,0.3
			c-0.3,0.1-0.6-0.2-0.6-0.5v-4c0-0.6-0.6-1.1-1.3-1c-0.5,0-1,0.5-1,1.1v5.8c-2.4,1.7-4.2,4.6-4.2,7.9s1.9,6.2,4.2,7.9v5.8
			c0,0.6,0.6,1.1,1.3,1c0.5-0.1,1.1-0.5,1.1-1.1v-4c0-0.3,0.3-0.6,0.6-0.5c1,0.3,2.2,0.4,3.3,0.3c4.1-0.4,7.4-3.4,8.3-7.2
			c0-0.2,0.2-0.2,0.4-0.2c0.1,0.1,0.3,0.1,0.4,0.1c0.6,0,1.1-0.5,1.1-1.1v-2C-185.9,419.6-186.4,419-187,419.1z M-197,428.6
			c-4.1,0-7.4-3.3-7.4-7.4s3.3-7.4,7.4-7.4s7.4,3.3,7.4,7.4S-192.9,428.6-197,428.6z"/>
	</g>
	<g class="st1">
		<g class="st3">
			<path class="st0" d="M-184.9,413.8h-6.3c-0.3,0-0.5-0.2-0.5-0.5v-1.6c0-1.2-0.9-2.1-2.1-2.1h-6.3c-1.2,0-2.1,0.9-2.1,2.1v1.6
				c0,0.3-0.2,0.5-0.5,0.5h-1.6h-2.1h-2.6c-0.9,0-1.6,0.7-1.6,1.6v15.8c0,0.9,0.7,1.6,1.6,1.6h24.2c0.9,0,1.6-0.7,1.6-1.6v-15.8
				C-183.3,414.5-184,413.8-184.9,413.8z M-199.9,411.7h5.8c0.1,0,0.3,0.1,0.3,0.3v1.9h-6.3V412C-200.2,411.8-200,411.7-199.9,411.7
				z M-189.6,415.8v5.7c-2.4,1.2-4.9,1.8-7.4,1.8s-5.1-0.6-7.4-1.8v-5.7H-189.6z M-208.4,430.6v-14.8h2v14.8H-208.4z M-204.4,423.8
				c2.4,1,4.9,1.6,7.4,1.6s5.1-0.5,7.4-1.6v6.8h-14.8V423.8z M-185.5,430.6h-2v-14.8h2V430.6z"/>
			<rect x="-198" y="418.1" class="st0" width="2" height="3"/>
		</g>
	</g>
	<g class="st1">
		<g class="st3">
			<path class="st0" d="M-190.1,420.1h-10.5c-0.3,0-0.5-0.2-0.5-0.5V415c0-2.3,1.8-4.2,4-4.3c2.4-0.1,4.4,1.8,4.4,4.2v2.1
				c0,0.5,0.4,1,0.9,1.1c0.6,0.1,1.1-0.4,1.1-1v-2c0-3.5-2.9-6.5-6.4-6.5c-3.4,0.1-6.2,2.9-6.2,6.3v4.8c0,0.3-0.2,0.5-0.5,0.5l0,0
				c-0.9,0-1.6,0.7-1.6,1.6v11.6c0,0.9,0.7,1.6,1.6,1.6h13.7c0.9,0,1.6-0.7,1.6-1.6v-11.6C-188.6,420.8-189.3,420.1-190.1,420.1z
				 M-190.9,432.8h-12.1c-0.1,0-0.3-0.1-0.3-0.3v-10c0-0.1,0.1-0.3,0.3-0.3h12.1c0.1,0,0.3,0.1,0.3,0.3v10
				C-190.6,432.6-190.8,432.8-190.9,432.8z"/>
			<path class="st0" d="M-197,425.4L-197,425.4c-0.6,0-1,0.5-1,1v3.2h2.1v-3.2C-195.9,425.9-196.4,425.4-197,425.4z"/>
		</g>
	</g>
	<g class="st1">
		<path class="st2" d="M-193.8,422.2c0,0.6-0.5,1-1,1h-2.1c-0.6,0-1-0.4-1-1V419c0-0.6,0.4-1,1-1c0.6,0,1,0.5,1,1v2.1h1.1
			C-194.3,421.2-193.8,421.6-193.8,422.2z M-186.5,417v3.2c0,0.6-0.4,1-1,1h-1v5.3c0,1.6-0.9,3-2.3,3.7l0,0.2
			c-0.5,1-0.7,2.2-0.7,3.3v1.2c0,0.3-0.2,0.6-0.4,0.8c-0.2,0.1-1.6,1.3-5,1.3c-3.3,0-4.8-1.2-5-1.3c-0.2-0.2-0.4-0.5-0.4-0.8v-1.2
			c0-1.1-0.2-2.3-0.7-3.3l-0.1-0.2c-1.3-0.7-2.2-2.1-2.2-3.7v-10.5c0-1.6,0.9-3,2.3-3.7l0-0.2c0.5-1,0.7-2.2,0.7-3.3v-1.1
			c0-0.3,0.2-0.5,0.4-0.7c0.2-0.2,1.6-1.3,5-1.3s4.8,1.1,5,1.3c0.1,0.2,0.3,0.4,0.3,0.7v1.2c0,1.1,0.2,2.3,0.7,3.3l0.1,0.2
			c1.4,0.7,2.3,2.3,2.3,3.6h1C-186.9,415.8-186.5,416.4-186.5,417z M-200,408.6c0,0.8-0.2,1.6-0.4,2.4c-0.1,0.3,0.1,0.7,0.4,0.7h5.9
			c0.3,0,0.5-0.3,0.4-0.7c-0.2-0.8-0.4-1.6-0.4-2.4V408c-0.3-0.2-1.3-0.6-3-0.6s-2.7,0.3-3,0.6C-200,408-200,408.6-200,408.6z
			 M-193.9,433.7c0-0.8,0.2-1.6,0.4-2.4c0.1-0.3-0.1-0.7-0.4-0.7h-5.9c-0.3,0-0.5,0.3-0.4,0.7c0.2,0.8,0.4,1.6,0.4,2.4v0.6
			c0.3,0.2,1.4,0.6,3,0.6s2.7-0.3,3-0.6V433.7z M-190.6,415.8c0-1.2-0.9-2.1-2.1-2.1h-8.6c-1.2,0-2.1,0.9-2.1,2.1v10.6
			c0,1.2,0.9,2.1,2.1,2.1h8.6c1.2,0,2.1-0.9,2.1-2.1L-190.6,415.8L-190.6,415.8z"/>
	</g>
	<g class="st1">
		<g class="st3">
			<rect x="-191.6" y="422.2" class="st0" width="2" height="2"/>
			<path class="st0" d="M-185.7,418h-0.8v-3.7c0-0.9-0.7-1.6-1.6-1.6h-18.4c-0.5,0-1-0.4-1.1-0.9c-0.1-0.6,0.4-1.1,1-1.1h17.9
				c0.5,0,1-0.4,1.1-0.9c0.1-0.6-0.4-1.1-1-1.1h-17.8c-1.7,0-3.1,1.2-3.2,2.9c-0.2,1.9,1.3,3.5,3.1,3.5h17.9v2.6
				c0,0.3-0.2,0.5-0.5,0.5h-2.5c-2.9,0-5.3,2.2-5.4,5.1c-0.1,3,2.3,5.5,5.3,5.5h2.6c0.3,0,0.5,0.2,0.5,0.5v2.6h-19V417
				c0-0.5-0.4-1-0.9-1.1c-0.6-0.1-1.1,0.4-1.1,1v15.3c0,0.9,0.7,1.6,1.6,1.6h20c0.9,0,1.6-0.7,1.6-1.6v-3.7h0.8
				c0.7,0,1.3-0.6,1.3-1.3v-7.9C-184.3,418.6-184.9,418-185.7,418z M-186.7,426.4h-4.9c-1.7,0-3.1-1.2-3.2-2.9
				c-0.2-1.9,1.3-3.5,3.1-3.5h5c0.1,0,0.3,0.1,0.3,0.3v5.8C-186.5,426.3-186.6,426.4-186.7,426.4z"/>
		</g>
	</g>
	<g class="st1">
		<path class="st2" d="M-206.5,426.6c0-0.6,0.5-1,1-1h4.2c0.6,0,1,0.4,1,1c0,0.6-0.5,1-1,1h-4.2C-206,427.6-206.5,427.1-206.5,426.6
			z M-197,427.6h2.1c0.6,0,1-0.4,1-1c0-0.6-0.5-1-1-1h-2.1c-0.6,0-1,0.4-1,1C-198,427.1-197.6,427.6-197,427.6z M-189.6,427.6h1
			c0.6,0,1-0.4,1-1c0-0.6-0.5-1-1-1h-1c-0.6,0-1,0.4-1,1C-190.6,427.1-190.2,427.6-189.6,427.6z M-183.2,413.8v0.8v0.3v1v0.8v14.5
			c0,0.9-0.8,1.4-1.7,1.4h-24.2c-0.9,0-1.7-0.5-1.7-1.4v-14.5v-0.8v-1v-0.5v-0.5c0-1.7,1.6-3.1,3.3-3.1h21.1
			C-184.7,410.7-183.2,412.1-183.2,413.8z M-185.5,420.2h-22.9v10.5h22.9V420.2z M-185.5,414.6v-0.8c0-0.6-0.3-1-0.9-1h-21
			c-0.6,0-0.9,0.4-0.9,1v0.5v0.5v0.9h22.9v-0.9V414.6z"/>
	</g>
</g>
</svg>
