<?xml version="1.0" encoding="utf-8"?>
<!-- Generator: Adobe Illustrator 19.0.0, SVG Export Plug-In . SVG Version: 6.00 Build 0)  -->
<svg version="1.1" id="Слой_1" xmlns="http://www.w3.org/2000/svg" xmlns:xlink="http://www.w3.org/1999/xlink" x="0px" y="0px"
	 viewBox="-213 405.4 32 32" style="enable-background:new -213 405.4 32 32;" xml:space="preserve">
<style type="text/css">
	.st0{fill:#2A363B;}
</style>
<path class="st0" d="M-185.7,414.8h-22.6c-0.4,0-0.7,0.3-0.7,0.7c0,0.4,0.3,0.7,0.7,0.7h22.6c0.4,0,0.7-0.3,0.7-0.7
	C-185,415.1-185.3,414.8-185.7,414.8z M-185.7,420.7h-22.6c-0.4,0-0.7,0.3-0.7,0.7c0,0.4,0.3,0.7,0.7,0.7h22.6
	c0.4,0,0.7-0.3,0.7-0.7C-185,421-185.3,420.7-185.7,420.7z M-185,427.3c0-0.4-0.3-0.7-0.7-0.7h-22.6c-0.4,0-0.7,0.3-0.7,0.7
	c0,0.4,0.3,0.7,0.7,0.7h22.6C-185.3,428-185,427.7-185,427.3z"/>
</svg>
