<?xml version="1.0" encoding="utf-8"?>
<!-- Generator: Adobe Illustrator 19.0.0, SVG Export Plug-In . SVG Version: 6.00 Build 0)  -->
<svg version="1.1" id="Слой_1" xmlns="http://www.w3.org/2000/svg" xmlns:xlink="http://www.w3.org/1999/xlink" x="0px" y="0px"
	 viewBox="-213 405.4 32 32" style="enable-background:new -213 405.4 32 32;" xml:space="preserve">
<style type="text/css">
	.st0{fill:#9DAAC1;}
</style>
<path class="st0" d="M-210.9,429h2.7c0.1,0,0.2,0,0.2,0c0.2,1.4,1.4,2.4,2.8,2.4s2.6-1.1,2.8-2.4c0,0,0.1,0,0.2,0h9.6h1.7
	c0.2,1.3,1.4,2.4,2.8,2.4s2.6-1.1,2.8-2.4h2.2c0.4,0,0.7-0.3,0.7-0.7v-7.6c0-2-0.5-3.5-1.6-4.7c-1-1.1-2.4-1.6-3.9-1.6h-4.1v-2.3
	c0-0.4-0.3-0.7-0.7-0.7h-18.3c-0.4,0-0.7,0.3-0.7,0.7v16.2C-211.6,428.7-211.3,429-210.9,429z M-188.1,430c-0.8,0-1.5-0.7-1.5-1.5
	s0.7-1.5,1.5-1.5s1.5,0.7,1.5,1.5C-186.7,429.3-187.3,430-188.1,430z M-191.9,415.7h4.1c2.5,0,4.1,1.9,4.1,4.9v6.9h-1.7
	c-0.4-1.1-1.5-1.9-2.7-1.9c-1.3,0-2.3,0.8-2.7,1.9h-1.1L-191.9,415.7L-191.9,415.7z M-205.1,430c-0.8,0-1.5-0.7-1.5-1.5
	s0.7-1.5,1.5-1.5s1.5,0.7,1.5,1.5C-203.7,429.3-204.3,430-205.1,430z M-210.2,412.8h16.9v2.3v12.5h-8.8c-0.1,0-0.2,0-0.2,0
	c-0.4-1.1-1.5-2-2.7-2c-1.3,0-2.4,0.9-2.7,2c-0.1,0-0.2-0.1-0.3-0.1h-2V412.8z"/>
</svg>
