<?xml version="1.0" encoding="utf-8"?>
<!-- Generator: Adobe Illustrator 21.0.0, SVG Export Plug-In . SVG Version: 6.00 Build 0)  -->
<svg version="1.1" id="Слой_1" xmlns="http://www.w3.org/2000/svg" xmlns:xlink="http://www.w3.org/1999/xlink" x="0px" y="0px"
	 viewBox="0 0 864.9 250" style="enable-background:new 0 0 864.9 250;" xml:space="preserve">
<style type="text/css">
	.st0{fill:#FFFFFF;}
	.st1{fill:#C9D7F3;}
</style>
<g>
	<g>
		<path class="st0" d="M58,158.7L7.5,108.1c-9.3-9.3-9.3-24.4,0-33.7L74.9,7c9.3-9.3,24.4-9.3,33.7,0s9.3,24.4,0,33.7L58,91.3
			C39.4,109.9,39.4,140.1,58,158.7z"/>
		<path class="st1" d="M108.6,175.6c-9.3,9.3-24.4,9.3-33.7,0L58,158.7c-18.6-18.6-18.6-48.8,0-67.4l16.9-16.9
			c-9.3,9.3-9.3,24.4,0,33.7l33.7,33.7C117.9,151.2,117.9,166.3,108.6,175.6z"/>
	</g>
	<g>
		<path class="st0" d="M192,91.3l50.6,50.6c9.3,9.3,9.3,24.4,0,33.7L175.1,243c-9.3,9.3-24.4,9.3-33.7,0c-9.3-9.3-9.3-24.4,0-33.7
			l50.6-50.6C210.6,140.1,210.6,109.9,192,91.3z"/>
		<path class="st1" d="M141.4,74.4c9.3-9.3,24.4-9.3,33.7,0L192,91.3c18.6,18.6,18.6,48.8,0,67.4l-16.9,16.9
			c9.3-9.3,9.3-24.4,0-33.7l-33.7-33.7C132.1,98.8,132.1,83.7,141.4,74.4z"/>
	</g>
</g>
<g>
	<path class="st0" d="M299.5,139.1V85.9h19.2v53.1c0,11.8,22.2,11.5,22.2,0V85.9H360v53.2c0,17.7-15.2,26.4-30.4,26.3
		C314.5,165.4,299.5,156.8,299.5,139.1z"/>
	<path class="st0" d="M387,145.8h32.9v18.5h-52.1V85.9H387V145.8z"/>
	<path class="st0" d="M426.6,139.1V85.9h19.2v53.1c0,11.8,22.2,11.5,22.2,0V85.9h19.2v53.2c0,17.7-15.2,26.4-30.4,26.3
		C441.7,165.4,426.6,156.8,426.6,139.1z"/>
	<path class="st0" d="M515.8,164.3v-60.5h-21.2V85.9H556v17.9h-21.1v60.5H515.8z"/>
	<path class="st0" d="M631.2,110.6c0-5.3-4.3-8.1-10.2-8.1c-5.9,0-10.1,2.6-10.1,6.8c0,5.8,9.3,5.9,11.9,6.2
		c11.1,1.5,25.1,4.4,28.4,18.5c0.3,1.8,0.6,3.8,0.6,5.5c0,16.4-15.9,25.8-30.8,25.8c-12.8,0-30.1-7.8-30.1-27.8h19.4
		c0,7.7,6.5,9.2,10.9,9.2c6.3,0,11.3-1.8,11.3-6.3c0-5.6-9-5.8-11.9-6.2c-12.7-1.2-27.7-4-29.1-22.1v0.1
		c-0.9-17.2,13.2-27.6,29.9-27.6c14,0,29.1,7.8,29.1,25.9H631.2z"/>
	<path class="st0" d="M698.2,84.6c22.4,0,40.7,17.5,40.7,40.5c0,22.7-18.3,40.2-40.7,40.2c-22.4,0-40.5-17.1-40.5-40.2
		C657.7,102.1,675.8,84.6,698.2,84.6z M719.6,125.2c0-29.6-42.9-29.7-42.9,0C676.7,154.7,719.6,154.5,719.6,125.2z"/>
	<path class="st0" d="M765,164.3h-19V85.9h50.7v18.3H765v14h29.9v17.8H765V164.3z"/>
	<path class="st0" d="M824.7,164.3v-60.5h-21.2V85.9h61.4v17.9h-21.1v60.5H824.7z"/>
</g>
</svg>
