<?xml version="1.0" encoding="utf-8"?>
<!-- Generator: Adobe Illustrator 24.0.1, SVG Export Plug-In . SVG Version: 6.00 Build 0)  -->
<svg version="1.1" id="Layer_1" xmlns="http://www.w3.org/2000/svg" xmlns:xlink="http://www.w3.org/1999/xlink" x="0px" y="0px"
	 viewBox="0 0 413 413" style="enable-background:new 0 0 413 413;" xml:space="preserve">
<style type="text/css">
	.st0{fill-rule:evenodd;clip-rule:evenodd;fill:#2E4695;}
</style>
<g>
	<path class="st0" d="M341.3,44.9h-22.4v-7.5c0-12.4-10.1-22.4-22.4-22.4h0c-12.4,0-22.4,10.1-22.4,22.4v7.5h-44.9v-7.5
		c0-12.4-10.1-22.4-22.4-22.4h0c-12.4,0-22.4,10.1-22.4,22.4v7.5h-44.9v-7.5c0-12.4-10.1-22.4-22.4-22.4h0
		c-12.4,0-22.4,10.1-22.4,22.4v7.5H72c-12.5,0-22.7,10.1-22.7,22.4v308.2c0,12.4,10.2,22.4,22.7,22.4h269.3
		c12.4,0,22.4-10.1,22.4-22.4V67.4C363.7,55,353.6,44.9,341.3,44.9z M288.9,37.4c0-4.1,3.4-7.5,7.5-7.5s7.5,3.4,7.5,7.5v29.9
		c0,4.1-3.4,7.5-7.5,7.5s-7.5-3.4-7.5-7.5V37.4z M199.1,37.4c0-4.1,3.4-7.5,7.5-7.5c4.1,0,7.5,3.4,7.5,7.5v29.9
		c0,4.1-3.4,7.5-7.5,7.5c-4.1,0-7.5-3.4-7.5-7.5V37.4z M109.4,37.4c0-4.1,3.4-7.5,7.5-7.5c4.1,0,7.5,3.4,7.5,7.5v29.9
		c0,4.1-3.4,7.5-7.5,7.5c-4.1,0-7.5-3.4-7.5-7.5V37.4z M72,59.9h22.4v7.5c0,12.4,10.1,22.4,22.4,22.4s22.4-10.1,22.4-22.4v-7.5h44.9
		v7.5c0,12.4,10.1,22.4,22.4,22.4c12.4,0,22.4-10.1,22.4-22.4v-7.5h44.9v7.5c0,12.4,10.1,22.4,22.4,22.4s22.4-10.1,22.4-22.4v-7.5
		h22.4c4.1,0,7.5,3.4,7.5,7.5v44.9H64.3V67.4C64.3,63.3,67.8,59.9,72,59.9L72,59.9z M341.3,383H72c-4.2,0-7.7-3.4-7.7-7.5V127.2
		h284.5v248.4C348.7,379.7,345.4,383,341.3,383z"/>
</g>
</svg>
