<?xml version="1.0" encoding="utf-8"?>
<!-- Generator: Adobe Illustrator 24.0.1, SVG Export Plug-In . SVG Version: 6.00 Build 0)  -->
<svg version="1.1" id="Слой_1" xmlns="http://www.w3.org/2000/svg" xmlns:xlink="http://www.w3.org/1999/xlink" x="0px" y="0px"
	 viewBox="0 0 512 512" style="enable-background:new 0 0 512 512;" xml:space="preserve">
<style type="text/css">
	.st0{fill-rule:evenodd;clip-rule:evenodd;fill:#EECD5B;}
	.st1{fill-rule:evenodd;clip-rule:evenodd;fill:#2E4695;}
	.st2{fill:#2E4695;}
</style>
<path class="st0" d="M68.5,148.7C9.3,252.3,45.2,384.3,148.7,443.5l-19.9,34.7C6.2,408-36.4,251.6,33.8,128.9S260.4-36.4,383.1,33.8
	l-19.9,34.7C259.7,9.3,127.7,45.2,68.5,148.7z"/>
<path class="st1" d="M478.2,383.1C408,505.8,251.6,548.4,128.9,478.2l19.9-34.7c103.5,59.2,235.5,23.3,294.7-80.2
	s23.3-235.5-80.2-294.7l19.9-34.7C505.8,104,548.4,260.4,478.2,383.1z"/>
<g>
	<path class="st2" d="M339.5,303.2c0,22.9-8.3,41.6-24.8,56.3c-16.6,14.7-36.6,22-60.2,22c-18.7,0-35.1-4.4-49.4-13.3
		c-14.2-8.9-25.4-21-33.6-36.4l25.9-18.6c14.9,22.9,33.6,34.3,56,34.3c14,0,25.5-4,34.5-12.1c9-8,13.5-18.6,13.5-31.7
		c0-13.1-4.6-23.2-13.8-30.3c-9.2-7.1-22.3-10.7-39.4-10.7h-53.2V146.7h131.6V180h-95.2v54.3c9.1-2.1,18.9-3.1,29.4-3.1
		c21.9,0,40.5,6.4,55.8,19.3C331.8,263.2,339.5,280.8,339.5,303.2z"/>
</g>
</svg>
