<?xml version="1.0" encoding="utf-8"?>
<!-- Generator: Adobe Illustrator 24.0.1, SVG Export Plug-In . SVG Version: 6.00 Build 0)  -->
<svg version="1.1" id="Capa_1" xmlns="http://www.w3.org/2000/svg" xmlns:xlink="http://www.w3.org/1999/xlink" x="0px" y="0px"
	 viewBox="0 0 413.3 413.3" style="enable-background:new 0 0 413.3 413.3;" xml:space="preserve">
<style type="text/css">
	.st0{fill:#2E4695;}
</style>
<g>
	<g>
		<path class="st0" d="M413.2,198.2c-0.2-2.7-1.5-5.3-3.6-7l-70.1-56.1V24.9c-0.2-5.7-4.8-10.2-10.5-10.2h-52
			c-5.5,0-9.5,4.7-9.5,10.2v52.7L213,34.3c-3.7-2.9-8.9-2.9-12.6,0L3.8,191.2c-4.3,3.4-5.1,9.7-1.6,14c0.1,0.2,0.3,0.3,0.4,0.5
			l39.2,43.2c3.5,3.9,9.5,4.4,13.5,1.1l9.2-7.5v145.9c0.1,5.6,4.6,10.1,10.2,10.2h263.6c5.6-0.1,10.1-4.6,10.2-10.2V242.5l9.2,7.5
			c4.1,3.3,10.1,2.8,13.6-1.1l39.2-43.2C412.5,203.7,413.4,201,413.2,198.2z M287.6,34.6h32v84.5l-32-25.6V34.6z M328.6,378.6h-244
			V226.5l122-97.6l122,97.6V378.6z M362.8,228.5l-150-120.2c-3.7-2.9-8.8-2.9-12.5,0l-150,120.2l-25.7-28.4l182-145.3l182,145.3
			L362.8,228.5z"/>
	</g>
</g>
</svg>
