<?xml version="1.0" encoding="utf-8"?>
<!-- Generator: Adobe Illustrator 24.0.1, SVG Export Plug-In . SVG Version: 6.00 Build 0)  -->
<svg version="1.1" id="Слой_1" xmlns="http://www.w3.org/2000/svg" xmlns:xlink="http://www.w3.org/1999/xlink" x="0px" y="0px"
	 viewBox="0 0 512 512" style="enable-background:new 0 0 512 512;" xml:space="preserve">
<style type="text/css">
	.st0{fill:#2E4695;}
	.st1{fill-rule:evenodd;clip-rule:evenodd;fill:#EECD5B;}
	.st2{fill-rule:evenodd;clip-rule:evenodd;fill:#2E4695;}
</style>
<g>
	<path class="st0" d="M276.7,142.3h13.2v235.5h-37.8V186.9l-47.8,15.3L195,169L276.7,142.3z"/>
</g>
<path class="st1" d="M68.5,148.7C9.3,252.3,45.2,384.3,148.7,443.5l-19.9,34.7C6.2,408-36.4,251.6,33.8,128.9S260.4-36.4,383.1,33.8
	l-19.9,34.7C259.7,9.3,127.7,45.2,68.5,148.7z"/>
<path class="st2" d="M478.2,383.1C408,505.8,251.6,548.4,128.9,478.2l19.9-34.7c103.5,59.2,235.5,23.3,294.7-80.2
	s23.3-235.5-80.2-294.7l19.9-34.7C505.8,104,548.4,260.4,478.2,383.1z"/>
</svg>
