<?xml version="1.0" encoding="utf-8"?>
<!-- Generator: Adobe Illustrator 24.0.1, SVG Export Plug-In . SVG Version: 6.00 Build 0)  -->
<svg version="1.1" id="Слой_1" xmlns="http://www.w3.org/2000/svg" xmlns:xlink="http://www.w3.org/1999/xlink" x="0px" y="0px"
	 viewBox="0 0 512 512" style="enable-background:new 0 0 512 512;" xml:space="preserve">
<style type="text/css">
	.st0{fill-rule:evenodd;clip-rule:evenodd;fill:#EECD5B;}
	.st1{fill-rule:evenodd;clip-rule:evenodd;fill:#2E4695;}
	.st2{fill:#2E4695;}
</style>
<path class="st0" d="M68.5,148.7C9.3,252.3,45.2,384.3,148.7,443.5l-19.9,34.7C6.2,408-36.4,251.6,33.8,128.9S260.4-36.4,383.1,33.8
	l-19.9,34.7C259.7,9.3,127.7,45.2,68.5,148.7z"/>
<path class="st1" d="M478.2,383.1C408,505.8,251.6,548.4,128.9,478.2l19.9-34.7c103.5,59.2,235.5,23.3,294.7-80.2
	s23.3-235.5-80.2-294.7l19.9-34.7C505.8,104,548.4,260.4,478.2,383.1z"/>
<g>
	<path class="st2" d="M340.2,301.8c0,22.4-8,41.3-24.2,56.7c-16.1,15.4-35.3,23.1-57.8,23.1c-22.2,0.5-41.4-7.2-57.7-22.9
		c-16.3-15.8-24.3-34.8-23.8-57.2c0-8.6,1.3-17,3.8-25.2c2.8-8.2,6.1-15.3,9.8-21.3c3.3-5.4,9.2-14.2,17.8-26.6l57.7-81.5h43.8
		l-55.6,78.8c3-0.7,6.4-1,10.1-1c20.5,0,38.3,7.5,53.4,22.6S340.2,280.3,340.2,301.8z M303.4,301.8c0-12.8-4.4-23.7-13.3-32.5
		c-8.9-8.9-19.5-13.3-31.9-13.3c-12.6,0-23.3,4.4-32.2,13.3c-8.6,8.6-12.9,19.5-12.9,32.5c0,13.3,4.3,24.3,12.9,32.9
		c8.6,8.6,19.4,13,32.2,13c12.6,0,23.2-4.3,31.9-13C299,325.8,303.4,314.8,303.4,301.8z"/>
</g>
</svg>
