<?xml version="1.0" encoding="utf-8"?>
<!-- Generator: Adobe Illustrator 24.0.1, SVG Export Plug-In . SVG Version: 6.00 Build 0)  -->
<svg version="1.1" id="Слой_1" xmlns="http://www.w3.org/2000/svg" xmlns:xlink="http://www.w3.org/1999/xlink" x="0px" y="0px"
	 viewBox="0 0 512 512" style="enable-background:new 0 0 512 512;" xml:space="preserve">
<style type="text/css">
	.st0{fill-rule:evenodd;clip-rule:evenodd;fill:#EECD5B;}
	.st1{fill-rule:evenodd;clip-rule:evenodd;fill:#2E4695;}
	.st2{fill:#2E4695;}
</style>
<path class="st0" d="M68.5,148.7C9.3,252.3,45.2,384.3,148.7,443.5l-19.9,34.7C6.2,408-36.4,251.6,33.8,128.9S260.4-36.4,383.1,33.8
	l-19.9,34.7C259.7,9.3,127.7,45.2,68.5,148.7z"/>
<path class="st1" d="M478.2,383.1C408,505.8,251.6,548.4,128.9,478.2l19.9-34.7c103.5,59.2,235.5,23.3,294.7-80.2
	s23.3-235.5-80.2-294.7l19.9-34.7C505.8,104,548.4,260.4,478.2,383.1z"/>
<g>
	<path class="st2" d="M241.1,341.2h97.7v32.2H173.2V365l82.3-88.5c13.3-14,22.8-25.7,28.4-35c5.6-9.3,8.4-18.8,8.4-28.3
		c0-11.9-3.5-21.6-10.5-29.2c-7-7.6-16.3-11.4-28-11.4c-11.7,0-21.1,4-28.3,11.9c-7.2,7.9-10.8,18-10.8,30.1
		c0,4.2,0.6,10.1,1.8,17.8h-37.5c-1.6-5.8-2.5-12.5-2.5-20c0-19.8,7.2-37.1,21.7-51.8c14.5-14.7,33.1-22,56-22
		c21.9,0,40.2,6.9,54.8,20.6c14.6,13.8,21.9,30.8,21.9,51.1c0,15.9-4.2,30.2-12.6,43c-7.5,11.9-19.6,26.8-36.4,44.8L241.1,341.2z"/>
</g>
</svg>
