<?xml version="1.0" encoding="utf-8"?>
<!-- Generator: Adobe Illustrator 19.0.0, SVG Export Plug-In . SVG Version: 6.00 Build 0)  -->
<svg version="1.1" id="Слой_1" xmlns="http://www.w3.org/2000/svg" xmlns:xlink="http://www.w3.org/1999/xlink" x="0px" y="0px"
	 viewBox="-242 403.7 90 60.8" style="enable-background:new -242 403.7 90 60.8;" xml:space="preserve">
<style type="text/css">
	.st0{fill:#FFFFFF;}
</style>
<path class="st0" d="M-155,403.8h-36.5l17.7-17.6c0.6-0.6,0.6-1.6,0-2.3c-0.6-0.6-1.6-0.6-2.3,0l-19.8,19.7l-24.5-24.3
	c-0.6-0.6-1.6-0.6-2.3,0c-0.6,0.6-0.6,1.6,0,2.3l22.4,22.2H-239c-1.7,0-3,1.3-3,3v54.7c0,1.7,1.3,3,3,3h84c1.7,0,3-1.3,3-3v-54.7
	C-152,405.2-153.4,403.8-155,403.8z M-174.5,455.1c0,1.7-1.4,3-3,3h-55c-1.7,0-3-1.3-3-3v-41.9c0-1.7,1.3-3,3-3h55c1.7,0,3,1.3,3,3
	V455.1z M-163.3,458.1c-2.7,0-4.8-2.1-4.8-4.8c0-2.6,2.2-4.8,4.8-4.8s4.8,2.1,4.8,4.8C-158.4,456-160.6,458.1-163.3,458.1z
	 M-163.3,445.3c-2.7,0-4.8-2.1-4.8-4.8c0-2.6,2.2-4.8,4.8-4.8s4.8,2.1,4.8,4.8S-160.6,445.3-163.3,445.3z M-156.8,426.2h-12.9
	c-0.9,0-1.6-0.7-1.6-1.6s0.7-1.6,1.6-1.6h12.9c0.9,0,1.6,0.7,1.6,1.6S-155.9,426.2-156.8,426.2z M-156.8,419.8h-12.9
	c-0.9,0-1.6-0.7-1.6-1.6c0-0.9,0.7-1.6,1.6-1.6h12.9c0.9,0,1.6,0.7,1.6,1.6C-155.2,419.1-155.9,419.8-156.8,419.8z M-156.8,413.4
	h-12.9c-0.9,0-1.6-0.7-1.6-1.6c0-0.9,0.7-1.6,1.6-1.6h12.9c0.9,0,1.6,0.7,1.6,1.6C-155.2,412.7-155.9,413.4-156.8,413.4z"/>
<text transform="matrix(1 0 0 1 -41 679.89)" style="font-family:'Arial-BoldMT'; font-size:5px;">Created by Ralf Schmitzer</text>
<text transform="matrix(1 0 0 1 -41 684.89)" style="font-family:'Arial-BoldMT'; font-size:5px;">from the Noun Project</text>
</svg>
