<?xml version="1.0" encoding="utf-8"?>
<!-- Generator: Adobe Illustrator 19.2.0, SVG Export Plug-In . SVG Version: 6.00 Build 0)  -->
<svg version="1.1" id="Слой_1" xmlns="http://www.w3.org/2000/svg" xmlns:xlink="http://www.w3.org/1999/xlink" x="0px" y="0px"
	 viewBox="0 0 32 32" style="enable-background:new 0 0 32 32;" xml:space="preserve">
<style type="text/css">
	.st0{fill:#242526;}
</style>
<path class="st0" d="M26.8,17.2H5.2C4.5,17.2,4,16.7,4,16s0.5-1.2,1.2-1.2h21.6c0.7,0,1.2,0.5,1.2,1.2S27.5,17.2,26.8,17.2z
	 M26.8,11.2H5.2C4.5,11.2,4,10.7,4,10s0.5-1.2,1.2-1.2h21.6c0.7,0,1.2,0.5,1.2,1.2S27.5,11.2,26.8,11.2z M5.2,20.8h21.6
	c0.7,0,1.2,0.5,1.2,1.2s-0.5,1.2-1.2,1.2H5.2C4.5,23.2,4,22.7,4,22S4.5,20.8,5.2,20.8z"/>
</svg>
