<?xml version="1.0" encoding="utf-8"?>
<!-- Generator: Adobe Illustrator 19.0.0, SVG Export Plug-In . SVG Version: 6.00 Build 0)  -->
<svg version="1.1" id="Слой_1" xmlns="http://www.w3.org/2000/svg" xmlns:xlink="http://www.w3.org/1999/xlink" x="0px" y="0px"
	 viewBox="-281 404.9 32 32" style="enable-background:new -281 404.9 32 32;" xml:space="preserve">
<style type="text/css">
	.st0{fill-rule:evenodd;clip-rule:evenodd;fill:#1D6FA4;}
</style>
<g id="Shopping_Bag_2">
	<g>
		<path class="st0" d="M-249.9,435.9l-1.5-24c0-0.4-0.4-0.7-0.8-0.7h-6.6c0,0,0,0,0-0.1c0-3.4-2.8-6.2-6.2-6.2
			c-3.4,0-6.2,2.8-6.2,6.2v0.1h-6.6c-0.4,0-0.7,0.3-0.8,0.7l-1.6,24.2c0,0.2,0.1,0.4,0.2,0.6c0.1,0.2,0.4,0.2,0.6,0.2h28.6
			c0,0,0,0,0,0c0.4,0,0.8-0.3,0.8-0.8C-249.9,436-249.9,436-249.9,435.9z M-269.6,411.1c0-2.5,2.1-4.6,4.6-4.6
			c2.5,0,4.6,2.1,4.6,4.6c0,0,0,0,0,0.1L-269.6,411.1L-269.6,411.1z M-278.5,435.3l1.5-22.6h5.8v1.8c-0.4,0.3-0.6,0.7-0.6,1.2
			c0,0.8,0.6,1.4,1.4,1.4c0.8,0,1.4-0.6,1.4-1.4c0-0.5-0.3-0.9-0.6-1.2v-1.8h9.2v1.8c-0.4,0.3-0.6,0.7-0.6,1.2
			c0,0.8,0.6,1.4,1.4,1.4c0.8,0,1.4-0.6,1.4-1.4c0-0.5-0.3-0.9-0.6-1.2v-1.8h5.8l1.5,22.6H-278.5z"/>
	</g>
</g>
</svg>
