<?xml version="1.0" encoding="utf-8"?>
<!-- Generator: Adobe Illustrator 19.0.0, SVG Export Plug-In . SVG Version: 6.00 Build 0)  -->
<svg version="1.1" id="Слой_1" xmlns="http://www.w3.org/2000/svg" xmlns:xlink="http://www.w3.org/1999/xlink" x="0px" y="0px"
	 viewBox="-281 404.9 32 32" style="enable-background:new -281 404.9 32 32;" xml:space="preserve">
<style type="text/css">
	.st0{fill:#1D6FA4;}
</style>
<g>
	<g>
		<path class="st0" d="M-251.7,413.6c-0.1-0.1-0.3-0.1-0.5-0.1c0,0-2.7,1-6.2,1c-2.2,0-4.1-0.7-6-1.3c-1.9-0.6-3.8-1.3-5.9-1.3
			c-3,0-7.6,1.6-7.8,1.6c-0.2,0.1-0.4,0.3-0.4,0.5v14.3c0,0.2,0.1,0.3,0.2,0.4s0.3,0.1,0.5,0.1c0,0,4.5-1.6,7.4-1.6
			c1.9,0,3.7,0.6,5.6,1.3c2,0.7,4,1.4,6.4,1.4c3.7,0,6.5-1.1,6.6-1.1c0.2-0.1,0.3-0.3,0.3-0.5V414
			C-251.5,413.8-251.6,413.7-251.7,413.6z M-252.6,414.8v2.2c-0.2,0-0.3,0.1-0.5,0.1c-1,0-1.8-0.8-1.8-1.8
			C-253.9,415.1-253.2,414.9-252.6,414.8z M-277.4,414.4c0.3-0.1,0.9-0.3,1.6-0.5c0.1,0.2,0.1,0.4,0.1,0.6c0,1-0.8,1.7-1.7,1.8
			V414.4z M-277.4,427.6v-2.2c0.1,0,0.3-0.1,0.4-0.1c0.9,0,1.7,0.7,1.8,1.7C-276.1,427.2-276.9,427.4-277.4,427.6z M-255.7,428.6
			c-0.8,0.1-1.8,0.2-2.9,0.2c-2.2,0-4.1-0.7-6-1.3c-1.9-0.6-3.8-1.3-5.9-1.3c-1.2,0-2.5,0.2-3.8,0.5c-0.2-1.4-1.4-2.5-2.8-2.5h-0.4
			v-7c1.5,0,2.8-1.3,2.8-2.8c0-0.3-0.1-0.6-0.1-0.8c1.4-0.4,3.1-0.7,4.4-0.7c1.9,0,3.7,0.6,5.5,1.3c2,0.7,4,1.4,6.4,1.4
			c0.9,0,1.8-0.1,2.6-0.2c0.1,1.5,1.3,2.7,2.8,2.7h0.5v6.9h-0.4c-1.6,0-2.8,1.3-2.8,2.8C-255.8,428.1-255.7,428.4-255.7,428.6z
			 M-252.5,427.9L-252.5,427.9c-0.5,0.1-1.2,0.3-2.1,0.5c-0.1-0.2-0.1-0.4-0.1-0.6c0-1,0.8-1.8,1.8-1.8h0.4L-252.5,427.9
			L-252.5,427.9z"/>
	</g>
	<g>
		<path class="st0" d="M-267.3,422.2c-0.2,0.1-0.3,0.1-0.5,0.1c-0.8,0-1.3-0.5-1.3-1.5c0-0.9,0.5-1.4,1.3-1.4c0.2,0,0.4,0,0.5,0.1
			c0.2,0.1,0.2,0.1,0.4,0.3l-0.6,0.6c-0.1-0.1-0.2-0.2-0.3-0.2c-0.3,0-0.4,0.2-0.4,0.7c0,0.4,0.1,0.7,0.4,0.7c0.1,0,0.2,0,0.3-0.2
			l0.6,0.6C-267.1,422.1-267.2,422.1-267.3,422.2z"/>
		<path class="st0" d="M-264.5,421.9c-0.2,0.2-0.5,0.4-0.9,0.4s-0.7-0.1-0.9-0.4c-0.2-0.2-0.3-0.5-0.3-1.1c0-0.5,0.1-0.8,0.3-1
			c0.2-0.2,0.5-0.4,0.9-0.4s0.7,0.1,0.9,0.4c0.2,0.2,0.3,0.5,0.3,1.1C-264.2,421.4-264.3,421.7-264.5,421.9z M-265.4,420.2
			c-0.3,0-0.4,0.2-0.4,0.6c0,0.5,0.1,0.7,0.4,0.7s0.4-0.2,0.4-0.7C-265.1,420.4-265.2,420.2-265.4,420.2z"/>
		<path class="st0" d="M-261.6,422.3v-1.4l-0.4,0.7h-0.4l-0.4-0.7v1.4h-0.9v-2.8h0.8l0.6,1.2l0.6-1.2h0.8v2.8H-261.6z"/>
	</g>
</g>
</svg>
