<?xml version="1.0" encoding="utf-8"?>
<!-- Generator: Adobe Illustrator 19.0.0, SVG Export Plug-In . SVG Version: 6.00 Build 0)  -->
<svg version="1.1" xmlns="http://www.w3.org/2000/svg" xmlns:xlink="http://www.w3.org/1999/xlink" x="0px" y="0px"
	 viewBox="0 0 32 32" style="enable-background:new 0 0 32 32;" xml:space="preserve">
<style type="text/css">
	.st0{fill:#2A363B;}
	.st1{fill:none;stroke:#2A363B;stroke-width:1.5;stroke-miterlimit:10;}
</style>
<g id="background_1_">
</g>
<g id="WhatsApp_Logo">
	<g id="Location">
		<g>
			<path class="st0" d="M16,1C9.9,1,4.9,6,4.9,12.1c0,5.9,10.1,18.1,10.5,18.6c0.1,0.2,0.4,0.3,0.6,0.3c0.2,0,0.4-0.1,0.6-0.3
				c0.4-0.5,10.5-12.6,10.5-18.6C27.1,6,22.1,1,16,1z M16,29c-2.2-2.7-9.6-12.2-9.6-16.8c0-5.3,4.3-9.6,9.6-9.6
				c5.3,0,9.6,4.3,9.6,9.6C25.6,16.7,18.2,26.3,16,29z M16.1,6.6c-2.5,0-4.6,2.1-4.6,4.6c0,2.5,2.1,4.6,4.6,4.6
				c2.5,0,4.6-2.1,4.6-4.6C20.8,8.7,18.7,6.6,16.1,6.6z M16.1,14.3c-1.7,0-3.1-1.4-3.1-3.1c0-1.7,1.4-3.1,3.1-3.1
				c1.7,0,3.1,1.4,3.1,3.1C19.2,13,17.8,14.3,16.1,14.3z"/>
		</g>
		<g>
			<path class="st1" d="M16,1C9.9,1,4.9,6,4.9,12.1c0,5.9,10.1,18.1,10.5,18.6c0.1,0.2,0.4,0.3,0.6,0.3c0.2,0,0.4-0.1,0.6-0.3
				c0.4-0.5,10.5-12.6,10.5-18.6C27.1,6,22.1,1,16,1z M16,29c-2.2-2.7-9.6-12.2-9.6-16.8c0-5.3,4.3-9.6,9.6-9.6
				c5.3,0,9.6,4.3,9.6,9.6C25.6,16.7,18.2,26.3,16,29z M16.1,6.6c-2.5,0-4.6,2.1-4.6,4.6c0,2.5,2.1,4.6,4.6,4.6
				c2.5,0,4.6-2.1,4.6-4.6C20.8,8.7,18.7,6.6,16.1,6.6z M16.1,14.3c-1.7,0-3.1-1.4-3.1-3.1c0-1.7,1.4-3.1,3.1-3.1
				c1.7,0,3.1,1.4,3.1,3.1C19.2,13,17.8,14.3,16.1,14.3z"/>
		</g>
	</g>
</g>
</svg>
