<?xml version="1.0" encoding="utf-8"?>
<!-- Generator: Adobe Illustrator 19.0.0, SVG Export Plug-In . SVG Version: 6.00 Build 0)  -->
<svg version="1.1" id="Слой_1" xmlns="http://www.w3.org/2000/svg" xmlns:xlink="http://www.w3.org/1999/xlink" x="0px" y="0px"
	 viewBox="-281 404.9 32 32" style="enable-background:new -281 404.9 32 32;" xml:space="preserve">
<style type="text/css">
	.st0{fill:#FFFFFF;stroke:#FFFFFF;stroke-miterlimit:10;}
	.st1{fill:none;stroke:#FFFFFF;stroke-width:1.5;stroke-miterlimit:10;}
</style>
<g id="background_1_">
</g>
<g id="WhatsApp_Logo">
	<g id="Location">
		<g>
			<path class="st0" d="M-265,405.9c-6.1,0-11.1,5-11.1,11.1c0,5.9,10.1,18.1,10.5,18.6c0.1,0.2,0.4,0.3,0.6,0.3s0.4-0.1,0.6-0.3
				c0.4-0.5,10.5-12.6,10.5-18.6C-253.9,410.9-258.9,405.9-265,405.9z M-265,433.9c-2.2-2.7-9.6-12.2-9.6-16.8
				c0-5.3,4.3-9.6,9.6-9.6s9.6,4.3,9.6,9.6C-255.4,421.6-262.8,431.2-265,433.9z M-264.9,411.5c-2.5,0-4.6,2.1-4.6,4.6
				s2.1,4.6,4.6,4.6s4.6-2.1,4.6-4.6C-260.2,413.6-262.3,411.5-264.9,411.5z M-264.9,419.2c-1.7,0-3.1-1.4-3.1-3.1
				c0-1.7,1.4-3.1,3.1-3.1c1.7,0,3.1,1.4,3.1,3.1C-261.8,417.9-263.2,419.2-264.9,419.2z"/>
		</g>
		<g>
			<path class="st1" d="M-265,405.9c-6.1,0-11.1,5-11.1,11.1c0,5.9,10.1,18.1,10.5,18.6c0.1,0.2,0.4,0.3,0.6,0.3s0.4-0.1,0.6-0.3
				c0.4-0.5,10.5-12.6,10.5-18.6C-253.9,410.9-258.9,405.9-265,405.9z M-265,433.9c-2.2-2.7-9.6-12.2-9.6-16.8
				c0-5.3,4.3-9.6,9.6-9.6s9.6,4.3,9.6,9.6C-255.4,421.6-262.8,431.2-265,433.9z M-264.9,411.5c-2.5,0-4.6,2.1-4.6,4.6
				s2.1,4.6,4.6,4.6s4.6-2.1,4.6-4.6C-260.2,413.6-262.3,411.5-264.9,411.5z M-264.9,419.2c-1.7,0-3.1-1.4-3.1-3.1
				c0-1.7,1.4-3.1,3.1-3.1c1.7,0,3.1,1.4,3.1,3.1C-261.8,417.9-263.2,419.2-264.9,419.2z"/>
		</g>
	</g>
</g>
</svg>
