<?xml version="1.0" encoding="utf-8"?>
<!-- Generator: Adobe Illustrator 19.0.0, SVG Export Plug-In . SVG Version: 6.00 Build 0)  -->
<svg version="1.1" id="Слой_1" xmlns="http://www.w3.org/2000/svg" xmlns:xlink="http://www.w3.org/1999/xlink" x="0px" y="0px"
	 viewBox="-281 404.9 32 32" style="enable-background:new -281 404.9 32 32;" xml:space="preserve">
<style type="text/css">
	.st0{fill:#1D6FA4;}
	.st1{display:none;}
	.st2{display:inline;fill:#1D6FA4;}
	.st3{display:inline;}
	.st4{display:none;fill:#1D6FA4;}
</style>
<g>
	<g>
		<path class="st0" d="M-253.4,412h-23.2c-0.6,0-1-0.5-1-1l0,0c0-0.6,0.5-1,1-1h23.2c0.6,0,1,0.5,1,1l0,0
			C-252.3,411.6-252.8,412-253.4,412z"/>
		<path class="st0" d="M-276.6,431h23.2c0.6,0,1-0.5,1-1l0,0c0-0.6-0.5-1-1-1h-23.2c-0.6,0-1,0.5-1,1l0,0
			C-277.6,430.6-277.2,431-276.6,431z"/>
		<path class="st0" d="M-276.6,421.5h13.7c0.6,0,1-0.5,1-1l0,0c0-0.6-0.5-1-1-1h-13.7c-0.6,0-1,0.5-1,1l0,0
			C-277.6,421-277.2,421.5-276.6,421.5z"/>
	</g>
	<g class="st1">
		<path class="st2" d="M-265.2,432.5c-0.2,0-0.5-0.1-0.6-0.3c-0.5-0.5-11.4-11.5-11.4-17.6c0-4,2.6-6.7,6.4-6.7
			c2.1,0,3.8,0.8,5.1,2.1c0.4,0.4,1.1,0.4,1.4,0c1.2-1.3,3-2.1,5.1-2.1c3.9,0,6.7,2.9,6.7,7c0,2.5-2.1,6.2-6.1,11
			c-2.9,3.4-5.9,6.3-5.9,6.3C-264.7,432.4-264.9,432.5-265.2,432.5z M-270.8,409.8c-2.8,0-4.6,1.9-4.6,4.9c0,3.9,6,11.1,9.6,14.9
			c0.4,0.4,1,0.4,1.4,0c3.7-3.7,10.1-11,10.1-14.6c0-3.1-1.9-5.1-4.9-5.1c-2.9,0-4.9,1.9-4.9,4.6c0,0.5-0.4,0.9-0.9,1
			c-0.5,0-1-0.4-1-0.9C-265.9,411.7-267.9,409.8-270.8,409.8z"/>
	</g>
	<g class="st1">
		<g class="st3">
			<path class="st0" d="M-267.3,434.1c-0.2,0-0.3,0-0.5-0.1c-0.4-0.2-0.6-0.6-0.6-1l0.5-6.7c0-0.6,0.5-1,1.1-1s1,0.5,1,1.1l-0.1,1.6
				c0,0.3,0.3,0.4,0.5,0.2l5.4-8.3c0.1-0.2,0-0.4-0.2-0.4h-3.6c-0.2,0-0.4,0-0.5-0.1c-0.4-0.2-0.6-0.6-0.5-1.1l0.6-4.9
				c0-0.3-0.3-0.4-0.5-0.2l-5,7.5c-0.1,0.2,0,0.4,0.2,0.4h3c0.5,0,1,0.4,1.1,0.9c0.1,0.6-0.4,1.1-1,1.1h-5.5c-0.3,0-0.5-0.1-0.7-0.3
				c-0.4-0.4-0.4-0.9-0.2-1.3l9.5-14.1c0.2-0.3,0.6-0.5,1-0.5c0.6,0.1,1,0.6,0.9,1.2l-1.2,9.2h4.8c0.3,0,0.5,0.1,0.7,0.3
				c0.4,0.4,0.4,0.9,0.2,1.3l-9.5,14.7C-266.7,433.9-267,434.1-267.3,434.1z"/>
		</g>
	</g>
	<g class="st1">
		<path class="st2" d="M-251.6,432.4l-7.6-8c-0.4,0.5-0.9,1-1.5,1.5l7.6,7.9c0.4,0.4,1.1,0.4,1.5-0.1
			C-251.2,433.4-251.2,432.8-251.6,432.4z"/>
		<path class="st2" d="M-260.7,423.5c-1.8,2.1-4.5,3.4-7.5,3.2c-4.6-0.3-8.3-4.1-8.4-8.7c-0.1-5.2,4.2-9.5,9.5-9.2
			c4.3,0.2,7.9,3.6,8.4,7.9c0.1,1.3,0,2.6-0.4,3.7c-0.1,0.4,0,0.8,0.2,1l0,0c0.5,0.6,1.5,0.4,1.8-0.4c0.4-1.3,0.6-2.7,0.5-4.2
			c-0.4-5.5-4.9-10-10.5-10.3c-6.3-0.3-11.5,4.6-11.6,10.8c-0.1,6,4.7,11.1,10.7,11.3c3.7,0.1,7-1.6,9.1-4.2l-1.1-1.1
			C-260.2,423.3-260.5,423.3-260.7,423.5z"/>
	</g>
	<g class="st1">
		<g class="st3">
			<g>
				<path class="st0" d="M-262.8,431c-0.2,0-0.4,0.1-0.6,0.3c-0.4,0.5-1,0.8-1.6,0.8s-1.2-0.3-1.6-0.8c-0.1-0.2-0.4-0.3-0.6-0.3
					s-0.5,0-0.7,0c-0.6,0-1,0.6-0.7,1.1c0.7,1.2,2.1,2,3.6,2s2.9-0.8,3.6-2c0.3-0.5-0.1-1.2-0.7-1.1C-262.3,431-262.5,431-262.8,431
					z"/>
			</g>
			<path class="st0" d="M-256.6,424L-256.6,424L-256.6,424c-0.3-0.2-1.8-1.5-1.8-7c0-1.9-0.3-3.4-0.9-4.5c-0.3-0.6-1.2-0.7-1.7-0.2
				l0,0c-0.3,0.3-0.3,0.8-0.1,1.2c0.4,0.7,0.6,1.9,0.6,3.5c0,7,2.3,8.5,3,8.8c0.7,0.4,0.7,0.7,0.7,0.9c0,0.1-0.1,0.4-0.2,0.5
				c0,0-1.2,0.5-7.9,0.5c-6.8,0-7.9-0.5-7.9-0.5c-0.1-0.1-0.2-0.4-0.2-0.5c0-0.2,0-0.5,0.7-0.9c0.5-0.3,2.7-1.8,2.7-8.8
				c0-3.2,0.8-5,4.8-5c1.2,0,2.3-0.7,2.8-1.7c-0.8-0.2-1.8-0.4-2.8-0.4c-4.7,0-6.8,2.3-6.8,7.1c0,5.7-1.4,6.9-1.6,7
				c-1.2,0.7-1.9,1.6-1.9,2.8c0,0.8,0.5,2.1,1.5,2.5c0.6,0.4,2.2,0.7,8.8,0.7c6.6,0,8.2-0.3,8.8-0.7c1-0.4,1.5-1.7,1.5-2.5
				C-254.7,425.6-255.3,424.7-256.6,424z"/>
			<path class="st0" d="M-265,407.8c0.6,0,1,0.5,1,1s-0.5,1-1,1c-0.6,0-1-0.5-1-1S-265.6,407.8-265,407.8 M-265,405.7
				c-1.8,0-3.2,1.4-3.2,3.2s1.4,3.2,3.2,3.2c1.8,0,3.2-1.4,3.2-3.2S-263.2,405.7-265,405.7L-265,405.7z"/>
		</g>
	</g>
	<g class="st1">
		<g class="st3">
			<path class="st0" d="M-257.6,432.6c-0.2,0-0.5-0.1-0.7-0.3l-4.7-4.2c-0.2-0.2-0.4-0.3-0.7-0.3h-10.8c-1.8,0-3.2-1.4-3.2-3.2V412
				c0-1.8,1.4-3.2,3.2-3.2h19c1.8,0,3.2,1.4,3.2,3.2v12.6c0,1.8-1.4,3.2-3.2,3.2h-2.1c-0.6,0-1-0.5-1-1c0-0.6,0.5-1,1-1h2.1
				c0.6,0,1-0.5,1-1v-12.7c0-0.6-0.5-1-1-1h-18.9c-0.6,0-1,0.5-1,1v12.6c0,0.6,0.5,1,1,1h10.8c0.8,0,1.5,0.3,2.1,0.8l4.7,4.2
				c0.4,0.4,0.5,1,0.1,1.5C-257,432.5-257.3,432.6-257.6,432.6z"/>
		</g>
	</g>
	<path class="st4" d="M-256,415.7L-256,415.7c0-5-4-8.9-9-8.9s-8.9,3.9-9,8.9l0,0l0,0l0,0l0,0c0,6.8,8,13.7,8.3,14
		c0.2,0.2,0.4,0.3,0.7,0.3c0.3,0,0.5-0.1,0.7-0.3C-264,429.4-256,422.6-256,415.7L-256,415.7C-256,415.8-256,415.8-256,415.7
		C-256,415.8-256,415.7-256,415.7z M-264.2,426.7c-0.4,0.4-1.1,0.4-1.5,0c-2.2-2.2-6.1-6.8-6.1-11c0-3.7,3.1-6.8,6.8-6.8
		c3.7,0,6.8,3.1,6.8,6.8C-258.1,420-262,424.5-264.2,426.7z M-256,429.9c0,2.8-4.5,4.2-9,4.2s-9-1.4-9-4.2c0-1.3,1-2.3,2.5-3
		c0.4-0.2,0.9-0.1,1.2,0.3l0,0c0.4,0.5,0.3,1.3-0.4,1.6c-0.8,0.4-1.2,0.8-1.2,1.1c0,0.6,2.3,2.1,6.8,2.1s6.8-1.5,6.8-2.1
		c0-0.3-0.4-0.7-1.2-1.1c-0.6-0.3-0.8-1.1-0.4-1.6l0,0c0.3-0.3,0.8-0.5,1.2-0.3C-257,427.7-256,428.7-256,429.9z M-265,412
		c-2,0-3.7,1.7-3.7,3.7s1.7,3.7,3.7,3.7s3.7-1.7,3.7-3.7S-263,412-265,412z M-265,417.3c-0.9,0-1.6-0.7-1.6-1.6s0.7-1.6,1.6-1.6
		c0.9,0,1.6,0.7,1.6,1.6S-264.1,417.3-265,417.3z"/>
	<g class="st1">
		<path class="st2" d="M-265,426c-3,0-5.5-2.5-5.5-5.5s2.5-5.5,5.5-5.5s5.5,2.5,5.5,5.5c0,0.4-0.1,0.9-0.2,1.3
			c-0.1,0.6-0.7,0.9-1.3,0.8c-0.6-0.1-0.9-0.7-0.8-1.3c0.1-0.3,0.1-0.5,0.1-0.8c0-1.9-1.6-3.4-3.4-3.4s-3.4,1.6-3.4,3.4
			s1.6,3.4,3.4,3.4c0.4,0,0.8-0.1,1.2-0.2c0.5-0.2,1.1,0.1,1.3,0.6s-0.1,1.1-0.6,1.3C-263.7,425.9-264.3,426-265,426z M-260.9,431
			v-1l0.6,0.7c0.6,0.6,1.4,0.9,2.2,0.9s1.6-0.3,2.2-0.9l1.1-1.1c0.6-0.6,0.9-1.4,0.9-2.2s-0.3-1.6-0.9-2.2l-0.7-0.7h1
			c1.8,0,3.3-1.5,3.3-3.3v-1.6c0-1.8-1.6-3.3-3.3-3.3h-1l0.7-0.6c1.2-1.2,1.2-3.2,0-4.5l-1.1-1.1c-0.6-0.6-1.4-0.9-2.2-0.9
			s-1.6,0.3-2.2,0.9l-0.6,0.7v-1c0-1.8-1.5-3.3-3.3-3.3h-1.6c-1.8,0-3.3,1.6-3.3,3.3v1l-0.6-0.7c-0.6-0.6-1.4-0.9-2.2-0.9
			s-1.6,0.3-2.2,0.9l-1.1,1.1c-1.2,1.2-1.2,3.2,0,4.4l0.7,0.6h-1c-1.7,0-3.2,1.5-3.2,3.3v1.6c0,1.8,1.6,3.3,3.3,3.3h1l-0.7,0.6
			c-1.2,1.2-1.2,3.2,0,4.5l1.1,1.1c0.6,0.6,1.4,0.9,2.2,0.9s1.6-0.3,2.2-0.9l0.6-0.7v1c0,1.8,1.5,3.3,3.3,3.3h1.6
			C-262.5,434.3-260.9,432.7-260.9,431z M-270.1,428.2l-1,1c-0.2,0.2-0.5,0.3-0.7,0.3c-0.3,0-0.5-0.1-0.7-0.3l-1.1-1.1
			c-0.4-0.4-0.4-1.1,0-1.5l1-1c0.5-0.5,0.7-1.4,0.4-2.2c-0.3-0.7-1-1.2-1.8-1.2h-1.5c-0.6,0-0.9-0.3-0.9-0.9v-1.6
			c0-0.6,0.3-0.9,0.9-0.9h1.5c0.8,0,1.4-0.5,1.8-1.3l0,0c0.3-0.7,0.1-1.6-0.4-2.1l-1.1-1c-0.4-0.4-0.4-1.1,0-1.5l1.1-1.1
			c0.2-0.2,0.5-0.3,0.7-0.3s0.5,0.1,0.7,0.3l0.9,0.9c0.4,0.4,0.9,0.6,1.5,0.6c0.3,0,0.5-0.1,0.8-0.1l0,0h0.1
			c0.6-0.3,1.1-0.9,1.1-1.6V410c0-0.6,0.3-0.9,0.9-0.9h1.6c0.6,0,0.9,0.3,0.9,0.9v1.5c0,0.8,0.5,1.4,1.3,1.8
			c0.2,0.1,0.5,0.1,0.8,0.1c0.5,0,1-0.2,1.3-0.5l1-1c0.2-0.2,0.5-0.3,0.7-0.3c0.3,0,0.5,0.1,0.7,0.3l1.1,1.1c0.4,0.4,0.4,1.1,0,1.5
			l-1,1c-0.5,0.5-0.7,1.4-0.4,2.2c0.3,0.7,1,1.2,1.8,1.2h1.5c0.6,0,0.9,0.3,0.9,0.9v1.6c0,0.6-0.3,0.9-0.9,0.9h-1.5
			c-0.8,0-1.4,0.5-1.8,1.2l0,0l0,0c-0.3,0.7-0.1,1.5,0.4,2.1l1,1c0.4,0.4,0.4,1.1,0,1.5l-1.1,1.1c-0.2,0.2-0.5,0.3-0.7,0.3
			s-0.5-0.1-0.7-0.3l-1-1c-0.4-0.4-0.8-0.5-1.3-0.5c-0.2,0-0.5,0-0.7,0.1h-0.1c-0.7,0.3-1.2,1-1.2,1.8v1.5c0,0.6-0.3,0.9-0.9,0.9
			h-1.6c-0.6,0-0.9-0.3-0.9-0.9v-1.5c0-0.8-0.5-1.4-1.3-1.8c-0.2-0.1-0.5-0.1-0.8-0.1C-269.2,427.6-269.7,427.8-270.1,428.2z"/>
	</g>
	<g class="st1">
		<path class="st2" d="M-255.5,428.9c-0.3,0-0.5-0.1-0.7-0.3l-3.9-3.9h-9c-1.8,0-3.2-1.4-3.2-3.2V412c0-1.8,1.4-3.2,3.2-3.2h14.8
			c1.8,0,3.2,1.4,3.2,3.2v9.5c0,1.8-1.4,3.2-3.2,3.2h-0.3c-0.6,0-1-0.5-1-1s0.5-1,1-1h0.3c0.6,0,1-0.5,1-1v-9.5c0-0.6-0.5-1-1-1
			h-14.8c-0.6,0-1,0.5-1,1v9.5c0,0.6,0.5,1,1,1h9.5c0.3,0,0.5,0.1,0.7,0.3l4.2,4.2c0.4,0.4,0.4,1.1,0,1.5
			C-255,428.8-255.2,428.9-255.5,428.9z M-273.4,427.9c0-0.6-0.5-1-1-1h-1c-0.6,0-1-0.5-1-1v-9.2c0-0.6,0.5-1,1-1h1c0.6,0,1-0.5,1-1
			s-0.5-1-1-1h-1c-1.8,0-3.2,1.4-3.2,3.2v9.2c0,1.8,1.4,3.2,3.2,3.2h1C-273.9,428.9-273.4,428.4-273.4,427.9z M-272.7,432.8l3.9-3.9
			h8c0.6,0,1-0.5,1-1s-0.5-1-1-1h-8.4c-0.3,0-0.5,0.1-0.7,0.3l-4.2,4.2c-0.4,0.4-0.4,1.1,0,1.5c0.2,0.2,0.5,0.3,0.7,0.3
			C-273.2,433.2-272.9,433-272.7,432.8z"/>
	</g>
	<g class="st1">
		<path class="st2" d="M-263.9,434.2c-0.3,0-0.7-0.2-1-0.6c-0.1-0.1-0.1-0.2-0.1-0.3v-7.9c0-0.1,0.1-0.3,0.2-0.4
			c0.9-0.8,2-0.2,2,0.7v1.3c0,0.3,0.4,0.4,0.5,0.1c2.3-5.1,5.7-12.4,7.6-16.6c0.1-0.2-0.1-0.4-0.3-0.3l-17,7.7
			c-0.3,0.1-0.2,0.5,0.1,0.5h7c1.2,0,2.1,0.9,2.1,2.2v1.3c0,0.1-0.1,0.3-0.2,0.4c-0.9,0.8-2,0.2-2-0.7v-0.5c0-0.3-0.2-0.5-0.5-0.5
			h-12.9c-0.1,0-0.2,0-0.3-0.1c-0.8-0.6-0.6-1.6,0.1-2l25.8-11.6c0.6-0.3,1.4,0.1,1.5,1c0,0.1,0,0.1,0,0.2
			c-3.9,8.5-11.5,25.1-11.7,25.5C-263.2,434-263.5,434.2-263.9,434.2z"/>
	</g>
	<g class="st1">
		<path class="st2" d="M-253.5,422.8c-2,2-6.2,5.4-11.8,5.4c-5.8,0-10-3.5-12-5.6c-0.4-0.4-0.4-1.1,0-1.5s1.1-0.4,1.5,0
			c1.8,1.9,5.5,5,10.5,5c4.9,0,8.6-3,10.3-4.7c0.4-0.4,1.1-0.4,1.5,0C-253,421.7-253,422.4-253.5,422.8z M-254,419.1
			c-0.4,0.2-0.9,0.1-1.2-0.2c-1.1-1-2.5-2.2-4.3-3.1c-0.2-0.1-0.4,0.1-0.3,0.3c0.2,0.6,0.4,1.3,0.4,2c0,3.6-3.3,6.4-7,5.7
			c-2.2-0.5-3.9-2.2-4.4-4.4c-0.2-1.2-0.1-2.3,0.2-3.3c0.1-0.2-0.1-0.4-0.3-0.3c-1.8,0.9-3.2,2.1-4.3,3.1c-0.2,0.2-0.5,0.3-0.7,0.3
			c-0.4,0-0.8-0.2-1-0.7c-0.2-0.4,0-0.8,0.3-1.1c2.4-2.3,6.3-5.1,11.5-5.1c5.2,0,9.1,2.7,11.5,5C-253.2,417.8-253.3,418.7-254,419.1
			z M-261.6,418.8c0.3-0.9-0.5-1.7-1.4-1.4c-0.3,0.1-0.5,0.3-0.6,0.6c-0.3,0.9,0.5,1.7,1.4,1.4C-261.9,419.2-261.7,419-261.6,418.8z
			"/>
	</g>
	<g class="st1">
		<path class="st2" d="M-256.6,425.7c-1.2,0-2.2,0.5-3,1.2l-9.7-5.6c0.1-0.3,0.1-0.6,0.1-0.9c0-0.4-0.1-0.9-0.2-1.2l9.8-5.3
			c0.8,0.8,1.9,1.3,3.1,1.3c2.3,0,4.2-1.9,4.2-4.2s-1.9-4.2-4.2-4.2c-2.3,0-4.2,1.9-4.2,4.2c0,0.4,0,0.7,0.1,1l-9.9,5.4
			c-0.7-0.7-1.8-1.2-2.9-1.2c-2.3,0-4.2,1.9-4.2,4.2s1.9,4.2,4.2,4.2c1.2,0,2.4-0.6,3.2-1.4l9.6,5.6c-0.1,0.4-0.2,0.7-0.2,1.1
			c0,2.3,1.9,4.2,4.2,4.2c2.3,0,4.2-1.9,4.2-4.2S-254.2,425.7-256.6,425.7z M-256.6,408.9c1.1,0,2.1,0.9,2.1,2.1
			c0,1.1-0.9,2.1-2.1,2.1c-0.8,0-1.5-0.4-1.9-1.1l0,0c-0.2-0.3-0.3-0.6-0.3-1C-258.6,409.8-257.7,408.9-256.6,408.9z M-273.4,422.6
			c-1.1,0-2.1-0.9-2.1-2.1c0-1.1,0.9-2.1,2.1-2.1s2.1,0.9,2.1,2.1C-271.3,421.6-272.3,422.6-273.4,422.6z M-256.6,432.1
			c-1.1,0-2.1-0.9-2.1-2.1c0-1.1,0.9-2.1,2.1-2.1c1.1,0,2.1,0.9,2.1,2.1C-254.5,431.1-255.4,432.1-256.6,432.1z"/>
	</g>
	<g class="st1">
		<path class="st2" d="M-269.4,412.3c-0.4-0.4-0.4-1.1,0-1.6l3.7-3.7c0.4-0.4,1.1-0.4,1.5,0l3.7,3.7c0.4,0.4,0.4,1.1,0,1.6
			c-0.2,0.2-0.4,0.3-0.7,0.3s-0.6-0.1-0.8-0.3l-1.9-2v13.3c0,0.6-0.4,1-1,1c-0.6,0-1-0.5-1-1v-13.3l-2,1.9c-0.2,0.2-0.5,0.3-0.7,0.3
			C-269,412.6-269.2,412.5-269.4,412.3z M-256.6,413.7h-3.4c-0.5,0-1,0.4-1.1,0.9c-0.1,0.6,0.4,1.1,1,1.1h2.9c0.3,0,0.5,0.2,0.5,0.5
			v15.3c0,0.3-0.2,0.4-0.5,0.4H-273c-0.3,0-0.5-0.1-0.5-0.4v-15.2c0-0.3,0.2-0.5,0.5-0.5h2.8c0.5,0,1-0.4,1.1-0.9
			c0.1-0.6-0.4-1.1-1-1.1h-3.4c-1.2,0-2,0.8-2,2v16.3c0,1.2,0.8,2.2,2,2.2h16.9c1.2,0,2-1.1,2-2.2v-16.3
			C-254.5,414.6-255.4,413.7-256.6,413.7z"/>
	</g>
	<g class="st1">
		<path class="st2" d="M-265,417.3c-0.6,0-1-0.5-1-1v-8.4c0-0.6,0.4-1,1-1c0.6,0,1,0.5,1,1v8.4C-264,416.8-264.4,417.3-265,417.3z
			 M-252.9,422.1c0-5-2.9-9.4-7.5-11.3c-0.5-0.2-1.1,0-1.4,0.6c-0.2,0.5,0,1.1,0.6,1.4c3.7,1.5,6.2,5.2,6.2,9.3c0,5.5-4.5,10-10,10
			s-10-4.5-10-10c0-4.1,2.4-7.7,6.2-9.3c0.5-0.2,0.8-0.8,0.6-1.4c-0.2-0.5-0.8-0.8-1.4-0.6c-4.6,1.9-7.5,6.3-7.5,11.2
			c0,6.7,5.4,12.1,12.1,12.1S-252.9,428.7-252.9,422.1z"/>
	</g>
	<g class="st1">
		<path class="st2" d="M-255.6,412.5l3.3-3.3c0.4-0.4,0.4-1,0.1-1.4c-0.4-0.5-1.1-0.5-1.6-0.1l-3.4,3.4l-7.2-0.6
			c-0.6-0.1-1.2,0.2-1.7,0.6l-11.6,11.5c-0.8,0.8-0.8,2.2,0,3l7.5,7.5c0.8,0.8,2.2,0.8,3,0l11.6-11.6c0.4-0.4,0.7-1,0.6-1.7
			L-255.6,412.5z M-261.9,417.3c0.4,0.4,0.4,1.1,0,1.5c-0.4,0.4-1.1,0.4-1.5,0c-0.4-0.4-0.4-1.1,0-1.5
			C-263,416.9-262.3,416.9-261.9,417.3z M-269,431.1l-6.7-6.7c-0.2-0.2-0.2-0.5,0-0.7l11-11c0.1-0.1,0.3-0.2,0.4-0.2l4.1,0.4
			c0.4,0,0.6,0.6,0.3,0.9l-1.5,1.4c-1.2-0.6-2.8-0.3-3.7,0.7c-1.1,1.2-1,3.1,0,4.2c1.2,1.3,3.3,1.3,4.6,0.1c1-1,1.2-2.4,0.6-3.6
			l1.5-1.5c0.3-0.3,0.8-0.1,0.9,0.3l0.4,4.1c0,0.2,0,0.3-0.2,0.4l-11,11.1C-268.4,431.3-268.8,431.3-269,431.1z M-268.6,427
			c-0.4,0.4-1.1,0.4-1.5,0l-1.5-1.5c-0.4-0.4-0.4-1.1,0-1.5c0.4-0.4,1.1-0.4,1.5,0l1.5,1.5C-268.2,425.9-268.2,426.6-268.6,427z
			 M-264.1,424c0.4,0.4,0.4,1.1,0,1.5c-0.4,0.4-1.1,0.4-1.5,0l-4.5-4.5c-0.4-0.4-0.4-1.1,0-1.5c0.4-0.4,1.1-0.4,1.5,0L-264.1,424z"
			/>
	</g>
	<g class="st1">
		<path class="st2" d="M-265,432c-6.4,0-11.6-5.2-11.6-11.5s5.2-11.5,11.6-11.5c6.4,0,11.6,5.2,11.6,11.5c0,2.3-0.7,4.5-2,6.4
			c-0.3,0.5-0.9,0.6-1.4,0.3c-0.5-0.3-0.6-0.9-0.3-1.4c1-1.6,1.6-3.4,1.6-5.3c0-5.2-4.3-9.5-9.5-9.5s-9.5,4.2-9.5,9.5
			s4.2,9.5,9.5,9.5c1.9,0,3.7-0.5,5.2-1.6c0.5-0.3,1.1-0.2,1.4,0.3s0.2,1.1-0.3,1.4C-260.5,431.3-262.7,432-265,432z M-259.7,419.9
			l-4.5-4.5c-0.2-0.2-0.6-0.3-0.9-0.3s-0.6,0.1-0.9,0.3l-4.5,4.5c-0.4,0.4-0.4,0.9-0.2,1.3c0.4,0.6,1.1,0.6,1.6,0.2l2.4-2.4
			c0.2-0.2,0.5,0,0.5,0.2v6c0,0.5,0.2,0.9,0.7,1c0.7,0.2,1.3-0.3,1.3-1v-6c0-0.2,0.3-0.3,0.5-0.2l2.3,2.3c0.5,0.5,1.2,0.4,1.6-0.2
			C-259.3,420.8-259.4,420.2-259.7,419.9z"/>
	</g>
	<g class="st1">
		<g class="st3">
			<path class="st0" d="M-255.5,415.2h-19c-1.2,0-2.1,0.9-2.1,2.1v14.8c0,1.2,0.9,2.1,2.1,2.1h19c1.2,0,2.1-0.9,2.1-2.1v-14.8
				C-253.4,416.2-254.3,415.2-255.5,415.2z M-256,432.1h-18c-0.3,0-0.5-0.2-0.5-0.5v-13.7c0-0.3,0.2-0.5,0.5-0.5h1
				c0.3,0,0.5,0.2,0.5,0.5v11c0,0.5,0.4,1,0.9,1.1c0.6,0.1,1.1-0.4,1.1-1v-11.1c0-0.3,0.2-0.5,0.5-0.5h13.7c0.3,0,0.5,0.2,0.5,0.5
				v13.7C-255.5,431.8-255.7,432.1-256,432.1z"/>
			<path class="st0" d="M-270.2,412c0-1.6,1.1-2.8,2.6-3.1c0.2,0,0.4,0.2,0.3,0.4c-0.5,0.8-0.7,1.7-0.7,2.7v1c0,0.6,0.5,1,1,1l0,0
				c0.6,0,1-0.5,1-1v-1c0-0.7,0.2-1.3,0.6-1.9c0.2-0.3,0.6-0.3,0.8,0c0.4,0.5,0.6,1.2,0.6,1.9v1c0,0.6,0.5,1,1,1l0,0
				c0.6,0,1-0.5,1-1v-1c0-1-0.3-1.9-0.7-2.7c0.2-0.3,0.1-0.1,0.3-0.4c1.4,0.3,2.6,1.6,2.6,3.1v1c0,0.6,0.5,1,1,1l0,0
				c0.6,0,1-0.5,1-1v-0.9c0-2.8-2.1-5.2-4.8-5.4c-0.9-0.1-1.8,0.1-2.6,0.4l0,0c-0.8-0.3-1.7-0.5-2.6-0.4c-2.7,0.2-4.8,2.6-4.8,5.4
				v0.9c0,0.6,0.5,1,1,1l0,0c0.6,0,1-0.5,1-1v-1H-270.2z"/>
		</g>
	</g>
	<g class="st1">
		<path class="st2" d="M-257.6,418.4v13.7c0,1.2-0.9,2.1-2.1,2.1h-10.8c-1,0-1.9-0.8-1.9-1.9v-13.9c0-0.8,0.8-1.3,1.7-0.9
			c0.3,0.2,0.4,0.5,0.4,0.8v13.3c0,0.3,0.2,0.5,0.5,0.5h9.5c0.3,0,0.5-0.2,0.5-0.5v-13.3c0-0.3,0.2-0.6,0.4-0.8
			C-258.4,417-257.6,417.6-257.6,418.4z M-262.9,427.9h-4.2c-0.6,0-1,0.5-1,1c0,0.6,0.5,1,1,1h4.2c0.6,0,1-0.5,1-1
			C-261.8,428.3-262.3,427.9-262.9,427.9z M-262.9,423.6h-4.2c-0.6,0-1,0.5-1,1s0.5,1,1,1h4.2c0.6,0,1-0.5,1-1
			S-262.3,423.6-262.9,423.6z M-262.9,419.4h-4.2c-0.6,0-1,0.5-1,1s0.5,1,1,1h4.2c0.6,0,1-0.5,1-1S-262.3,419.4-262.9,419.4z
			 M-272.4,415.2c0-0.6,0.5-1,1-1c0-2,1.3-3.6,3.2-4.1v-1.2c0-1.8,1.4-3.2,3.2-3.2c1.8,0,3.2,1.4,3.2,3.2v1.2
			c1.8,0.5,3.2,2.1,3.2,4.1c0.6,0,1,0.5,1,1c0,0.6-0.5,1-1,1h-12.7C-271.9,416.3-272.4,415.8-272.4,415.2z M-269.2,414.1h8.4
			c0-1.1-0.9-2.1-2.1-2.1l0,0c-0.6,0-1-0.5-1-1v-2.1c0-0.6-0.5-1.1-1.1-1c-0.5,0.1-0.9,0.5-0.9,1.1v2.1c0,0.6-0.5,1-1,1l0,0
			C-268.3,412-269.2,413-269.2,414.1z"/>
	</g>
	<g class="st1">
		<path class="st2" d="M-265,432c-6.4,0-11.6-5.2-11.6-11.5s5.2-11.5,11.6-11.5c6.4,0,11.6,5.2,11.6,11.5c0,2.3-0.7,4.5-2,6.4
			c-0.3,0.5-0.9,0.6-1.4,0.3c-0.5-0.3-0.6-0.9-0.3-1.4c1-1.6,1.6-3.4,1.6-5.3c0-5.2-4.3-9.5-9.5-9.5s-9.5,4.2-9.5,9.5
			s4.2,9.5,9.5,9.5c1.9,0,3.7-0.5,5.2-1.6c0.5-0.3,1.1-0.2,1.4,0.3s0.2,1.1-0.3,1.4C-260.5,431.3-262.7,432-265,432z M-259.6,419.7
			c-0.4-0.6-1.1-0.6-1.6-0.2l-2.3,2.3c-0.2,0.2-0.5,0-0.5-0.2v-6c0-0.7-0.6-1.2-1.3-1c-0.4,0.1-0.7,0.6-0.7,1v6
			c0,0.2-0.3,0.3-0.5,0.2l-2.4-2.4c-0.5-0.5-1.2-0.4-1.6,0.2c-0.3,0.4-0.2,1,0.2,1.3l4.4,4.5c0.2,0.2,0.6,0.3,0.9,0.3
			s0.6-0.1,0.9-0.3l4.5-4.5C-259.4,420.7-259.3,420.1-259.6,419.7z"/>
	</g>
	<g class="st1">
		<path class="st2" d="M-268.2,429.9c0,1.2-0.9,2.1-2.1,2.1s-2.1-0.9-2.1-2.1c0-1.1,0.9-2.1,2.1-2.1S-268.2,428.8-268.2,429.9z
			 M-257.6,427.9c-1.2,0-2.1,0.9-2.1,2.1c0,1.1,0.9,2.1,2.1,2.1s2.1-0.9,2.1-2.1S-256.5,427.9-257.6,427.9z M-269.2,413.1
			c-0.5,0-1.1,0.3-1.1,1s0.4,1,1,1h14.8c0.3,0,0.6,0.4,0.5,0.7l-1.4,5.5c0,0.2-0.2,0.4-0.4,0.4l-13.4,2.7c-0.3,0.1-0.5-0.1-0.6-0.4
			l-3.8-13.3c-0.1-0.4-0.5-0.7-1-0.7h-3.1c-0.5,0-1,0.4-1.1,0.9c-0.1,0.6,0.4,1.1,1,1.1h2c0.2,0,0.4,0.2,0.5,0.4l3.6,12.7
			c0.3,1.1,1.4,1.7,2.5,1.5l14.2-2.9c0.8-0.2,1.4-0.8,1.6-1.6l1.8-7.1c0.2-1-0.5-2-1.6-2C-253,413.1-269.2,413.1-269.2,413.1z"/>
	</g>
	<g class="st1">
		<path class="st2" d="M-262.9,416.3c0,1.2-0.9,2.1-2.1,2.1s-2.1-0.9-2.1-2.1s0.9-2.1,2.1-2.1S-262.9,415.1-262.9,416.3z
			 M-264.3,436c0.2-0.2,0.8-0.7,1.2-0.9l0.1-0.1c0.7-0.5,2.2-1.4,2.2-3.9l0,0c0-0.6-0.5-1-1-1l0,0c-0.6,0-1,0.5-1,1l0,0
			c0,1.4-0.6,1.8-1.2,2.2l-0.1,0.1c-0.2,0.2-0.5,0.4-0.7,0.5c-0.2-0.2-0.5-0.4-0.7-0.5l-0.1-0.1c-0.7-0.5-1.2-0.8-1.2-2.2l0,0
			c0-0.6-0.5-1-1-1l0,0c-0.6,0-1,0.5-1,1l0,0c0,2.6,1.3,3.4,2.2,4l0.1,0.1c0.5,0.3,1.1,0.9,1.1,0.9l0.7,0.7L-264.3,436z
			 M-254.2,427.9c0,1-0.3,2-0.8,2.9c-0.2,0.3-0.5,0.4-0.8,0.5c0,0,0,0-0.1,0c-0.3,0-0.6-0.1-0.8-0.4c-1.2-1.4-2.4-1.9-4.3-1.9
			c-0.1,0-0.1,0-0.2,0l0,0h-2.7v1c0,0.6-0.4,1-1,1s-1-0.5-1-1v-1h-2.2c-1.9,0-3.1,0.5-4.3,1.9c-0.2,0.2-0.5,0.4-0.8,0.4
			c0,0,0,0-0.1,0c-0.3,0-0.6-0.2-0.8-0.5c-0.5-0.8-0.8-1.9-0.8-2.9c0-2.5,1.7-4.5,4-5.1c-0.2-1-0.3-2.1-0.3-3.3
			c0-5.2,3.3-12.6,6.3-12.6c2,0,3.6,2.8,4.4,4.5c1.2,2.6,2,5.7,2,8.2c0,1.2-0.1,2.2-0.2,3.2C-256.2,422.9-254.2,425.1-254.2,427.9z
			 M-269.8,426.9c-0.2-0.4-0.4-1-0.6-1.6c-0.1-0.3-0.4-0.5-0.7-0.3c-1,0.5-1.8,1.6-1.8,2.8c0,0.1,0,0.3,0,0.4
			C-272,427.6-271,427.1-269.8,426.9z M-262.4,426.9c0.5-1,1.7-3.7,1.7-7.4c0-2.2-0.6-5-1.8-7.3c-1.1-2.5-2.2-3.3-2.5-3.3
			c-0.9,0-4.2,5.6-4.2,10.5c0,1.4,0.2,2.6,0.4,3.7c0.1,0.2,0.1,0.3,0.1,0.5v0.1c0.4,1.5,0.8,2.5,1.1,3.1h1.5v-3.2c0-0.6,0.4-1,1-1
			s1,0.5,1,1v3.3L-262.4,426.9L-262.4,426.9z M-256.3,427.9c0-1.6-1.1-2.8-2.6-3.1c-0.3,0-0.5,0.1-0.6,0.4c-0.2,0.7-0.4,1.2-0.6,1.7
			c1.5,0.1,2.7,0.6,3.8,1.4C-256.3,428.1-256.3,428-256.3,427.9z"/>
	</g>
	<g class="st1">
		<path class="st2" d="M-265,406.8c-7.6,0-13.7,6.1-13.7,13.7s6.1,13.7,13.7,13.7c7.6,0,13.7-6.1,13.7-13.7S-257.4,406.8-265,406.8z
			 M-255.3,414.1c-0.2,0-0.4,0-0.6,0c-0.2,0-0.4,0-0.6,0c-0.5,0-0.9-0.1-1-0.2c0-1.1,0.2-1.6,0.5-2
			C-256.4,412.6-255.8,413.4-255.3,414.1z M-268,409.3c0,0,0.4,0.7,0.5,0.8c0.1,0,0.1,0.1,0.1,0.2c0,0,0,0,0,0.1c0,0.3,0,1,0.7,1.5
			c0.4,0.3,0.8,0.3,1.2,0.3c0.1,0,0.3,0,0.4,0c0,0.6-0.2,0.9-0.4,1.2c-0.3,0.4-0.6,0.9-0.6,1.7c-0.3,0-0.8,0-1,0
			c-1.3,0-3.2,1.1-3.2,3.2c0,2.2,1.6,3.2,3.2,3.2c0.5,0,1.2,0.3,1.7,0.6c0.2,0.2,0.5,0.3,0.5,1.6c0,0.6,0,0.9-1.8,2.4
			c-1.2,1-2.3,2.6-3.1,3.9c-0.7-1.1-1.5-3.3-1.5-4.2c0-1,0.2-1.4,0.5-1.9c0.2-0.3,0.3-0.5,0.5-0.9c0.5-1.4,0-2.9-1.3-4.2
			c-0.2-0.2-0.5-0.5-0.7-0.7c-0.7-0.6-1-0.9-1-1.7c0,0-0.2-2-0.3-2.9c0-0.4,0.3-0.8,0.3-0.8S-270.4,409.9-268,409.3z M-276.5,420.5
			c0-1.7,0.4-3.3,1.1-4.8v0.6c0,1.9,1,2.7,1.8,3.4c0.2,0.2,0.4,0.3,0.6,0.5c0.7,0.7,1,1.4,0.8,2.1c0,0.1-0.1,0.3-0.3,0.5
			c-0.4,0.6-0.8,1.4-0.8,3c0,0.6,0.4,2.1,1,3.6C-274.9,427.2-276.5,424-276.5,420.5z M-268.4,431.5c0.7-1.2,2-3,3.1-3.9
			c1.8-1.6,2.5-2.4,2.5-4s-0.4-2.5-1.3-3.2c-0.7-0.6-2-1-2.9-1c-1,0-1-0.7-1-1c0-0.7,0.8-1,1-1c1.2,0,2,0,2.6-0.7
			c0.4-0.4,0.5-0.8,0.5-1.4c0-0.2,0-0.2,0.2-0.5c0.3-0.5,0.8-1.2,0.8-2.6c0-1.8-1.8-1.9-2.4-2l0,0c-0.1-0.4-0.2-0.8-0.4-1.1
			c0.2,0,0.5,0,0.7,0c2.3,0,4.4,0.7,6.2,1.8c-0.8,1-0.9,2.3-0.9,3.4c0,1.3,1.2,2.1,3.2,2.1c0.2,0,0.4,0,0.6,0c0.5,0,1,0,1.4,0l0,0
			c0.1,0,0.2,0,0.2,0c0.1,0.3,0.3,0.7,0.4,1.1c-2.3,0-6.9,0.3-6.9,4.2c0,2.5,1.3,3.3,2.2,3.8c0.1,0.1,0.3,0.2,0.4,0.2
			c0.2,0.1,0.5,0.8,0.6,3.4c0,0.2,0,0.3,0,0.4c-2,1.7-4.6,2.7-7.4,2.7C-266.5,432.1-268.4,431.5-268.4,431.5z M-255.6,427.3
			c-0.1-1.5-0.5-2.8-1.4-3.4c-0.2-0.1-0.4-0.2-0.5-0.3c-0.7-0.4-1.1-0.7-1.1-2c0-1.1,0.6-2.1,5.2-2.1c0,0.3,0,0.7,0,1
			C-253.4,423-254.2,425.4-255.6,427.3z"/>
	</g>
	<g class="st1">
		<path class="st2" d="M-265,406.8c-7.6,0-13.7,6.1-13.7,13.7s6.1,13.7,13.7,13.7c7.6,0,13.7-6.1,13.7-13.7S-257.4,406.8-265,406.8z
			 M-253.4,420.5c0,0.4,0,0.7,0,1c-0.6,0-0.9-0.3-1.4-1.2s-1.2-2-2.8-2c-0.6,0-1.1,0.2-1.4,0.5c-0.6,0.6-0.6,1.4-0.6,2.2
			c0,0.4,0,0.8-0.1,1.2c-0.5,2.4-1.5,5.2-2.2,6.3l0,0c-0.1-0.3-0.2-0.6-0.2-0.9c-0.4-1.7-1-3.6-2.6-4c-0.7-0.2-1.3-0.6-1.3-2.1
			c0-1.7,0.6-2.1,3.2-2.1h0.5c1.4,0,2.6-1.2,2.6-2.7s-1.2-2.7-2.6-2.7h-0.5c-0.5,0-0.9-0.1-1-0.1c0-0.3,0-0.6,0-0.8
			c0.1,0,0.2-0.1,0.4-0.1h0.1c0.1,0,2.2-1.1,2.6-3.3C-256.5,411.3-253.4,415.5-253.4,420.5z M-272.8,411.9c0.2,0.1,0.3,0.2,0.4,0.2
			l0,0c0,0.7-0.2,0.9-0.4,1.3c-0.3,0.4-0.6,0.9-0.6,1.7c-0.3,0-0.8,0-1,0c-0.3,0-0.6,0.1-0.9,0.2
			C-274.8,414.1-273.9,412.9-272.8,411.9z M-274.8,426.6c-1.1-1.7-1.7-3.7-1.8-5.8c0.6,0.5,1.3,0.7,2.1,0.7c0.5,0,1.2,0.3,1.7,0.6
			c0.2,0.2,0.5,0.3,0.5,1.6c0,0.6,0,0.9-1.8,2.4C-274.3,426.2-274.6,426.4-274.8,426.6z M-265,432.1c-3.3,0-6.4-1.4-8.5-3.7
			c0.3-0.3,0.5-0.5,0.7-0.7c1.8-1.6,2.5-2.4,2.5-4s-0.4-2.5-1.3-3.2c-0.7-0.6-2-1-2.9-1c-1,0-1-0.7-1-1c0-0.7,0.8-1,1-1
			c1.2,0,2,0,2.6-0.7c0.4-0.4,0.5-0.8,0.5-1.4c0-0.2,0-0.2,0.2-0.5c0.3-0.5,0.8-1.2,0.8-2.6c0-0.8-0.3-1.2-0.7-1.5
			c1.8-1,3.8-1.7,6-1.7c0.7,0,1.4,0.1,2.1,0.2c-0.1,1.2-1.3,1.9-1.5,2c-1.6,0.6-1.7,1.3-1.7,3.1c0,1.3,1.2,2.2,3.2,2.2h0.5
			c0.3,0,0.5,0.2,0.5,0.5s-0.2,0.4-0.5,0.4h-0.5c-1.9,0-5.3-0.1-5.3,4.1c0,1.2,0.4,3.4,2.9,4.1c0.5,0.1,0.8,1.6,1.1,2.5
			c0.1,0.3,0.2,0.6,0.3,0.9c0.5,1.6,1.6,1.8,2.1,1.8c1,0,1.8-1,2.8-3.5c0.6-1.6,1.2-3.5,1.4-4.7c0.1-0.6,0.1-1.2,0.1-1.7
			c0-0.2,0-0.4,0-0.6c0.3,0,0.4,0.2,0.8,0.9c0.5,0.8,1.2,2,2.8,2.2C-255.2,428.5-259.7,432.1-265,432.1z"/>
	</g>
	<g class="st1">
		<path class="st2" d="M-251.3,415.2c0-0.8-0.4-1.3-0.7-1.6c-0.7-0.6-1.8-0.8-3.7-0.5c-0.6,0.1-1,0.6-0.9,1.2s0.6,1,1.2,0.9
			c1.3-0.2,1.9-0.2,2,0c-0.1,0.4-1.1,1.2-2.6,2.2c-1.3-3.7-4.8-6.4-9-6.4c-4.8,0-8.7,3.5-9.4,8.1c-0.1,0-0.1,0-0.2,0.1
			c-3.5,2.1-5,3.8-4.5,5.4c0.4,1,1.6,1.6,3.6,1.6c0.6,0,1.3,0,2.1-0.1c0.2,0,0.3,0,0.5-0.1c1.7,2.5,4.6,4.1,7.8,4.1
			c5.2,0,9.5-4.2,9.5-9.5c0-0.3,0-0.6,0-0.9C-253,418-251.3,416.4-251.3,415.2z M-271.9,418c0.2-0.4,0.5-0.7,1-0.7h8
			c0.5,0,1-0.4,1.1-0.9c0.1-0.6-0.4-1.1-1-1.1h-6.5c-0.2,0-0.4-0.3-0.2-0.5c1.3-1,2.9-1.7,4.6-1.7c3.4,0,6.2,2.3,7.1,5.4
			c-0.5,0.3-1.1,0.6-1.7,0.9h-10.6c-0.5,0-1,0.4-1.1,0.9c-0.1,0.6,0.4,1.1,1,1.1h5.7c-2.8,1-5.2,1.7-7.1,2c-0.4-0.9-0.7-2-0.7-3.1
			C-272.4,419.6-272.2,418.8-271.9,418z M-277,423.8c0.1-0.3,0.8-1.1,2.5-2.2c0.1,0.8,0.3,1.6,0.6,2.3
			C-275.5,424-276.5,424-277,423.8z M-265,427.9c-1,0-1.9-0.2-2.8-0.5c-0.3-0.1-0.2-0.5,0.1-0.5h4.8c0.5,0,1-0.4,1.1-0.9
			c0.1-0.6-0.4-1.1-1-1.1h-4.7c1.3-0.4,2.6-0.8,3.9-1.3c1.5-0.5,3-1.2,4.5-1.9h1.1c0.2,0,0.3,0.1,0.3,0.3
			C-258.4,425.3-261.4,427.9-265,427.9z"/>
	</g>
	<g class="st1">
		<path class="st2" d="M-266,426.8V422c0-0.3-0.2-0.5-0.5-0.5h-4.8c-0.6,0-1.1-0.5-1-1.1c0.1-0.5,0.5-0.9,1.1-0.9h4.7
			c0.3,0,0.5-0.2,0.5-0.5v-4.8c0-0.6,0.5-1.1,1.1-1c0.5,0.1,0.9,0.5,0.9,1.1v4.7c0,0.3,0.2,0.5,0.5,0.5h4.8c0.6,0,1.1,0.5,1,1.1
			c-0.1,0.5-0.5,0.9-1.1,0.9h-4.7c-0.3,0-0.5,0.2-0.5,0.5v4.7c0,0.5-0.4,1-0.9,1.1C-265.5,427.9-266,427.4-266,426.8z M-265,406.8
			c-7.6,0-13.7,6.1-13.7,13.7s6.1,13.7,13.7,13.7c3.4,0,6.7-1.3,9.3-3.6c0.4-0.4,0.4-1,0.1-1.5c-0.4-0.4-1-0.4-1.5-0.1
			c-2.2,2-5,3.1-7.9,3.1c-6.4,0-11.6-5.2-11.6-11.6s5.2-11.6,11.6-11.6s11.6,5.2,11.6,11.6c0,1.9-0.5,3.8-1.4,5.5
			c-0.3,0.5-0.1,1.1,0.4,1.4s1.1,0.1,1.4-0.4c1.1-2,1.7-4.2,1.7-6.5C-251.3,412.9-257.4,406.8-265,406.8z"/>
	</g>
	<g class="st1">
		<path class="st2" d="M-254.5,419.4h-17.2c-0.5,0-0.7-0.6-0.4-0.9l2.6-2.6c0.4-0.4,0.4-1.1,0-1.5s-1.1-0.4-1.5,0l-5.3,5.3
			c-0.4,0.4-0.4,1.1,0,1.5l5.2,5.2c0.2,0.2,0.5,0.3,0.7,0.3c0.2,0,0.5-0.1,0.7-0.3c0.4-0.4,0.4-1.1,0-1.5l-2.5-2.5
			c-0.3-0.3-0.1-0.9,0.4-0.9h17.3c0.6,0,1.1-0.5,1-1.1C-253.5,419.8-254,419.4-254.5,419.4z"/>
	</g>
	<g class="st1">
		<g class="st3">
			<path class="st0" d="M-265,407.8c-7,0-12.6,5.7-12.6,12.6s5.7,12.6,12.6,12.6c6.9,0,12.6-5.7,12.6-12.6S-258,407.8-265,407.8z
				 M-263.5,410.1c0.3,0,0.5,0.4,0.4,0.7c-0.3,0.7-1.1,1.3-1.9,1.3s-1.6-0.5-1.9-1.3c-0.1-0.3,0.1-0.7,0.4-0.7
				c0.5-0.1,1-0.1,1.5-0.1S-264,410-263.5,410.1z M-269.1,430.2c-1-0.4-2-1-2.8-1.8c-0.2-0.2-0.2-0.5-0.1-0.7
				c0.5-0.7,1.5-1.1,2.4-0.8c0.5,0.2,0.9,0.5,1.2,1c0.3,0.7,0.3,1.4,0,2C-268.6,430.2-268.8,430.3-269.1,430.2z M-265,431
				c-0.3,0-0.6,0-0.8,0c-0.3,0-0.6-0.4-0.4-0.7c0.2-0.4,0.2-0.9,0.2-1.4c0-2.3-1.9-4.2-4.2-4.2c-1.1,0-2.2,0.5-3,1.2
				c-0.2,0.2-0.6,0.2-0.8-0.1c-0.9-1.6-1.4-3.4-1.4-5.4c0-4.1,2.4-7.7,5.8-9.4c0.3-0.1,0.6,0,0.7,0.3c0.6,1.6,2.2,2.8,4,2.8
				c1.8,0,3.4-1.2,4-2.8c0.1-0.3,0.4-0.4,0.7-0.3c3.4,1.7,5.8,5.3,5.8,9.4C-254.5,426.3-259.2,431-265,431z"/>
			<path class="st0" d="M-260.8,417.3c-2.3,0-4.2,1.9-4.2,4.2s1.9,4.2,4.2,4.2s4.2-1.9,4.2-4.2S-258.4,417.3-260.8,417.3z
				 M-260.8,423.6c-1.1,0-2.1-0.9-2.1-2.1c0-1.1,0.9-2.1,2.1-2.1s2.1,0.9,2.1,2.1S-259.6,423.6-260.8,423.6z"/>
			<path class="st0" d="M-269.7,415.6c-0.5-0.3-1.1-0.1-1.4,0.4s-0.1,1.1,0.4,1.4c0.3,0.2,0.5,0.5,0.5,0.9c0,0.6-0.5,1-1,1
				c-0.2,0-0.4,0-0.5-0.1c-0.5-0.3-1.1-0.1-1.4,0.4s-0.1,1.1,0.4,1.4s1,0.4,1.6,0.4c1.8,0,3.2-1.4,3.2-3.2
				C-268.2,417.2-268.8,416.2-269.7,415.6z"/>
		</g>
	</g>
	<g class="st1">
		<path class="st2" d="M-258.7,421.5h-4.7h-3.2h-4.8c-0.6,0-1.1-0.5-1-1.1c0.1-0.5,0.5-0.9,1.1-0.9h4.7h3.2h4.8c0.6,0,1.1,0.5,1,1.1
			C-257.7,421.1-258.2,421.5-258.7,421.5z M-265,406.8c-7.6,0-13.7,6.1-13.7,13.7s6.1,13.7,13.7,13.7c3.4,0,6.7-1.3,9.3-3.6
			c0.4-0.4,0.4-1,0.1-1.5c-0.4-0.4-1-0.4-1.5-0.1c-2.2,2-5,3.1-7.9,3.1c-6.4,0-11.6-5.2-11.6-11.6s5.2-11.6,11.6-11.6
			s11.6,5.2,11.6,11.6c0,1.9-0.5,3.8-1.4,5.5c-0.3,0.5-0.1,1.1,0.4,1.4s1.1,0.1,1.4-0.4c1.1-2,1.7-4.2,1.7-6.5
			C-251.3,412.9-257.4,406.8-265,406.8z"/>
	</g>
	<g class="st1">
		<path class="st2" d="M-257.9,415.5c0.4,0.4,0.4,1.1,0,1.5l-8.4,8.4c-0.2,0.2-0.5,0.3-0.7,0.3s-0.5-0.1-0.7-0.3l-4.2-4.2
			c-0.4-0.4-0.4-1.1,0-1.5s1.1-0.4,1.5,0l3.5,3.5l7.7-7.7C-259,415.1-258.3,415.1-257.9,415.5z M-265,406.8
			c-7.6,0-13.7,6.1-13.7,13.7s6.1,13.7,13.7,13.7c3.4,0,6.7-1.3,9.3-3.6c0.4-0.4,0.4-1,0.1-1.5c-0.4-0.4-1-0.4-1.5-0.1
			c-2.2,2-5,3.1-7.9,3.1c-6.4,0-11.6-5.2-11.6-11.6s5.2-11.6,11.6-11.6s11.6,5.2,11.6,11.6c0,1.9-0.5,3.8-1.4,5.5
			c-0.3,0.5-0.1,1.1,0.4,1.4s1.1,0.1,1.4-0.4c1.1-2,1.7-4.2,1.7-6.5C-251.3,412.9-257.4,406.8-265,406.8z"/>
	</g>
	<g class="st1">
		<path class="st2" d="M-265,427.9v6.4 M-264,434.2v-6.3c0-0.6-0.4-1-1-1c-0.6,0-1,0.5-1,1v6.3c0,0.6,0.4,1,1,1
			C-264.4,435.2-264,434.8-264,434.2z M-256.6,423.7c0-0.3-0.2-0.6-0.4-0.8l-4-4.9v-4.6l4.1-5c0.3-0.3,0.3-0.8,0.2-1.2
			c-0.2-0.4-0.5-0.7-0.9-0.7h-14.8c-0.4,0-0.8,0.3-0.9,0.7c-0.2,0.4-0.2,0.8,0,1.1l3.9,5v4.5l-3.9,5c-0.3,0.3-0.3,0.8-0.1,1.2
			c0.2,0.4,0.6,0.7,1,0.7h14.8l0,0C-257,424.9-256.6,424.3-256.6,423.7z M-267.3,419c0.1-0.2,0.3-0.4,0.3-0.6v-5.3
			c0-0.2-0.1-0.4-0.3-0.6l-2.9-3.5h10.4l-2.9,3.5c-0.1,0.2-0.3,0.4-0.3,0.6v5.3c0,0.2,0.1,0.4,0.3,0.6l2.9,3.5h-10.4L-267.3,419z"/>
	</g>
	<g class="st1">
		<path class="st2" d="M-261.3,425.7l-3.7-3.7l-3.7,3.7c-0.4,0.4-1.1,0.4-1.6-0.1c-0.3-0.4-0.3-1,0.1-1.4l3.7-3.7l-3.7-3.7
			c-0.4-0.4-0.4-1.1,0.1-1.6c0.4-0.3,1-0.3,1.4,0.1l3.7,3.7l3.7-3.7c0.4-0.4,1.1-0.4,1.6,0.1c0.3,0.4,0.3,1-0.1,1.4l-3.7,3.7
			l3.7,3.7c0.4,0.4,0.4,1,0.1,1.4C-260.1,426.1-260.8,426.1-261.3,425.7z M-265,406.8c-7.6,0-13.7,6.1-13.7,13.7s6.1,13.7,13.7,13.7
			c3.4,0,6.7-1.3,9.3-3.6c0.4-0.4,0.4-1,0.1-1.5c-0.4-0.4-1-0.4-1.5-0.1c-2.2,2-5,3.1-7.9,3.1c-6.4,0-11.6-5.2-11.6-11.6
			s5.2-11.6,11.6-11.6s11.6,5.2,11.6,11.6c0,1.9-0.5,3.8-1.4,5.5c-0.3,0.5-0.1,1.1,0.4,1.4s1.1,0.1,1.4-0.4c1.1-2,1.7-4.2,1.7-6.5
			C-251.3,412.9-257.4,406.8-265,406.8z"/>
	</g>
	<g class="st1">
		<path class="st2" d="M-255.5,434.2h-19c-0.6,0-1-0.5-1-1v-25.3c0-0.6,0.5-1,1-1h11.8c0.8,0,1.7,0.3,2.2,0.9l5.7,5.7
			c0.3,0.3,0.4,0.7,0.2,1.1s-0.5,0.6-1,0.6h-6.3c-0.6,0-1-0.5-1-1v-5.3h-10.6v23.2h16.9v-14.8c0-0.6,0.5-1,1-1s1,0.5,1,1v15.8
			C-254.5,433.7-254.9,434.2-255.5,434.2z M-260.8,413.1h2.7l-2.7-2.7V413.1z"/>
	</g>
	<g class="st1">
		<path class="st2" d="M-254.5,410h-5.3c0-1.7-1.4-3.4-3.2-3.4h-4.2c-1.8,0-3.2,1.7-3.2,3.4h-5.3c-0.6,0-1,0.4-1,1s0.5,1,1,1h21.1
			c0.6,0,1-0.4,1-1C-253.4,410.5-253.9,410-254.5,410z M-267.1,410c-0.6,0-0.7-0.9-0.1-1h0.1h4.2h0.1c0.6,0.1,0.5,1-0.1,1H-267.1z
			 M-254.5,414.2l-1,19c0,0.6-0.5,1.1-1,1.1h-16.9c-0.6,0-1-0.5-1-1l-1-19c0-0.6,0.4-1.1,1-1.1c0.6,0,1.1,0.3,1.1,0.9l1,17.9h14.8
			l1-17.9c0-0.6,0.5-1,1.1-1C-254.9,413.1-254.4,413.6-254.5,414.2z M-265,429.9c-0.6,0-1-0.5-1-1v-12.6c0-0.6,0.4-1,1-1
			c0.6,0,1,0.5,1,1v12.6C-264,429.5-264.4,429.9-265,429.9z M-269.2,429.9c-0.6,0-1.2-0.5-1.2-1v-11.6c0-0.6,0.6-1,1.2-1
			s1.2,0.5,1.2,1v11.6C-268,429.5-268.6,429.9-269.2,429.9z M-260.8,429.9c-0.6,0-1.2-0.5-1.2-1v-11.6c0-0.6,0.6-1,1.2-1
			c0.6,0,1.2,0.5,1.2,1v11.6C-259.6,429.5-260.2,429.9-260.8,429.9z"/>
	</g>
	<g class="st1">
		<path class="st2" d="M-270.4,420.9L-270.4,420.9c-0.1,0.1-0.2,0.2-0.2,0.3l-2.3,6.2c-0.1,0.2,0.1,0.4,0.3,0.3l6.2-2.3
			c0.1-0.1,0.2-0.1,0.3-0.2l0,0l12.6-12.6l-4.4-4.4L-270.4,420.9z M-257.8,411.3l1.4,1.4l-10.8,10.8l-1.6,0.1l0.1-1.6L-257.8,411.3z
			 M-254.5,431.9h-21c-0.6,0-1-0.4-1-1s0.5-1,1-1h21.1c0.6,0,1,0.4,1,1S-253.9,431.9-254.5,431.9z"/>
	</g>
	<g class="st1">
		<path class="st2" d="M-256.6,419.9c-0.6,0-1,0.5-1,1v8.9h-14.8v-18.9h13.3l-8.2,8.2l0,0c-0.1,0.1-0.2,0.2-0.2,0.3l-2.3,6.2
			c-0.1,0.2,0.1,0.4,0.3,0.3l6.2-2.3c0.1-0.1,0.2-0.1,0.3-0.2l0,0l12.6-12.6l-4.4-4.4l-2.4,2.5c-0.2-0.1-0.4-0.1-0.5-0.1h-15.8
			c-0.6,0-1,0.3-1,0.9v21.1c0,0.6,0.4,0.9,1,0.9h16.9c0.6,0,1-0.3,1-0.9v-10C-255.5,420.4-256,419.9-256.6,419.9z M-253.3,411
			l-10.8,10.8l-1.5,0.1l0.1-1.6l10.8-10.8L-253.3,411z"/>
	</g>
	<g class="st1">
		<path class="st2" d="M-256.6,414.2l-1,19c0,0.6-0.5,1-1,1h-12.7c-0.6,0-1-0.5-1-1l-1-19c0-0.6,0.4-1.1,1-1.1s1.1,0.3,1.1,0.9
			l1,17.9h10.7l1-17.9c0-0.6,0.5-1,1.1-1C-257,413.1-256.5,413.6-256.6,414.2z M-266,428.9v-12.6c0-0.6-0.4-1-1-1c-0.6,0-1,0.5-1,1
			v12.6c0,0.6,0.4,1,1,1C-266.4,429.9-266,429.5-266,428.9z M-261.9,428.9v-12.6c0-0.6-0.4-1-1-1c-0.6,0-1,0.5-1,1v12.6
			c0,0.6,0.4,1,1,1C-262.4,429.9-261.9,429.5-261.9,428.9z M-254.5,411c0,0.6-0.5,1-1,1h-19c-0.6,0-1-0.4-1-1s0.5-1,1-1h4.2
			c0-1.7,1.4-3.4,3.2-3.4h4.2c1.8,0,3.2,1.7,3.2,3.4h4.2C-254.9,410-254.5,410.5-254.5,411z M-261.6,409.5c0-0.3-0.2-0.5-0.5-0.5
			h-5.4c-0.3,0-0.5,0.2-0.5,0.5l0,0c0,0.3,0.2,0.5,0.5,0.5h5.4C-261.8,410-261.6,409.8-261.6,409.5L-261.6,409.5z"/>
	</g>
	<g class="st1">
		<g class="st3">
			<path class="st0" d="M-253.4,411H-266c-0.6,0-1,0.5-1,1v2.1h-9.5c-0.6,0-1,0.5-1,1v3.2c0,0.6,0.5,1,1,1h3.2v8.4h-2.1v-5.2
				c0-0.5-0.4-1-0.9-1.1c-0.6-0.1-1.1,0.4-1.1,1v6.3c0,0.6,0.5,1,1,1h23.1c0.5,0,1-0.4,1.1-0.9c0.1-0.6-0.4-1.1-1-1.1h-4.6
				c-0.2,0-0.3-0.3-0.2-0.4c1-0.9,1.6-2.3,1.6-3.8s-0.6-2.8-1.6-3.8c-0.2-0.2,0-0.4,0.2-0.4h3c0.3,0,0.5,0.2,0.5,0.5v4.7
				c0,0.5,0.4,1,0.9,1.1c0.6,0.1,1.1-0.4,1.1-1v-6.3V412C-252.3,411.5-252.8,411-253.4,411z M-275.5,417.3v-1h9.5c0.6,0,1-0.5,1-1
				v-2.1h10.5v4.2L-275.5,417.3L-275.5,417.3z M-261.8,426.8c-1.8,0-3.2-1.4-3.2-3.2s1.4-3.2,3.2-3.2s3.2,1.4,3.2,3.2
				S-260.1,426.8-261.8,426.8z M-267.1,423.6c0,1.5,0.6,2.8,1.6,3.8c0.2,0.2,0,0.4-0.2,0.4h-5.1c-0.3,0-0.5-0.2-0.5-0.5v-7.4
				c0-0.3,0.2-0.5,0.5-0.5h5.1c0.2,0,0.3,0.3,0.2,0.4C-266.5,420.8-267.1,422.2-267.1,423.6z"/>
			<path class="st0" d="M-257.6,414.1h-4.2c-0.6,0-1,0.6-1,1.2s0.5,1.2,1,1.2h4.2c0.6,0,1-0.6,1-1.2S-257,414.1-257.6,414.1z"/>
			<path class="st0" d="M-274.5,413.1h4.2c0.6,0,1-0.4,1-1s-0.5-1-1-1h-4.2c-0.6,0-1,0.4-1,1S-275.1,413.1-274.5,413.1z"/>
		</g>
	</g>
	<g class="st1">
		<path class="st2" d="M-258.5,409.5l-0.7,0.7l-0.7,0.7l-14.2,14.2c-0.2,0.2-0.2,0.2-0.2,0.3l-2.3,6.2c-0.1,0.2,0.1,0.4,0.3,0.3
			l6.2-2.3c0.1-0.1,0.2,0,0.4-0.2l0,0l11.9-11.9c0.4-0.4,0.4-1.1,0-1.5s-1.1-0.4-1.5,0l-0.7,0.7l-0.6,0.6l-10.4,10.4l-1.7,0.2
			l0.2-1.7l10.4-10.4l0.6-0.6l3-3l2.2,2.2c0.4,0.4,1.1,0.4,1.5,0l0.7-0.7c1.2-1.2,1.2-3.2,0-4.5
			C-255.3,408.3-257.3,408.3-258.5,409.5z M-255.5,412.5l-1.5-1.5c0.4-0.4,1.1-0.4,1.5,0S-255.1,412-255.5,412.5z"/>
	</g>
	<g class="st1">
		<path class="st2" d="M-265,434.2c-7.6,0-13.7-6.1-13.7-13.7s6.1-13.7,13.7-13.7c7.6,0,13.7,6.1,13.7,13.7S-257.4,434.2-265,434.2z
			 M-265,408.9c-6.4,0-11.6,5.2-11.6,11.6s5.2,11.6,11.6,11.6c6.4,0,11.6-5.2,11.6-11.6S-258.6,408.9-265,408.9z M-259,426.5
			c0.4-0.4,0.4-1.1,0-1.5l-5-5v-5.9c0-0.6-0.4-1-1-1c-0.6,0-1,0.5-1,1v6.3c0,0.3,0.1,0.5,0.3,0.7l5.3,5.3c0.2,0.2,0.5,0.3,0.7,0.3
			S-259.2,426.7-259,426.5z"/>
	</g>
	<g class="st1">
		<path class="st2" d="M-253.4,431.9h-23.2c-0.6,0-1.2-0.3-1.2-0.9v-16.9c0-0.6,0.6-1.1,1.2-1.1h4.2c0.6,0,1,0.5,1,1.1v12.6
			c0,0.6-0.4,1-1,1c-0.6,0-1-0.5-1-1V415h-2v14.8h20.9V415h-5.2c-0.6,0-1.2-0.3-1.2-0.9V411h-4v3.1c0,0.6-0.5,0.9-1,0.9h-2.1
			c-0.6,0-1-0.4-1-1s0.5-1,1-1h1.1v-3.1c0-0.6,0.4-0.9,1-0.9h6.3c0.6,0,1.1,0.3,1.1,0.9v3.1h5.2c0.6,0,0.9,0.5,0.9,1.1V431
			C-252.5,431.6-252.8,431.9-253.4,431.9z M-272.4,411c0-0.6-0.5-1-1-1h-2.1c-0.6,0-1,0.4-1,1s0.5,1,1,1h2.1
			C-272.8,412-272.4,411.6-272.4,411z M-252.3,411c0-0.6-0.5-1-1-1h-2.1c-0.6,0-1,0.4-1,1s0.5,1,1,1h2.1
			C-252.8,412-252.3,411.6-252.3,411z M-256.6,422.6c0-3.5-2.8-6.3-6.3-6.3s-6.3,2.8-6.3,6.3s2.9,6.3,6.3,6.3
			S-256.6,426.1-256.6,422.6z M-258.6,422.6c0,2.3-1.9,4.2-4.2,4.2s-4.2-1.9-4.2-4.2s1.9-4.2,4.2-4.2S-258.6,420.3-258.6,422.6z"/>
	</g>
	<g class="st1">
		<path class="st2" d="M-254.5,410h-2.1v2h2v2h-20.9v-2h2v-2h-2.1c-1.1,0-2.3,0.9-2.3,2v19c0,1.1,1.1,2.3,2.3,2.3h21.1
			c1.1,0,2-1.1,2-2.3v-19C-252.5,410.9-253.3,410-254.5,410z M-254.5,430.9h-20.9v-14.5h20.9V430.9z M-270.4,413.1h-2v-6.4h2v3.4
			h4.4v-3.4h2v3.4h4.4v-3.4h2v6.4h-2v-1h-4.4v1h-2v-1h-4.4V413.1z M-269.4,422.5h-4v-4h4V422.5z M-263,422.5h-4v-4h4V422.5z
			 M-256.6,422.5h-4.4v-4h4.4V422.5z M-269.4,428.9h-4v-4h4V428.9z M-263,428.9h-4v-4h4V428.9z M-256.6,428.9h-4.4v-4h4.4V428.9z"/>
	</g>
	<g class="st1">
		<path class="st2" d="M-252.1,415c1.2-1,1.9-2.5,1.9-4c0-2.9-2.4-5.3-5.3-5.3c-1.6,0-3,0.7-4,1.9c-0.4,0.4-0.3,1.1,0.1,1.5
			s1.1,0.3,1.5-0.1c0.6-0.7,1.5-1.1,2.4-1.1c1.8,0,3.2,1.4,3.2,3.2c0,0.9-0.4,1.8-1.1,2.4c-0.4,0.4-0.5,1-0.1,1.5
			c0.2,0.2,0.5,0.4,0.8,0.4C-252.6,415.2-252.3,415.2-252.1,415z M-276.5,414.8c0.4-0.4,0.3-1.1-0.1-1.5c-0.7-0.6-1.1-1.4-1.1-2.4
			c0-1.8,1.4-3.2,3.2-3.2c0.9,0,1.8,0.4,2.4,1.1c0.4,0.4,1,0.5,1.5,0.1c0.4-0.4,0.5-1,0.1-1.5c-1-1.2-2.5-1.9-4-1.9
			c-2.9,0-5.3,2.4-5.3,5.3c0,1.5,0.7,3,1.8,3.9c0.2,0.2,0.4,0.3,0.7,0.3C-277,415.2-276.7,415.1-276.5,414.8z M-254.5,420.5
			c0-5.8-4.7-10.5-10.5-10.5c-5.8,0-10.5,4.7-10.5,10.5s4.7,10.5,10.5,10.5C-259.2,431-254.5,426.3-254.5,420.5z M-256.6,420.5
			c0,4.7-3.8,8.4-8.4,8.4c-4.6,0-8.4-3.8-8.4-8.4s3.8-8.4,8.4-8.4C-260.4,412.1-256.6,415.8-256.6,420.5z M-264,420.5v-4.2
			c0-0.6-0.4-1-1-1c-0.6,0-1,0.5-1,1v3.2h-1.1c-0.6,0-1,0.4-1,1s0.5,1,1,1h2.1C-264.4,421.5-264,421-264,420.5z M-274.6,434.8
			l2.1-3.2c0.3-0.5,0.2-1.1-0.3-1.4s-1.1-0.2-1.4,0.3l-2.1,3.2c-0.3,0.5-0.2,1.1,0.3,1.4c0.2,0.1,0.4,0.2,0.6,0.2
			C-275.2,435.2-274.9,435.1-274.6,434.8z M-253.9,435c0.5-0.3,0.6-1,0.3-1.4l-2.1-3.2c-0.3-0.5-1-0.6-1.4-0.3
			c-0.5,0.3-0.6,1-0.3,1.4l2.1,3.2c0.2,0.3,0.5,0.5,0.9,0.5C-254.3,435.2-254,435.2-253.9,435z"/>
	</g>
	<g class="st1">
		<path class="st2" d="M-254.5,432.1h-21c-1.1,0-2.1-0.9-2.1-2.1v-14.8c0-1.1,0.9-2.1,2.1-2.1h3.2c0.6,0,1-0.5,1-1
			c0-1.8,1.4-3.2,3.2-3.2h6.3c1.8,0,3.2,1.4,3.2,3.2c0,0.6,0.5,1,1,1h3.2c1.1,0,2.1,0.9,2.1,2.1V430
			C-252.3,431.1-253.3,432.1-254.5,432.1z M-275.5,415.2V430h21.1v-14.8h-3.2c-1.8,0-3.2-1.4-3.2-3.2c0-0.6-0.5-1-1-1h-6.3
			c-0.6,0-1,0.5-1,1c0,1.8-1.4,3.2-3.2,3.2C-272.4,415.2-275.5,415.2-275.5,415.2z M-262.6,427.4c0.5-0.2,0.8-0.8,0.6-1.4
			c-0.2-0.6-0.8-0.8-1.4-0.6c-0.5,0.2-1,0.3-1.6,0.3c-2.3,0-4.2-1.9-4.2-4.2s1.9-4.2,4.2-4.2c2.3,0,4.2,1.9,4.2,4.2
			c0,0.5-0.1,1-0.3,1.6c-0.2,0.5,0,1.1,0.6,1.4c0.5,0.2,1.1,0,1.4-0.6c0.3-0.8,0.5-1.6,0.5-2.4c0-3.5-2.8-6.3-6.3-6.3
			s-6.3,2.8-6.3,6.3s2.9,6.3,6.3,6.3C-264.2,427.9-263.4,427.7-262.6,427.4z"/>
	</g>
	<g class="st1">
		<path class="st2" d="M-257.9,408.9l-0.7,0.7c-3.9-2.3-8.9-2.3-12.8,0l-0.6-0.7c-0.6-0.6-1.6-0.6-2.2,0l-2.2,2.2
			c-0.6,0.6-0.6,1.6,0,2.2l0.6,0.6c-2.3,3.9-2.3,8.9,0,12.8l-0.7,0.7c-0.6,0.6-0.6,1.6,0,2.2l2.2,2.2c0.6,0.6,1.6,0.6,2.2,0l0.6-0.6
			c3.9,2.3,8.9,2.3,12.8,0l0.6,0.6c0.6,0.6,1.6,0.6,2.2,0l2.2-2.2c0.6-0.6,0.6-1.6,0-2.2l-0.6-0.7c2.3-3.9,2.3-8.9,0-12.8l0.6-0.6
			c0.6-0.6,0.6-1.6,0-2.2l-2.2-2.2C-256.3,408.3-257.3,408.3-257.9,408.9z M-260.6,411.7l-1.7,1.6c-0.1,0.1-0.3,0.2-0.5,0.1
			c-1.4-0.4-2.9-0.4-4.3,0c-0.2,0.1-0.4,0-0.5-0.1l-1.7-1.7c-0.3-0.3-0.2-0.7,0.2-0.8c2.7-1.1,5.7-1.1,8.4,0
			C-260.5,411-260.4,411.4-260.6,411.7z M-261.3,424.2c-2,2.1-5.4,2.1-7.4,0s-2.1-5.4,0-7.4s5.4-2.1,7.5,0
			C-259.2,418.8-259.2,422.2-261.3,424.2z M-273.2,410.8l3.8,3.8c-0.3,0.2-0.5,0.4-0.8,0.7c-0.3,0.2-0.5,0.5-0.7,0.8l-3.8-3.8
			L-273.2,410.8z M-273.8,416.1l1.7,1.7c0.1,0.1,0.2,0.3,0.1,0.5c-0.4,1.4-0.4,2.9,0,4.3c0.1,0.2,0,0.4-0.1,0.5l-1.7,1.7
			c-0.3,0.3-0.7,0.2-0.8-0.2c-1.1-2.7-1.1-5.7,0-8.4C-274.5,416-274.1,415.9-273.8,416.1z M-274.7,428.7l3.8-3.8
			c0.2,0.3,0.4,0.5,0.7,0.8s0.5,0.5,0.8,0.7l-3.8,3.8L-274.7,428.7z M-269.3,429.3l1.7-1.7c0.1-0.1,0.3-0.2,0.5-0.1
			c1.4,0.4,2.9,0.4,4.3,0c0.2-0.1,0.4,0,0.5,0.1l1.7,1.7c0.3,0.3,0.2,0.7-0.2,0.8c-2.7,1.1-5.7,1.1-8.4,0
			C-269.5,430-269.6,429.5-269.3,429.3z M-256.8,430.1l-3.8-3.8c0.3-0.2,0.5-0.4,0.8-0.7c0.3-0.3,0.5-0.5,0.7-0.8l3.8,3.8
			L-256.8,430.1z M-256.2,424.8l-1.6-1.7c-0.1-0.1-0.2-0.3-0.1-0.5c0.4-1.4,0.4-2.9,0-4.3c-0.1-0.2,0-0.4,0.1-0.5l1.7-1.7
			c0.3-0.3,0.7-0.2,0.8,0.2c1.1,2.7,1.1,5.7,0,8.4C-255.5,425-255.9,425.1-256.2,424.8z M-255.3,412.3l-3.8,3.8
			c-0.2-0.3-0.4-0.5-0.7-0.8s-0.5-0.5-0.8-0.7l3.8-3.8L-255.3,412.3z"/>
	</g>
	<g class="st1">
		<path class="st2" d="M-261.8,421.5c0,0.6-0.5,1-1,1h-2.1c-0.6,0-1-0.4-1-1v-4.2c0-0.6,0.4-1,1-1s1,0.5,1,1v3.2h1.1
			C-262.3,420.5-261.8,420.9-261.8,421.5z M-260.8,431c-0.6,0-1.2,0.5-1.2,1v2.1c0,0.6,0.6,1,1.2,1c0.6,0,1.2-0.5,1.2-1V432
			C-259.6,431.5-260.2,431-260.8,431z M-255,418.4c-0.1,0-0.3,0-0.4,0.1c-0.2,0.1-0.3,0-0.3-0.2c-0.6-2.4-2.2-4.4-3.9-5.7v-5.9
			c0-0.6-0.6-1.1-1.3-1c-0.5,0-1.1,0.5-1.1,1.1v4c0,0.3-0.3,0.6-0.6,0.5c-0.8-0.2-1.6-0.3-2.5-0.3c-0.9,0-1.6,0.1-2.4,0.3
			c-0.3,0.1-0.6-0.2-0.6-0.5v-4c0-0.6-0.6-1.1-1.3-1c-0.5,0-1,0.5-1,1.1v5.8c-2.4,1.7-4.2,4.6-4.2,7.9s1.9,6.2,4.2,7.9v5.8
			c0,0.6,0.6,1.1,1.3,1c0.5-0.1,1.1-0.5,1.1-1.1v-4c0-0.3,0.3-0.6,0.6-0.5c1,0.3,2.2,0.4,3.3,0.3c4.1-0.4,7.4-3.4,8.3-7.2
			c0-0.2,0.2-0.2,0.4-0.2c0.1,0.1,0.3,0.1,0.4,0.1c0.6,0,1.1-0.5,1.1-1.1v-2C-253.9,418.9-254.4,418.3-255,418.4z M-265,427.9
			c-4.1,0-7.4-3.3-7.4-7.4s3.3-7.4,7.4-7.4c4.1,0,7.4,3.3,7.4,7.4S-260.9,427.9-265,427.9z"/>
	</g>
	<g class="st1">
		<g class="st3">
			<path class="st0" d="M-252.9,413.1h-6.3c-0.3,0-0.5-0.2-0.5-0.5V411c0-1.2-0.9-2.1-2.1-2.1h-6.3c-1.2,0-2.1,0.9-2.1,2.1v1.6
				c0,0.3-0.2,0.5-0.5,0.5h-1.6h-2.1h-2.6c-0.9,0-1.6,0.7-1.6,1.6v15.8c0,0.9,0.7,1.6,1.6,1.6h24.2c0.9,0,1.6-0.7,1.6-1.6v-15.8
				C-251.3,413.8-252,413.1-252.9,413.1z M-267.9,411h5.8c0.1,0,0.3,0.1,0.3,0.3v1.9h-6.3v-1.9C-268.2,411.1-268,411-267.9,411z
				 M-257.6,415.1v5.7c-2.4,1.2-4.9,1.8-7.4,1.8s-5.1-0.6-7.4-1.8v-5.7H-257.6z M-276.4,429.9v-14.8h2v14.8H-276.4z M-272.4,423.1
				c2.4,1,4.9,1.6,7.4,1.6s5.1-0.5,7.4-1.6v6.8h-14.8L-272.4,423.1L-272.4,423.1z M-253.5,429.9h-2v-14.8h2V429.9z"/>
			<rect x="-266" y="417.4" class="st0" width="2" height="3"/>
		</g>
	</g>
	<g class="st1">
		<g class="st3">
			<path class="st0" d="M-258.1,419.4h-10.5c-0.3,0-0.5-0.2-0.5-0.5v-4.6c0-2.3,1.8-4.2,4-4.3c2.4-0.1,4.4,1.8,4.4,4.2v2.1
				c0,0.5,0.4,1,0.9,1.1c0.6,0.1,1.1-0.4,1.1-1v-2c0-3.5-2.9-6.5-6.4-6.5c-3.4,0.1-6.2,2.9-6.2,6.3v4.8c0,0.3-0.2,0.5-0.5,0.5l0,0
				c-0.9,0-1.6,0.7-1.6,1.6v11.6c0,0.9,0.7,1.6,1.6,1.6h13.7c0.9,0,1.6-0.7,1.6-1.6v-11.6C-256.6,420.1-257.3,419.4-258.1,419.4z
				 M-258.9,432.1H-271c-0.1,0-0.3-0.1-0.3-0.3v-10c0-0.1,0.1-0.3,0.3-0.3h12.1c0.1,0,0.3,0.1,0.3,0.3v10
				C-258.6,431.9-258.8,432.1-258.9,432.1z"/>
			<path class="st0" d="M-265,424.7L-265,424.7c-0.6,0-1,0.5-1,1v3.2h2.1v-3.2C-263.9,425.2-264.4,424.7-265,424.7z"/>
		</g>
	</g>
	<g class="st1">
		<path class="st2" d="M-261.8,421.5c0,0.6-0.5,1-1,1h-2.1c-0.6,0-1-0.4-1-1v-3.2c0-0.6,0.4-1,1-1s1,0.5,1,1v2.1h1.1
			C-262.3,420.5-261.8,420.9-261.8,421.5z M-254.5,416.3v3.2c0,0.6-0.4,1-1,1h-1v5.3c0,1.6-0.9,3-2.3,3.7v0.2
			c-0.5,1-0.7,2.2-0.7,3.3v1.2c0,0.3-0.2,0.6-0.4,0.8c-0.2,0.1-1.6,1.3-5,1.3c-3.3,0-4.8-1.2-5-1.3c-0.2-0.2-0.4-0.5-0.4-0.8V433
			c0-1.1-0.2-2.3-0.7-3.3l-0.1-0.2c-1.3-0.7-2.2-2.1-2.2-3.7v-10.5c0-1.6,0.9-3,2.3-3.7v-0.2c0.5-1,0.7-2.2,0.7-3.3V407
			c0-0.3,0.2-0.5,0.4-0.7c0.2-0.2,1.6-1.3,5-1.3c3.4,0,4.8,1.1,5,1.3c0.1,0.2,0.3,0.4,0.3,0.7v1.2c0,1.1,0.2,2.3,0.7,3.3l0.1,0.2
			c1.4,0.7,2.3,2.3,2.3,3.6h1C-254.9,415.1-254.5,415.7-254.5,416.3z M-268,407.9c0,0.8-0.2,1.6-0.4,2.4c-0.1,0.3,0.1,0.7,0.4,0.7
			h5.9c0.3,0,0.5-0.3,0.4-0.7c-0.2-0.8-0.4-1.6-0.4-2.4v-0.6c-0.3-0.2-1.3-0.6-3-0.6c-1.7,0-2.7,0.3-3,0.6
			C-268,407.3-268,407.9-268,407.9z M-261.9,433c0-0.8,0.2-1.6,0.4-2.4c0.1-0.3-0.1-0.7-0.4-0.7h-5.9c-0.3,0-0.5,0.3-0.4,0.7
			c0.2,0.8,0.4,1.6,0.4,2.4v0.6c0.3,0.2,1.4,0.6,3,0.6c1.6,0,2.7-0.3,3-0.6L-261.9,433L-261.9,433z M-258.6,415.1
			c0-1.2-0.9-2.1-2.1-2.1h-8.6c-1.2,0-2.1,0.9-2.1,2.1v10.6c0,1.2,0.9,2.1,2.1,2.1h8.6c1.2,0,2.1-0.9,2.1-2.1V415.1L-258.6,415.1z"
			/>
	</g>
	<g class="st1">
		<g class="st3">
			<rect x="-259.6" y="421.5" class="st0" width="2" height="2"/>
			<path class="st0" d="M-253.7,417.3h-0.8v-3.7c0-0.9-0.7-1.6-1.6-1.6h-18.4c-0.5,0-1-0.4-1.1-0.9c-0.1-0.6,0.4-1.1,1-1.1h17.9
				c0.5,0,1-0.4,1.1-0.9c0.1-0.6-0.4-1.1-1-1.1h-17.8c-1.7,0-3.1,1.2-3.2,2.9c-0.2,1.9,1.3,3.5,3.1,3.5h17.9v2.6
				c0,0.3-0.2,0.5-0.5,0.5h-2.5c-2.9,0-5.3,2.2-5.4,5.1c-0.1,3,2.3,5.5,5.3,5.5h2.6c0.3,0,0.5,0.2,0.5,0.5v2.6h-19v-14.9
				c0-0.5-0.4-1-0.9-1.1c-0.6-0.1-1.1,0.4-1.1,1v15.3c0,0.9,0.7,1.6,1.6,1.6h20c0.9,0,1.6-0.7,1.6-1.6v-3.7h0.8
				c0.7,0,1.3-0.6,1.3-1.3v-7.9C-252.3,417.9-252.9,417.3-253.7,417.3z M-254.7,425.7h-4.9c-1.7,0-3.1-1.2-3.2-2.9
				c-0.2-1.9,1.3-3.5,3.1-3.5h5c0.1,0,0.3,0.1,0.3,0.3v5.8C-254.5,425.6-254.6,425.7-254.7,425.7z"/>
		</g>
	</g>
	<g class="st1">
		<path class="st2" d="M-274.5,425.9c0-0.6,0.5-1,1-1h4.2c0.6,0,1,0.4,1,1s-0.5,1-1,1h-4.2C-274,426.9-274.5,426.4-274.5,425.9z
			 M-265,426.9h2.1c0.6,0,1-0.4,1-1s-0.5-1-1-1h-2.1c-0.6,0-1,0.4-1,1C-266,426.4-265.6,426.9-265,426.9z M-257.6,426.9h1
			c0.6,0,1-0.4,1-1s-0.5-1-1-1h-1c-0.6,0-1,0.4-1,1C-258.6,426.4-258.2,426.9-257.6,426.9z M-251.2,413.1v0.8v0.3v1v0.8v14.5
			c0,0.9-0.8,1.4-1.7,1.4h-24.2c-0.9,0-1.7-0.5-1.7-1.4V416v-0.8v-1v-0.5v-0.5c0-1.7,1.6-3.1,3.3-3.1h21.1
			C-252.7,410-251.2,411.4-251.2,413.1z M-253.5,419.5h-22.9V430h22.9V419.5z M-253.5,413.9v-0.8c0-0.6-0.3-1-0.9-1h-21
			c-0.6,0-0.9,0.4-0.9,1v0.5v0.5v0.9h22.9v-0.9v-0.2H-253.5z"/>
	</g>
</g>
</svg>
