<?xml version="1.0" encoding="utf-8"?>
<!-- Generator: Adobe Illustrator 19.0.0, SVG Export Plug-In . SVG Version: 6.00 Build 0)  -->
<svg version="1.1" id="Слой_1" xmlns="http://www.w3.org/2000/svg" xmlns:xlink="http://www.w3.org/1999/xlink" x="0px" y="0px"
	 viewBox="-213 405.4 32 32" style="enable-background:new -213 405.4 32 32;" xml:space="preserve">
<style type="text/css">
	.st0{fill:#FFFFFF;}
</style>
<path class="st0" d="M-181.2,422.5c0,0.4,0,0.9,0,1.3c-0.3,2-1,4-2.1,5.8c-1.1,1.8-2.4,3.3-4.1,4.6c-1.6,1.2-3.5,2.2-5.5,2.7
	c-1,0.3-2,0.4-3,0.5l-0.4,0h-0.4h-0.4h0h-0.1h-0.1h-0.2c-0.4,0-1,0-1.5-0.1c-2-0.2-4-0.9-5.8-1.9c-1.8-1-3.4-2.3-4.7-3.9
	c-1.3-1.6-2.2-3.4-2.8-5.3c-0.6-1.9-0.8-4-0.6-5.9c0.1-2.2,0.7-4.4,1.8-6.4s2.5-3.7,4.2-5.1c1.8-1.4,3.8-2.4,6-2.9
	c1.1-0.3,2.2-0.4,3.3-0.4h0.4h0.1h0h0.1h0.2h0.4l0.4,0l0.4,0l0.4,0c0.3,0,0.6,0.1,0.8,0.1c1.4,0.2,2.7,0.7,4,1.3
	c1.2,0.6,2.4,1.4,3.5,2.3c2.1,1.8,3.7,4.2,4.5,6.8c0.5,1.4,0.6,2.8,0.6,3.7c-0.1,0.9-0.2,1.5-0.4,1.6c-0.5,0.2-0.6-2.1-1.6-4.6
	c-0.8-2.2-2.2-4.2-3.9-5.8c-0.9-0.8-1.8-1.4-2.9-2c-1-0.6-2.1-1-3.3-1.2c-2.3-0.6-4.7-0.5-7,0.1c-2.3,0.6-4.4,1.8-6.1,3.4
	c-1.1,1-2,2.2-2.8,3.5c-0.7,1.3-1.2,2.8-1.4,4.2c-0.1,0.4-0.1,0.8-0.1,1.1l0,0.6c0,0.2,0,0.4,0,0.6c0,0.7,0,1.5,0.1,2.2
	c0.4,3,1.8,5.8,3.9,7.9s4.9,3.7,7.8,4.1c0.8,0.1,1.4,0.2,2.3,0.2h0.6c0.2,0,0.4,0,0.6,0c0.4,0,0.8-0.1,1.1-0.1
	c1.5-0.2,3-0.7,4.3-1.3c1.1-0.6,2.2-1.3,3.1-2.1c0.9-0.8,1.8-1.7,2.5-2.7c1.4-2,2.4-4.1,2.9-6.3c0.1-0.3,0.1-0.6,0.2-0.9
	c0.1-0.2,0.1-0.4,0.2-0.6c0.1-0.3,0.2-0.3,0.3,0C-181.3,421.8-181.2,422.1-181.2,422.5z M-195.8,418.1c0.2-0.3,0.3-0.7-0.1-1
	c-0.3-0.3-0.7-0.3-1-0.1c-0.6,0.4-1.1,0.8-1.6,1.3c-0.8,0.8-1.4,1.6-2.2,2.4l-0.1,0.1l0,0c-0.2,0.1-0.3,0.4-0.2,0.7l0.2,0.3
	c1,1.7,2.5,2.9,3.8,4.3c0.1,0.1,0.3,0,0.4,0c0.2-0.1,0.3-0.3,0.3-0.6c0-0.8-0.3-1.4-0.8-1.9c-0.7-0.8-1.3-1.6-2-2.3
	c0.1-0.1,0.3-0.2,0.4-0.4C-197.5,420.1-196.6,419.2-195.8,418.1z"/>
</svg>
