<svg width="40" height="40" viewBox="0 0 40 40" fill="none" xmlns="http://www.w3.org/2000/svg">
<path d="M12.7599 31.1127C10.4536 31.1127 8.58398 32.9823 8.58398 35.2886C8.58398 37.595 10.4536 39.4645 12.7599 39.4645C15.0663 39.4645 16.9358 37.5949 16.9358 35.2886C16.9359 32.9823 15.0663 31.1127 12.7599 31.1127ZM12.7599 37.6086C11.4786 37.6086 10.44 36.57 10.44 35.2887C10.44 34.0074 11.4786 32.9687 12.7599 32.9687C14.0412 32.9687 15.0799 34.0074 15.0799 35.2887C15.0799 36.57 14.0412 37.6086 12.7599 37.6086Z" fill="black"/>
<path d="M30.3917 31.1127C28.0854 31.1127 26.2158 32.9823 26.2158 35.2886C26.2158 37.595 28.0855 39.4645 30.3917 39.4645C32.698 39.4645 34.5677 37.5949 34.5677 35.2886C34.5677 32.9823 32.6981 31.1127 30.3917 31.1127ZM30.3917 37.6086C29.1105 37.6086 28.0718 36.57 28.0718 35.2887C28.0718 34.0074 29.1105 32.9687 30.3917 32.9687C31.673 32.9687 32.7117 34.0074 32.7117 35.2887C32.7118 36.57 31.673 37.6086 30.3917 37.6086Z" fill="black"/>
<path d="M39.8109 6.75296C39.6176 6.54185 39.3532 6.4097 39.0685 6.38173L8.86235 5.96413L8.02716 3.41213C7.43879 1.70614 5.84124 0.554434 4.03676 0.535339H0.927994C0.415462 0.535339 0 0.950801 0 1.46333C0 1.97587 0.415462 2.39133 0.927994 2.39133H4.03676C5.04575 2.41362 5.93423 3.0615 6.26398 4.01534L12.1567 21.7864L11.6928 22.8535C11.1753 24.188 11.3307 25.69 12.1104 26.8903C12.8826 28.0692 14.1817 28.7967 15.5904 28.8391H33.6399C34.1524 28.8391 34.5679 28.4236 34.5679 27.9111C34.5679 27.3986 34.1524 26.9831 33.6399 26.9831H15.5903C14.7948 26.9632 14.0625 26.5447 13.6415 25.8695C13.2251 25.2025 13.1396 24.3808 13.4095 23.6423L13.7807 22.8071L33.315 20.7655C35.4607 20.5292 37.2257 18.9686 37.723 16.8679L39.9502 7.54161C40.0506 7.27304 39.9973 6.97099 39.8109 6.75296ZM35.9134 16.4504C35.6121 17.8026 34.464 18.8001 33.083 18.9096L13.7807 20.9048L9.46556 7.82012L37.9085 8.23771L35.9134 16.4504Z" fill="black"/>
</svg>
