<svg width="35" height="29" viewBox="0 0 35 29" fill="none" xmlns="http://www.w3.org/2000/svg">
<path d="M25.0759 0.0122741C22.1562 -0.00332915 19.3807 1.27893 17.5 3.51223C15.631 1.26367 12.8477 -0.0222396 9.924 0.0122741C4.4431 0.0122741 0 4.45538 0 9.93627C0 19.3287 16.3924 28.4995 17.057 28.854C17.3251 29.0332 17.6748 29.0332 17.943 28.854C18.6076 28.4995 35 19.4616 35 9.93627C35 4.45538 30.5568 0.0122741 25.0759 0.0122741ZM17.5 27.0818C14.9303 25.5755 1.77215 17.5566 1.77215 9.93627C1.77215 5.43414 5.42187 1.78434 9.92408 1.78434C12.6811 1.74813 15.2612 3.13877 16.7468 5.46153C17.0485 5.87748 17.6303 5.97017 18.0462 5.66845C18.1257 5.61078 18.1956 5.54099 18.2532 5.46153C20.717 1.69344 25.7691 0.636149 29.5372 3.10002C31.8439 4.60836 33.2323 7.18009 33.2278 9.93618C33.2278 17.6451 20.0696 25.6198 17.5 27.0818Z" fill="black"/>
</svg>
