<svg width="16" height="16" viewBox="0 0 16 16" fill="none" xmlns="http://www.w3.org/2000/svg">
<path fill-rule="evenodd" clip-rule="evenodd" d="M14.9987 6.39198C14.9987 9.38178 12.6085 11.784 9.68653 11.784C6.76455 11.784 4.37441 9.38178 4.37441 6.39198C4.37441 3.40218 6.76455 1 9.68653 1C12.6085 1 14.9987 3.40218 14.9987 6.39198ZM15.9987 6.39198C15.9987 9.92217 13.1726 12.784 9.68653 12.784C8.07161 12.784 6.59833 12.1698 5.48202 11.1596L0.702648 15.9994L0 15.2879L4.79501 10.4322C3.90702 9.33108 3.37441 7.92451 3.37441 6.39198C3.37441 2.86179 6.20045 0 9.68653 0C13.1726 0 15.9987 2.86179 15.9987 6.39198Z" fill="black"/>
</svg>
