<svg width="14" height="24" viewBox="0 0 14 24" fill="none" xmlns="http://www.w3.org/2000/svg">
<path d="M6.90909 17.9091C10.1726 17.9091 12.8182 15.2635 12.8182 12C12.8182 8.73647 10.1726 6.09088 6.90909 6.09088C3.64559 6.09088 1 8.73647 1 12C1 15.2635 3.64559 17.9091 6.90909 17.9091Z" stroke="black" stroke-linecap="round" stroke-linejoin="round"/>
<path d="M6.90918 9.04553V12.0001L8.38645 13.4774" stroke="black" stroke-linecap="round" stroke-linejoin="round"/>
<path d="M11.3507 16.2841L11.006 21.041C10.9616 21.532 10.7347 21.9886 10.37 22.3205C10.0053 22.6524 9.52939 22.8354 9.03631 22.8334H4.77191C4.27883 22.8354 3.80293 22.6524 3.43824 22.3205C3.07354 21.9886 2.84659 21.532 2.80222 21.041L2.45752 16.2841M2.46737 7.71595L2.81207 2.95913C2.85629 2.46973 3.08184 2.01454 3.44445 1.68291C3.80706 1.35128 4.28053 1.16717 4.77191 1.1667H9.05601C9.54909 1.1647 10.025 1.34772 10.3897 1.67959C10.7544 2.01146 10.9813 2.46804 11.0257 2.95913L11.3704 7.71595" stroke="black" stroke-linecap="round" stroke-linejoin="round"/>
</svg>
