<?xml version="1.0" encoding="utf-8"?>
<!-- Generator: Adobe Illustrator 21.0.0, SVG Export Plug-In . SVG Version: 6.00 Build 0)  -->
<svg version="1.1" id="Слой_1" xmlns="http://www.w3.org/2000/svg" xmlns:xlink="http://www.w3.org/1999/xlink" x="0px" y="0px"
	 viewBox="0 0 64 64" style="enable-background:new 0 0 64 64;" xml:space="preserve">
<style type="text/css">
	.st0{fill:#7B7DDD;}
</style>
<title>Artboard 19</title>
<path class="st0" d="M3.3,64C1.5,64,0,62.5,0,60.7c0-1.8,1.5-3.3,3.3-3.3h12.2c1.8,0,3.3,1.5,3.3,3.3c0,1.8-1.5,3.3-3.3,3.3H3.3z
	 M0,39.8c0,1.8,1.5,3.3,3.3,3.3h12.2c1.8,0,3.3-1.5,3.3-3.3s-1.5-3.3-3.3-3.3H3.3C1.5,36.6,0,38,0,39.8z M3.3,53.6h12.2
	c1.8,0,3.3-1.5,3.3-3.3c0-1.8-1.5-3.3-3.3-3.3H3.3C1.5,47,0,48.5,0,50.3C0,52.1,1.5,53.6,3.3,53.6z M48.5,53.6h12.2
	c1.8,0,3.3-1.5,3.3-3.3c0-1.8-1.5-3.3-3.3-3.3H48.5c-1.8,0-3.3,1.5-3.3,3.3C45.2,52.1,46.7,53.6,48.5,53.6z M38.1,47H25.9
	c-1.8,0-3.3,1.5-3.3,3.3c0,1.8,1.5,3.3,3.3,3.3h12.3c1.8,0,3.3-1.5,3.3-3.3C41.4,48.5,39.9,47,38.1,47z M41.4,60.7
	c0-1.8-1.5-3.3-3.3-3.3H25.9c-1.8,0-3.3,1.5-3.3,3.3c0,1.8,1.5,3.3,3.3,3.3h12.3C39.9,64,41.4,62.5,41.4,60.7z M38.1,36.6H25.9
	c-1.8,0-3.3,1.5-3.3,3.3s1.5,3.3,3.3,3.3h12.3c1.8,0,3.3-1.5,3.3-3.3S39.9,36.6,38.1,36.6z M60.7,57.5H48.5c-1.8,0-3.3,1.5-3.3,3.3
	c0,1.8,1.5,3.3,3.3,3.3h12.2c1.8,0,3.3-1.5,3.3-3.3C64,58.9,62.5,57.5,60.7,57.5z M38.1,26.1H25.9c-1.8,0-3.3,1.5-3.3,3.3
	c0,1.8,1.5,3.3,3.3,3.3h12.3c1.8,0,3.3-1.5,3.3-3.3C41.4,27.6,39.9,26.1,38.1,26.1z M60.7,30.9h-2.4L58,23.4c0-0.8-0.7-1.4-1.5-1.4
	h-3.8c-0.8,0-1.5,0.6-1.5,1.4L51,30.9h-2.4c-1,0-1.8,0.8-1.8,1.8c0,0.4,0.1,0.8,0.4,1.1l5.6,7.4c0.8,1,2.2,1.2,3.2,0.4
	c0.2-0.1,0.3-0.3,0.4-0.4l5.6-7.4c0.6-0.8,0.4-1.9-0.4-2.5C61.4,31,61,30.9,60.7,30.9z M33.8,3.3c-0.8-1-2.2-1.2-3.2-0.4
	c-0.2,0.1-0.3,0.3-0.4,0.4l-5.6,7.4c-0.6,0.8-0.5,1.9,0.3,2.5c0.3,0.2,0.7,0.4,1.1,0.4h2.4l0.2,7.4c0,0.8,0.7,1.4,1.5,1.4h3.8
	c0.8,0,1.5-0.6,1.5-1.4l0.2-7.4h2.4c1,0,1.8-0.8,1.8-1.8c0-0.4-0.1-0.8-0.4-1.1L33.8,3.3z M5.8,23.6L6,31.1c0,0.8,0.7,1.5,1.5,1.5
	c0,0,0,0,0,0h3.8c0.8,0,1.5-0.6,1.5-1.4l0.2-7.4h2.4c1,0,1.8-0.8,1.8-1.8c0-0.4-0.1-0.8-0.4-1.1l-5.6-7.4c-0.8-1-2.2-1.2-3.2-0.4
	c-0.2,0.1-0.3,0.3-0.4,0.4l-5.6,7.4c-0.6,0.8-0.4,1.9,0.3,2.5c0.3,0.2,0.7,0.4,1.1,0.4L5.8,23.6z"/>
</svg>
